# Blender 4.4.3
# www.blender.org
mtllib cactus.mtl
o Cactus
v 0.000000 9.748278 -0.195090
v 0.000000 9.691372 -0.382683
v 0.000000 9.474600 -0.707107
v 0.000000 9.150176 -0.923880
v 0.000000 8.962584 -0.980785
v 0.074658 9.748278 -0.180240
v 0.146447 9.691372 -0.353553
v 0.212608 9.598963 -0.513280
v 0.270598 9.474600 -0.653281
v 0.318190 9.323063 -0.768178
v 0.353553 9.150176 -0.853553
v 0.375330 8.962584 -0.906127
v 0.382683 8.767492 -0.923880
v 0.137950 9.748278 -0.137950
v 0.270598 9.691372 -0.270598
v 0.392848 9.598963 -0.392847
v 0.500000 9.474600 -0.500000
v 0.587938 9.323063 -0.587938
v 0.653282 9.150176 -0.653281
v 0.693520 8.962584 -0.693520
v 0.707107 8.767492 -0.707107
v -0.382684 1.426086 0.923879
v -0.382684 2.894367 0.923879
v 0.180240 9.748278 -0.074658
v 0.353553 9.691372 -0.146447
v 0.513280 9.598963 -0.212608
v 0.653281 9.474600 -0.270598
v 0.768178 9.323063 -0.318190
v 0.853553 9.150176 -0.353553
v 0.906127 8.962584 -0.375330
v 0.923880 8.767492 -0.382683
v -0.382684 4.362648 0.923879
v -0.382684 5.830930 0.923879
v -0.382684 7.299211 0.923879
v -0.000000 7.299211 1.000000
v -0.000000 5.830930 1.000000
v -0.000000 4.362648 1.000000
v -0.000000 2.894367 1.000000
v 0.195090 9.748278 0.000000
v 0.382683 9.691372 0.000000
v 0.555570 9.598963 0.000000
v 0.707107 9.474600 0.000000
v 0.831470 9.323063 0.000000
v 0.923880 9.150176 0.000000
v 0.980785 8.962584 0.000000
v 1.000000 8.767492 0.000000
v -0.000000 1.426086 1.000000
v 0.707107 1.426086 -0.707107
v 0.707107 2.894367 -0.707107
v 0.707107 4.362648 -0.707107
v 0.707107 5.830930 -0.707107
v 0.707107 7.299211 -0.707107
v 0.382683 7.299211 -0.923880
v 0.180240 9.748278 0.074658
v 0.353553 9.691372 0.146447
v 0.513280 9.598963 0.212608
v 0.653281 9.474600 0.270598
v 0.768178 9.323063 0.318190
v 0.853553 9.150176 0.353554
v 0.906127 8.962584 0.375330
v 0.923879 8.767492 0.382684
v 0.382683 5.830930 -0.923880
v 0.382683 4.362648 -0.923880
v 0.382683 2.894367 -0.923880
v 0.382683 1.426086 -0.923880
v 0.382683 1.426086 0.923880
v 0.382683 2.894367 0.923880
v 0.382683 4.362648 0.923880
v 0.137950 9.748278 0.137950
v 0.270598 9.691372 0.270598
v 0.392847 9.598963 0.392848
v 0.500000 9.474600 0.500000
v 0.587938 9.323063 0.587938
v 0.653281 9.150176 0.653282
v 0.693520 8.962584 0.693520
v 0.707107 8.767492 0.707107
v 0.382683 5.830930 0.923880
v 0.382683 7.299211 0.923880
v 0.707107 7.299211 0.707107
v 0.707107 5.830930 0.707107
v 0.707107 4.362648 0.707107
v 0.707107 2.894367 0.707107
v 0.707107 1.426086 0.707107
v 0.074658 9.748278 0.180240
v 0.146447 9.691372 0.353553
v 0.212607 9.598963 0.513280
v 0.270598 9.474600 0.653281
v 0.318189 9.323063 0.768178
v 0.353553 9.150176 0.853553
v 0.375330 8.962584 0.906127
v 0.382683 8.767492 0.923880
v -0.382683 1.426086 -0.923880
v -0.382683 2.894367 -0.923880
v -0.382683 4.362648 -0.923880
v -0.382683 5.830930 -0.923880
v -0.382683 7.299211 -0.923880
v -0.707106 7.299211 -0.707107
v -0.707106 5.830930 -0.707107
v -0.000000 9.748278 0.195090
v -0.000000 9.691372 0.382683
v -0.000000 9.598963 0.555570
v -0.000000 9.474600 0.707107
v -0.000000 9.323063 0.831469
v -0.000000 9.150176 0.923879
v -0.000000 8.962584 0.980785
v -0.000000 8.767492 1.000000
v -0.707106 4.362648 -0.707107
v -0.707106 2.894367 -0.707107
v -0.707106 1.426086 -0.707107
v 0.923879 7.299211 0.382684
v 0.923879 5.830930 0.382684
v 0.923879 4.362648 0.382684
v 0.923879 2.894367 0.382684
v -0.074658 9.748278 0.180240
v -0.146447 9.691372 0.353553
v -0.212608 9.598963 0.513280
v -0.270598 9.474600 0.653281
v -0.318190 9.323063 0.768178
v -0.353554 9.150176 0.853553
v -0.375331 8.962584 0.906127
v -0.382684 8.767492 0.923879
v 0.923879 1.426086 0.382684
v -0.923879 7.299211 -0.382684
v -0.923879 5.830930 -0.382684
v -0.923879 4.362648 -0.382684
v -0.923879 2.894367 -0.382684
v -0.923879 1.426086 -0.382684
v -1.000000 7.299211 -0.000001
v -1.000000 5.830930 -0.000001
v -0.137950 9.748278 0.137950
v -0.270598 9.691372 0.270598
v -0.392848 9.598963 0.392847
v -0.500000 9.474600 0.500000
v -0.587938 9.323063 0.587938
v -0.653282 9.150176 0.653281
v -0.693520 8.962584 0.693520
v -0.707107 8.767492 0.707106
v -1.000000 4.362648 -0.000001
v -1.000000 2.894367 -0.000001
v -1.000000 1.426086 -0.000001
v -0.707107 1.426086 0.707106
v -0.707107 2.894367 0.707106
v -0.707107 4.362648 0.707106
v -0.707107 5.830930 0.707106
v -0.180240 9.748278 0.074658
v -0.353553 9.691372 0.146446
v -0.513280 9.598963 0.212607
v -0.653281 9.474600 0.270598
v -0.768178 9.323063 0.318189
v -0.853553 9.150176 0.353553
v -0.906127 8.962584 0.375330
v -0.923880 8.767492 0.382683
v -0.707107 7.299211 0.707106
v 1.000000 7.299211 0.000000
v 1.000000 5.830930 0.000000
v 1.000000 4.362648 0.000000
v 1.000000 2.894367 0.000000
v 1.000000 1.426086 0.000000
v -0.923880 1.426086 0.382683
v 0.000000 9.767493 0.000000
v -0.195090 9.748278 -0.000000
v -0.382683 9.691372 -0.000000
v -0.555570 9.598963 -0.000000
v -0.707107 9.474600 -0.000000
v -0.831469 9.323063 -0.000000
v -0.923879 9.150176 -0.000000
v -0.980785 8.962584 -0.000000
v -1.000000 8.767492 -0.000001
v -0.923880 2.894367 0.382683
v -0.923880 4.362648 0.382683
v -0.923880 5.830930 0.382683
v -0.923880 7.299211 0.382683
v 0.923880 7.299211 -0.382683
v 0.923880 5.830930 -0.382683
v 0.923880 4.362648 -0.382683
v -0.180240 9.748278 -0.074658
v -0.353553 9.691372 -0.146447
v -0.513280 9.598963 -0.212608
v -0.653281 9.474600 -0.270598
v -0.768178 9.323063 -0.318190
v -0.853553 9.150176 -0.353554
v -0.906127 8.962584 -0.375331
v -0.923879 8.767492 -0.382684
v 0.923880 2.894367 -0.382683
v 0.923880 1.426086 -0.382683
v 0.000001 1.426086 -1.000000
v 0.000001 2.894367 -1.000000
v 0.000001 4.362648 -1.000000
v 0.000001 5.830930 -1.000000
v 0.000001 7.299211 -1.000000
v -0.137950 9.748278 -0.137950
v -0.270598 9.691372 -0.270598
v -0.392847 9.598963 -0.392848
v -0.500000 9.474600 -0.500000
v -0.587937 9.323063 -0.587938
v -0.653281 9.150176 -0.653282
v -0.693519 8.962584 -0.693520
v -0.707106 8.767492 -0.707107
v 0.000001 -0.042195 -1.000000
v -0.382683 -0.042195 -0.923880
v -0.707106 -0.042195 -0.707107
v -0.923879 -0.042195 -0.382684
v -1.000000 -0.042195 -0.000001
v -0.923880 -0.042195 0.382683
v -0.707107 -0.042195 0.707106
v -0.074658 9.748278 -0.180240
v -0.146446 9.691372 -0.353554
v -0.212607 9.598963 -0.513280
v -0.270598 9.474600 -0.653281
v -0.318189 9.323063 -0.768178
v -0.353553 9.150176 -0.853553
v -0.375330 8.962584 -0.906127
v -0.382683 8.767492 -0.923880
v -0.382684 -0.042195 0.923879
v -0.000000 -0.042195 1.000000
v 0.382683 -0.042195 0.923880
v 0.707107 -0.042195 0.707107
v 0.923879 -0.042195 0.382684
v 1.000000 -0.042195 0.000000
v 0.923880 -0.042195 -0.382683
v 0.000000 9.598963 -0.555570
v 0.000000 9.323063 -0.831469
v 0.000001 8.767492 -1.000000
v 0.707107 -0.042195 -0.707107
v 0.382683 -0.042195 -0.923880
v 0.702578 5.901595 -0.504126
v 0.702578 6.097790 -0.464498
v 0.702578 6.258036 -0.356441
v 0.702578 6.366094 -0.196194
v 0.702578 6.405722 0.000001
v 0.702578 6.366094 0.196196
v 0.702578 6.258036 0.356442
v 0.702578 6.097790 0.464499
v 0.702578 5.901595 0.504127
v 0.702578 5.705400 0.464499
v 0.702578 5.545154 0.356442
v 0.702578 5.437097 0.196196
v 0.702578 5.397469 0.000001
v 0.702578 5.437097 -0.196194
v 0.702578 5.545154 -0.356441
v 0.702578 5.705400 -0.464498
v 1.152889 5.902964 -0.504126
v 1.150124 6.099139 -0.464498
v 1.147865 6.259369 -0.356441
v 1.146342 6.367416 -0.196194
v 1.145783 6.407040 0.000001
v 1.146342 6.367416 0.196196
v 1.147865 6.259369 0.356442
v 1.150124 6.099139 0.464499
v 1.152889 5.902964 0.504127
v 1.155655 5.706788 0.464499
v 1.157914 5.546558 0.356442
v 1.159437 5.438511 0.196196
v 1.159996 5.398887 0.000001
v 1.159437 5.438511 -0.196194
v 1.157914 5.546558 -0.356441
v 1.155655 5.706788 -0.464498
v 1.518410 5.912160 -0.504126
v 1.508178 6.108088 -0.464498
v 1.499820 6.268116 -0.356441
v 1.494184 6.376027 -0.196194
v 1.492117 6.415601 0.000001
v 1.494184 6.376027 0.196196
v 1.499820 6.268116 0.356442
v 1.508178 6.108088 0.464499
v 1.518410 5.912160 0.504127
v 1.528643 5.716232 0.464499
v 1.537000 5.556204 0.356442
v 1.542636 5.448294 0.196196
v 1.544703 5.408720 0.000001
v 1.542636 5.448294 -0.196194
v 1.537000 5.556204 -0.356441
v 1.528643 5.716232 -0.464498
v 1.818243 5.935957 -0.504126
v 1.793424 6.130576 -0.464498
v 1.773152 6.289535 -0.356441
v 1.759483 6.396724 -0.196194
v 1.754470 6.436034 0.000001
v 1.759483 6.396724 0.196196
v 1.773152 6.289535 0.356442
v 1.793424 6.130576 0.464499
v 1.818243 5.935957 0.504127
v 1.843063 5.741339 0.464499
v 1.863334 5.582380 0.356442
v 1.877004 5.475191 0.196196
v 1.882017 5.435881 0.000001
v 1.877004 5.475191 -0.196194
v 1.863334 5.582380 -0.356441
v 1.843063 5.741339 -0.464498
v 2.067962 5.979977 -0.504126
v 2.020525 6.170351 -0.464498
v 1.981780 6.325843 -0.356441
v 1.955653 6.430694 -0.196194
v 1.946072 6.469146 0.000001
v 1.955653 6.430694 0.196196
v 1.981780 6.325843 0.356442
v 2.020525 6.170351 0.464499
v 2.067962 5.979977 0.504128
v 2.115399 5.789603 0.464499
v 2.154145 5.634111 0.356442
v 2.180271 5.529260 0.196196
v 2.189853 5.490808 0.000001
v 2.180271 5.529260 -0.196194
v 2.154145 5.634111 -0.356441
v 2.115399 5.789603 -0.464498
v 2.279606 6.048690 -0.504126
v 2.203001 6.229311 -0.464498
v 2.140432 6.376838 -0.356441
v 2.098241 6.476318 -0.196194
v 2.082768 6.512800 0.000001
v 2.098241 6.476318 0.196196
v 2.140432 6.376838 0.356442
v 2.203001 6.229311 0.464499
v 2.279606 6.048690 0.504127
v 2.356211 5.868068 0.464499
v 2.418780 5.720542 0.356442
v 2.460971 5.621062 0.196196
v 2.476444 5.584579 0.000001
v 2.460971 5.621062 -0.196194
v 2.418780 5.720542 -0.356441
v 2.356211 5.868068 -0.464498
v 2.461683 6.145415 -0.504126
v 2.353621 6.309168 -0.464498
v 2.265359 6.442917 -0.356440
v 2.205842 6.533107 -0.196194
v 2.184016 6.566182 0.000001
v 2.205842 6.533107 0.196196
v 2.265359 6.442917 0.356442
v 2.353621 6.309168 0.464499
v 2.461683 6.145415 0.504127
v 2.569745 5.981662 0.464499
v 2.658006 5.847913 0.356442
v 2.717523 5.757724 0.196196
v 2.739350 5.724648 0.000001
v 2.717523 5.757724 -0.196194
v 2.658006 5.847913 -0.356440
v 2.569745 5.981662 -0.464498
v 2.619168 6.272324 -0.504126
v 2.482335 6.412927 -0.464498
v 2.370574 6.527767 -0.356441
v 2.295211 6.605206 -0.196194
v 2.267573 6.633605 0.000001
v 2.295211 6.605206 0.196196
v 2.370574 6.527767 0.356442
v 2.482335 6.412927 0.464499
v 2.619168 6.272324 0.504127
v 2.756001 6.131721 0.464499
v 2.867763 6.016881 0.356442
v 2.943126 5.939442 0.196196
v 2.970764 5.911043 0.000001
v 2.943126 5.939442 -0.196194
v 2.867763 6.016881 -0.356441
v 2.756001 6.131721 -0.464498
v 2.753668 6.430247 -0.503916
v 2.594326 6.544573 -0.464304
v 2.464179 6.637951 -0.356292
v 2.376419 6.700918 -0.196112
v 2.344234 6.724010 0.000001
v 2.376419 6.700918 0.196114
v 2.464179 6.637951 0.356294
v 2.594326 6.544573 0.464306
v 2.753668 6.430247 0.503918
v 2.913011 6.315922 0.464306
v 3.043157 6.222544 0.356294
v 3.130917 6.159577 0.196114
v 3.163102 6.136485 0.000001
v 3.130917 6.159577 -0.196112
v 3.043157 6.222544 -0.356292
v 2.913011 6.315922 -0.464304
v 2.865214 6.616647 -0.500767
v 2.691671 6.705326 -0.461403
v 2.549927 6.777757 -0.354065
v 2.454345 6.826598 -0.194887
v 2.419293 6.844510 0.000001
v 2.454345 6.826598 0.194888
v 2.549927 6.777757 0.354067
v 2.691671 6.705326 0.461404
v 2.865214 6.616647 0.500768
v 3.038757 6.527967 0.461404
v 3.180502 6.455537 0.354067
v 3.276083 6.406695 0.194888
v 3.311136 6.388783 0.000001
v 3.276083 6.406695 -0.194887
v 3.180502 6.455537 -0.354065
v 3.038757 6.527967 -0.461403
v 2.954060 6.823578 -0.487119
v 2.776242 6.889306 -0.448827
v 2.631007 6.942991 -0.344416
v 2.533071 6.979191 -0.189575
v 2.497155 6.992467 0.000001
v 2.533071 6.979191 0.189577
v 2.631007 6.942991 0.344417
v 2.776242 6.889306 0.448829
v 2.954060 6.823578 0.487120
v 3.131877 6.757850 0.448829
v 3.277112 6.704165 0.344417
v 3.375048 6.667964 0.189577
v 3.410964 6.654688 0.000001
v 3.375048 6.667964 -0.189575
v 3.277112 6.704165 -0.344416
v 3.131877 6.757850 -0.448827
v 3.020839 7.037504 -0.450375
v 2.851578 7.083026 -0.414972
v 2.713330 7.120207 -0.318436
v 2.620106 7.145278 -0.175275
v 2.585918 7.154473 0.000001
v 2.620106 7.145278 0.175277
v 2.713330 7.120207 0.318437
v 2.851578 7.083026 0.414973
v 3.020839 7.037504 0.450376
v 3.190101 6.991982 0.414973
v 3.328349 6.954802 0.318437
v 3.421572 6.929730 0.175277
v 3.455760 6.920535 0.000001
v 3.421572 6.929730 -0.175275
v 3.328349 6.954802 -0.318436
v 3.190101 6.991982 -0.414972
v 3.066574 7.239297 -0.372897
v 2.924059 7.266688 -0.343585
v 2.807656 7.289061 -0.263656
v 2.729164 7.304147 -0.145123
v 2.700378 7.309680 0.000001
v 2.729164 7.304147 0.145125
v 2.807656 7.289061 0.263657
v 2.924059 7.266688 0.343586
v 3.066574 7.239297 0.372899
v 3.209089 7.211905 0.343586
v 3.325491 7.189533 0.263657
v 3.403984 7.174447 0.145125
v 3.432770 7.168914 0.000001
v 3.403984 7.174447 -0.145123
v 3.325491 7.189533 -0.263656
v 3.209089 7.211905 -0.343585
v 3.092666 7.404236 -0.232010
v 3.003026 7.415087 -0.213773
v 2.929812 7.423950 -0.164042
v 2.880441 7.429926 -0.090293
v 2.862336 7.432118 0.000001
v 2.880441 7.429926 0.090295
v 2.929812 7.423950 0.164044
v 3.003026 7.415087 0.213774
v 3.092666 7.404236 0.232012
v 3.182305 7.393385 0.213774
v 3.255520 7.384523 0.164044
v 3.304890 7.378547 0.090295
v 3.322996 7.376355 0.000001
v 3.304890 7.378547 -0.090293
v 3.255520 7.384523 -0.164042
v 3.182305 7.393385 -0.213773
v 3.100902 7.502010 0.000001
v 3.100902 7.502010 0.000001
v 3.100902 7.502010 0.000001
v 3.100902 7.502010 0.000001
v 3.100902 7.502010 0.000001
v 3.100902 7.502010 0.000001
v 3.100902 7.502010 0.000001
v 3.100902 7.502010 0.000001
v 3.100902 7.502010 0.000001
v 3.100902 7.502010 0.000001
v 3.100902 7.502010 0.000001
v 3.100902 7.502010 0.000001
v 3.100902 7.502010 0.000001
v 3.100902 7.502010 0.000001
v 3.100902 7.502010 0.000001
v 3.100902 7.502010 0.000001
v -0.744354 6.722633 0.140655
v -0.729705 6.894506 0.109182
v -0.689759 7.034885 0.023362
v -0.630519 7.129547 -0.103907
v -0.557991 7.164262 -0.259726
v -0.485463 7.129547 -0.415545
v -0.426224 7.034885 -0.542814
v -0.386278 6.894506 -0.628633
v -0.371628 6.722633 -0.660106
v -0.386278 6.550761 -0.628633
v -0.426224 6.410381 -0.542814
v -0.485463 6.315720 -0.415545
v -0.557991 6.281005 -0.259726
v -0.630520 6.315720 -0.103907
v -0.689759 6.410381 0.023362
v -0.729705 6.550761 0.109182
v -1.101995 6.723832 -0.025815
v -1.085148 6.895687 -0.056265
v -1.043408 7.036053 -0.141250
v -0.982959 7.130705 -0.267955
v -0.909987 7.165417 -0.423568
v -0.837903 7.130705 -0.579594
v -0.779873 7.036053 -0.707425
v -0.741721 6.895687 -0.794080
v -0.729268 6.723832 -0.826575
v -0.746115 6.551977 -0.796125
v -0.787855 6.411611 -0.711140
v -0.848304 6.316959 -0.584435
v -0.921276 6.282248 -0.428822
v -0.993360 6.316959 -0.272796
v -1.051390 6.411611 -0.144965
v -1.089542 6.551977 -0.058310
v -1.392293 6.731889 -0.160938
v -1.369517 6.903527 -0.188628
v -1.322933 7.043716 -0.271359
v -1.259218 7.138248 -0.396544
v -1.185048 7.172916 -0.551599
v -1.114161 7.138248 -0.708182
v -1.059398 7.043716 -0.837534
v -1.026090 6.903527 -0.926444
v -1.019567 6.731889 -0.961699
v -1.042343 6.560251 -0.934009
v -1.088927 6.420062 -0.851279
v -1.152642 6.325529 -0.726094
v -1.226812 6.290861 -0.571038
v -1.297699 6.325529 -0.414455
v -1.352462 6.420062 -0.285103
v -1.385770 6.560251 -0.196194
v -1.630422 6.752736 -0.271779
v -1.596061 6.923227 -0.294077
v -1.540015 7.062479 -0.372403
v -1.469920 7.156380 -0.494618
v -1.393410 7.190816 -0.648584
v -1.324863 7.156380 -0.806256
v -1.276481 7.062479 -0.938578
v -1.252634 6.923227 -1.031892
v -1.257697 6.752736 -1.072540
v -1.292058 6.582244 -1.050242
v -1.348104 6.442992 -0.971916
v -1.418199 6.349092 -0.849701
v -1.494709 6.314655 -0.695735
v -1.563256 6.349092 -0.538063
v -1.611638 6.442992 -0.405741
v -1.635485 6.582244 -0.312427
v -1.828751 6.791298 -0.364094
v -1.776427 6.958070 -0.378030
v -1.705709 7.094285 -0.449527
v -1.625720 7.186138 -0.567137
v -1.545582 7.219823 -0.719415
v -1.480663 7.186138 -0.878776
v -1.442174 7.094285 -1.015703
v -1.432999 6.958071 -1.115846
v -1.456025 6.791298 -1.164855
v -1.508349 6.624526 -1.150918
v -1.579067 6.488310 -1.079422
v -1.659056 6.396458 -0.961811
v -1.739194 6.362772 -0.809534
v -1.804112 6.396458 -0.650173
v -1.842602 6.488310 -0.513246
v -1.851776 6.624525 -0.413103
v -1.996840 6.851492 -0.442333
v -1.921350 7.009721 -0.445487
v -1.831711 7.138958 -0.508177
v -1.738964 7.226106 -0.619848
v -1.654147 7.258065 -0.769948
v -1.593907 7.226106 -0.931487
v -1.568177 7.138958 -1.074353
v -1.577923 7.009721 -1.183302
v -1.624113 6.851492 -1.243094
v -1.699603 6.693263 -1.239940
v -1.789242 6.564025 -1.177251
v -1.881989 6.476878 -1.065579
v -1.966806 6.444919 -0.915480
v -2.027046 6.476878 -0.753941
v -2.052777 6.564025 -0.611075
v -2.043030 6.693263 -0.502125
v -2.141446 6.936226 -0.509643
v -2.040973 7.079678 -0.501168
v -1.930929 7.196846 -0.554359
v -1.824421 7.275854 -0.659626
v -1.734558 7.304829 -0.807376
v -1.679365 7.275854 -0.971264
v -1.667394 7.196846 -1.120535
v -1.697546 7.079678 -1.238983
v -1.768720 6.936226 -1.310403
v -1.869192 6.792774 -1.318878
v -1.979237 6.675606 -1.265687
v -2.085744 6.596598 -1.160420
v -2.175607 6.567623 -1.012669
v -2.230801 6.596598 -0.848782
v -2.242772 6.675606 -0.699511
v -2.212620 6.792774 -0.581063
v -2.266522 7.047401 -0.567861
v -2.143199 7.170573 -0.548750
v -2.014491 7.271176 -0.593255
v -1.895399 7.339015 -0.692663
v -1.800920 7.363894 -0.838265
v -1.750342 7.339015 -1.004302
v -1.750956 7.271176 -1.159430
v -1.799772 7.170573 -1.286565
v -1.893796 7.047401 -1.368622
v -2.017119 6.924230 -1.387733
v -2.145827 6.823627 -1.343228
v -2.264919 6.755788 -1.243820
v -2.359398 6.730909 -1.098218
v -2.409976 6.755787 -0.932181
v -2.409362 6.823627 -0.777053
v -2.360546 6.924230 -0.649918
v -2.373265 7.185746 -0.617749
v -2.232071 7.285899 -0.590304
v -2.088778 7.367700 -0.627976
v -1.959864 7.422860 -0.722749
v -1.861805 7.443089 -0.866605
v -1.814867 7.422860 -1.034257
v -1.825353 7.367700 -1.193916
v -1.888787 7.285898 -1.327812
v -2.000694 7.185746 -1.418176
v -2.141888 7.085594 -1.445622
v -2.285181 7.003793 -1.407949
v -2.414095 6.948632 -1.313177
v -2.512155 6.928403 -1.169320
v -2.559092 6.948632 -1.001668
v -2.548606 7.003793 -0.842010
v -2.485173 7.085594 -0.708114
v -2.460691 7.349038 -0.661486
v -2.308311 7.426723 -0.628595
v -2.156056 7.490175 -0.661443
v -2.021300 7.532961 -0.752530
v -1.921416 7.548652 -0.894352
v -1.877210 7.532960 -1.062091
v -1.894277 7.490174 -1.223846
v -1.967172 7.426723 -1.361493
v -2.090449 7.349038 -1.456911
v -2.242830 7.271353 -1.489802
v -2.395084 7.207901 -1.456954
v -2.529840 7.165115 -1.365868
v -2.629724 7.149425 -1.224045
v -2.673930 7.165116 -1.056306
v -2.656863 7.207902 -0.894551
v -2.583968 7.271353 -0.756904
v -2.526207 7.530314 -0.705169
v -2.370829 7.587894 -0.669846
v -2.216883 7.634923 -0.699080
v -2.081861 7.666636 -0.785851
v -1.983255 7.678267 -0.923136
v -1.941698 7.666636 -1.086976
v -1.962239 7.634923 -1.246155
v -2.038987 7.587894 -1.382770
v -2.166055 7.530314 -1.478916
v -2.321434 7.472735 -1.514239
v -2.475380 7.425705 -1.485005
v -2.610401 7.393992 -1.398234
v -2.709008 7.382362 -1.260949
v -2.750564 7.393992 -1.097109
v -2.730024 7.425705 -0.937930
v -2.653275 7.472735 -0.801315
v -2.565661 7.717720 -0.759038
v -2.418145 7.757598 -0.724584
v -2.272661 7.790169 -0.750146
v -2.145699 7.812133 -0.829383
v -2.053752 7.820188 -0.955950
v -2.016109 7.812133 -1.107794
v -2.037224 7.790169 -1.255955
v -2.111335 7.757598 -1.383731
v -2.232676 7.717720 -1.474420
v -2.380192 7.677841 -1.508875
v -2.525676 7.645270 -1.483312
v -2.652638 7.623306 -1.404076
v -2.744585 7.615252 -1.277509
v -2.782228 7.623306 -1.125665
v -2.761113 7.645270 -0.977504
v -2.687002 7.677841 -0.849727
v -2.573342 7.894496 -0.837478
v -2.449320 7.918491 -0.808074
v -2.327324 7.938090 -0.828523
v -2.221167 7.951306 -0.893646
v -2.144656 7.956152 -0.998263
v -2.113869 7.951306 -1.124162
v -2.132390 7.938090 -1.247318
v -2.195289 7.918491 -1.353830
v -2.297640 7.894496 -1.429794
v -2.421663 7.870501 -1.459198
v -2.543658 7.850902 -1.438749
v -2.649816 7.837686 -1.373627
v -2.726326 7.832839 -1.269010
v -2.757113 7.837686 -1.143110
v -2.738592 7.850902 -1.019954
v -2.675693 7.870501 -0.913443
v -2.541982 8.038986 -0.959017
v -2.464048 8.048491 -0.940364
v -2.387516 8.056255 -0.952795
v -2.321043 8.061491 -0.993116
v -2.273284 8.063411 -1.058134
v -2.254284 8.061491 -1.136539
v -2.266231 8.056255 -1.213362
v -2.305995 8.048491 -1.279924
v -2.370444 8.038986 -1.327546
v -2.448379 8.029481 -1.346199
v -2.524910 8.021717 -1.333769
v -2.591384 8.016481 -1.293447
v -2.639143 8.014562 -1.228429
v -2.658142 8.016481 -1.150024
v -2.646195 8.021717 -1.073201
v -2.606432 8.029481 -1.006639
v -2.462754 8.124640 -1.146326
v -2.462754 8.124640 -1.146326
v -2.462754 8.124640 -1.146326
v -2.462754 8.124640 -1.146326
v -2.462754 8.124640 -1.146326
v -2.462754 8.124640 -1.146326
v -2.462754 8.124640 -1.146326
v -2.462754 8.124640 -1.146326
v -2.462754 8.124640 -1.146326
v -2.462754 8.124640 -1.146326
v -2.462754 8.124640 -1.146326
v -2.462754 8.124640 -1.146326
v -2.462754 8.124640 -1.146326
v -2.462754 8.124640 -1.146326
v -2.462754 8.124640 -1.146326
v -2.462754 8.124640 -1.146326
vn -0.0000 0.9784 -0.2068
vn -0.0000 0.9195 -0.3930
vn -0.0000 0.7011 -0.7131
vn -0.0000 0.3784 -0.9256
vn -0.0000 0.1928 -0.9812
vn 0.0791 0.9784 -0.1911
vn 0.1504 0.9195 -0.3631
vn 0.2158 0.8258 -0.5210
vn 0.2729 0.7011 -0.6588
vn 0.3196 0.5500 -0.7716
vn 0.3542 0.3784 -0.8552
vn 0.3755 0.1928 -0.9065
vn 0.3822 0.0488 -0.9228
vn 0.1462 0.9784 -0.1462
vn 0.2779 0.9195 -0.2779
vn 0.3987 0.8258 -0.3987
vn 0.5042 0.7011 -0.5042
vn 0.5905 0.5500 -0.5905
vn 0.6545 0.3784 -0.6545
vn 0.6938 0.1928 -0.6938
vn 0.7063 0.0488 -0.7063
vn -0.3827 -0.0000 0.9239
vn 0.1911 0.9784 -0.0791
vn 0.3631 0.9195 -0.1504
vn 0.5210 0.8258 -0.2158
vn 0.6588 0.7011 -0.2729
vn 0.7716 0.5500 -0.3196
vn 0.8552 0.3784 -0.3542
vn 0.9065 0.1928 -0.3755
vn 0.9228 0.0488 -0.3822
vn -0.0000 -0.0000 1.0000
vn 0.2068 0.9784 -0.0000
vn 0.3930 0.9195 -0.0000
vn 0.5639 0.8258 -0.0000
vn 0.7131 0.7011 -0.0000
vn 0.8352 0.5500 -0.0000
vn 0.9256 0.3784 -0.0000
vn 0.9812 0.1928 -0.0000
vn 0.9988 0.0488 -0.0000
vn 0.7071 -0.0000 -0.7071
vn 0.3827 -0.0000 -0.9239
vn 0.1911 0.9784 0.0791
vn 0.3631 0.9195 0.1504
vn 0.5210 0.8258 0.2158
vn 0.6588 0.7011 0.2729
vn 0.7716 0.5500 0.3196
vn 0.8552 0.3784 0.3542
vn 0.9065 0.1928 0.3755
vn 0.9228 0.0488 0.3822
vn 0.3827 -0.0000 0.9239
vn 0.1462 0.9784 0.1462
vn 0.2779 0.9195 0.2779
vn 0.3987 0.8258 0.3987
vn 0.5042 0.7011 0.5042
vn 0.5905 0.5500 0.5905
vn 0.6545 0.3784 0.6545
vn 0.6938 0.1928 0.6938
vn 0.7063 0.0488 0.7063
vn 0.7071 -0.0000 0.7071
vn 0.0791 0.9784 0.1911
vn 0.1504 0.9195 0.3631
vn 0.2158 0.8258 0.5210
vn 0.2729 0.7011 0.6588
vn 0.3196 0.5500 0.7716
vn 0.3542 0.3784 0.8552
vn 0.3755 0.1928 0.9065
vn 0.3822 0.0488 0.9228
vn -0.3827 -0.0000 -0.9239
vn -0.7071 -0.0000 -0.7071
vn -0.0000 0.9784 0.2068
vn -0.0000 0.9195 0.3930
vn -0.0000 0.8258 0.5639
vn -0.0000 0.7011 0.7131
vn -0.0000 0.5500 0.8352
vn -0.0000 0.3784 0.9256
vn -0.0000 0.1928 0.9812
vn -0.0000 0.0488 0.9988
vn 0.9239 -0.0000 0.3827
vn -0.0791 0.9784 0.1911
vn -0.1504 0.9195 0.3631
vn -0.2158 0.8258 0.5210
vn -0.2729 0.7011 0.6588
vn -0.3196 0.5500 0.7716
vn -0.3542 0.3784 0.8552
vn -0.3755 0.1928 0.9065
vn -0.3822 0.0488 0.9228
vn -0.9239 -0.0000 -0.3827
vn -1.0000 -0.0000 -0.0000
vn -0.1462 0.9784 0.1462
vn -0.2779 0.9195 0.2779
vn -0.3987 0.8258 0.3987
vn -0.5042 0.7011 0.5042
vn -0.5905 0.5500 0.5905
vn -0.6545 0.3784 0.6545
vn -0.6938 0.1928 0.6938
vn -0.7063 0.0488 0.7063
vn -0.7071 -0.0000 0.7071
vn -0.1911 0.9784 0.0791
vn -0.3631 0.9195 0.1504
vn -0.5210 0.8258 0.2158
vn -0.6588 0.7011 0.2729
vn -0.7716 0.5500 0.3196
vn -0.8552 0.3784 0.3542
vn -0.9065 0.1928 0.3755
vn -0.9228 0.0488 0.3822
vn 1.0000 -0.0000 -0.0000
vn -0.9239 -0.0000 0.3827
vn -0.0000 1.0000 -0.0000
vn -0.2068 0.9784 -0.0000
vn -0.3930 0.9195 -0.0000
vn -0.5639 0.8258 -0.0000
vn -0.7131 0.7011 -0.0000
vn -0.8352 0.5500 -0.0000
vn -0.9256 0.3784 -0.0000
vn -0.9812 0.1928 -0.0000
vn -0.9988 0.0488 -0.0000
vn 0.9239 -0.0000 -0.3827
vn -0.1911 0.9784 -0.0791
vn -0.3631 0.9195 -0.1504
vn -0.5210 0.8258 -0.2158
vn -0.6588 0.7011 -0.2729
vn -0.7716 0.5500 -0.3196
vn -0.8552 0.3784 -0.3542
vn -0.9065 0.1928 -0.3755
vn -0.9228 0.0488 -0.3822
vn -0.0000 -0.0000 -1.0000
vn -0.1462 0.9784 -0.1462
vn -0.2779 0.9195 -0.2779
vn -0.3987 0.8258 -0.3987
vn -0.5042 0.7011 -0.5042
vn -0.5905 0.5500 -0.5905
vn -0.6545 0.3784 -0.6545
vn -0.6938 0.1928 -0.6938
vn -0.7063 0.0488 -0.7063
vn -0.0791 0.9784 -0.1911
vn -0.1504 0.9195 -0.3631
vn -0.2158 0.8258 -0.5210
vn -0.2729 0.7011 -0.6588
vn -0.3196 0.5500 -0.7716
vn -0.3542 0.3784 -0.8552
vn -0.3755 0.1928 -0.9065
vn -0.3822 0.0488 -0.9228
vn -0.0000 0.8258 -0.5639
vn -0.0000 0.5500 -0.8352
vn -0.0000 0.0488 -0.9988
vn -0.0000 -0.0004 -1.0000
vn -0.0012 0.3857 -0.9226
vn -0.0021 0.7069 -0.7073
vn -0.0028 0.9224 -0.3861
vn -0.0030 1.0000 -0.0000
vn -0.0028 0.9224 0.3861
vn -0.0021 0.7069 0.7073
vn -0.0012 0.3857 0.9226
vn -0.0000 -0.0004 1.0000
vn 0.0012 -0.3863 0.9224
vn 0.0022 -0.7073 0.7069
vn 0.0029 -0.9226 0.3859
vn 0.0031 -1.0000 -0.0000
vn 0.0029 -0.9226 -0.3859
vn 0.0022 -0.7073 -0.7069
vn 0.0012 -0.3863 -0.9224
vn -0.0000 -0.0014 -1.0000
vn -0.0054 0.3848 -0.9230
vn -0.0098 0.7064 -0.7077
vn -0.0128 0.9222 -0.3865
vn -0.0139 0.9999 -0.0000
vn -0.0128 0.9222 0.3865
vn -0.0098 0.7064 0.7077
vn -0.0054 0.3848 0.9230
vn -0.0000 -0.0014 1.0000
vn 0.0055 -0.3872 0.9220
vn 0.0101 -0.7077 0.7064
vn 0.0132 -0.9226 0.3855
vn 0.0143 -0.9999 -0.0000
vn 0.0132 -0.9226 -0.3855
vn 0.0101 -0.7077 -0.7064
vn 0.0055 -0.3872 -0.9220
vn 0.0002 -0.0034 -1.0000
vn -0.0198 0.3827 -0.9237
vn -0.0363 0.7046 -0.7087
vn -0.0473 0.9208 -0.3871
vn -0.0512 0.9987 -0.0000
vn -0.0473 0.9208 0.3871
vn -0.0363 0.7046 0.7087
vn -0.0198 0.3827 0.9237
vn 0.0002 -0.0034 1.0000
vn 0.0204 -0.3884 0.9213
vn 0.0374 -0.7078 0.7054
vn 0.0488 -0.9217 0.3848
vn 0.0529 -0.9986 -0.0000
vn 0.0488 -0.9217 -0.3848
vn 0.0374 -0.7078 -0.7054
vn 0.0204 -0.3884 -0.9213
vn 0.0008 -0.0059 -1.0000
vn -0.0478 0.3780 -0.9246
vn -0.0880 0.6988 -0.7099
vn -0.1147 0.9145 -0.3880
vn -0.1242 0.9923 -0.0000
vn -0.1147 0.9145 0.3880
vn -0.0880 0.6988 0.7099
vn -0.0478 0.3780 0.9246
vn 0.0008 -0.0059 1.0000
vn 0.0498 -0.3879 0.9204
vn 0.0907 -0.7042 0.7042
vn 0.1182 -0.9158 0.3839
vn 0.1280 -0.9918 -0.0000
vn 0.1182 -0.9158 -0.3839
vn 0.0907 -0.7042 -0.7042
vn 0.0498 -0.3879 -0.9204
vn 0.0022 -0.0085 -1.0000
vn -0.0910 0.3675 -0.9256
vn -0.1682 0.6824 -0.7113
vn -0.2196 0.8947 -0.3891
vn -0.2380 0.9713 -0.0000
vn -0.2196 0.8947 0.3891
vn -0.1682 0.6824 0.7113
vn -0.0910 0.3675 0.9256
vn 0.0022 -0.0085 1.0000
vn 0.0956 -0.3816 0.9194
vn 0.1731 -0.6899 0.7029
vn 0.2251 -0.8959 0.3829
vn 0.2438 -0.9698 -0.0000
vn 0.2251 -0.8959 -0.3829
vn 0.1731 -0.6899 -0.7029
vn 0.0956 -0.3816 -0.9194
vn 0.0044 -0.0101 -0.9999
vn -0.1466 0.3469 -0.9264
vn -0.2724 0.6466 -0.7125
vn -0.3567 0.8489 -0.3900
vn -0.3870 0.9221 -0.0000
vn -0.3567 0.8489 0.3900
vn -0.2724 0.6466 0.7125
vn -0.1466 0.3469 0.9264
vn 0.0044 -0.0101 0.9999
vn 0.1546 -0.3636 0.9186
vn 0.2790 -0.6553 0.7019
vn 0.3622 -0.8501 0.3823
vn 0.3920 -0.9200 -0.0000
vn 0.3622 -0.8501 -0.3823
vn 0.2790 -0.6553 -0.7019
vn 0.1546 -0.3636 -0.9186
vn 0.0066 -0.0100 -0.9999
vn -0.2068 0.3137 -0.9267
vn -0.3857 0.5854 -0.7131
vn -0.5063 0.7689 -0.3905
vn -0.5498 0.8353 -0.0000
vn -0.5063 0.7689 0.3905
vn -0.3857 0.5854 0.7131
vn -0.2068 0.3137 0.9267
vn 0.0066 -0.0100 0.9999
vn 0.2181 -0.3304 0.9183
vn 0.3928 -0.5947 0.7015
vn 0.5094 -0.7711 0.3819
vn 0.5512 -0.8344 -0.0000
vn 0.5094 -0.7711 -0.3819
vn 0.3928 -0.5947 -0.7015
vn 0.2181 -0.3304 -0.9183
vn 0.0085 -0.0081 -0.9999
vn -0.2619 0.2696 -0.9266
vn -0.4892 0.5024 -0.7129
vn -0.6428 0.6592 -0.3903
vn -0.6984 0.7158 -0.0000
vn -0.6428 0.6592 0.3903
vn -0.4892 0.5024 0.7129
vn -0.2619 0.2696 0.9266
vn 0.0085 -0.0081 0.9999
vn 0.2761 -0.2834 0.9184
vn 0.4969 -0.5108 0.7016
vn 0.6443 -0.6626 0.3820
vn 0.6971 -0.7170 -0.0000
vn 0.6443 -0.6626 -0.3820
vn 0.4969 -0.5108 -0.7016
vn 0.2761 -0.2834 -0.9184
vn 0.0126 0.0004 -0.9999
vn -0.3019 0.2270 -0.9259
vn -0.5656 0.4163 -0.7119
vn -0.7435 0.5435 -0.3895
vn -0.8079 0.5894 -0.0000
vn -0.7435 0.5435 0.3895
vn -0.5656 0.4163 0.7119
vn -0.3019 0.2270 0.9259
vn 0.0126 0.0004 0.9999
vn 0.3241 -0.2247 0.9189
vn 0.5814 -0.4108 0.7023
vn 0.7532 -0.5351 0.3825
vn 0.8148 -0.5797 -0.0000
vn 0.7532 -0.5351 -0.3825
vn 0.5814 -0.4108 -0.7023
vn 0.3241 -0.2247 -0.9189
vn 0.0234 0.0299 -0.9993
vn -0.3193 0.2096 -0.9242
vn -0.6057 0.3598 -0.7097
vn -0.7982 0.4608 -0.3880
vn -0.8676 0.4972 -0.0000
vn -0.7982 0.4608 0.3880
vn -0.6057 0.3598 0.7097
vn -0.3193 0.2096 0.9242
vn 0.0234 0.0299 0.9993
vn 0.3642 -0.1486 0.9194
vn 0.6463 -0.2963 0.7032
vn 0.8350 -0.3949 0.3833
vn 0.9027 -0.4303 -0.0000
vn 0.8350 -0.3949 -0.3833
vn 0.6463 -0.2963 -0.7032
vn 0.3642 -0.1486 -0.9194
vn 0.0428 0.1019 -0.9939
vn -0.3142 0.2438 -0.9175
vn -0.6112 0.3627 -0.7035
vn -0.8101 0.4429 -0.3841
vn -0.8817 0.4718 -0.0000
vn -0.8101 0.4429 0.3841
vn -0.6112 0.3627 0.7035
vn -0.3142 0.2438 0.9175
vn 0.0428 0.1019 0.9939
vn 0.3995 -0.0388 0.9159
vn 0.6956 -0.1550 0.7015
vn 0.8942 -0.2326 0.3826
vn 0.9655 -0.2604 -0.0000
vn 0.8942 -0.2326 -0.3826
vn 0.6956 -0.1550 -0.7015
vn 0.3995 -0.0388 -0.9159
vn 0.0693 0.2447 -0.9671
vn -0.2863 0.3560 -0.8896
vn -0.5798 0.4491 -0.6798
vn -0.7752 0.5119 -0.3703
vn -0.8452 0.5344 -0.0000
vn -0.7752 0.5119 0.3703
vn -0.5798 0.4491 0.6798
vn -0.2863 0.3560 0.8896
vn 0.0693 0.2447 0.9671
vn 0.4271 0.1344 0.8942
vn 0.7258 0.0431 0.6865
vn 0.9268 -0.0178 0.3751
vn 0.9992 -0.0397 -0.0000
vn 0.9268 -0.0178 -0.3751
vn 0.7258 0.0431 -0.6865
vn 0.4271 0.1344 -0.8942
vn 0.0970 0.4862 -0.8684
vn -0.2250 0.5670 -0.7924
vn -0.4866 0.6339 -0.6011
vn -0.6586 0.6783 -0.3258
vn -0.7199 0.6941 -0.0000
vn -0.6586 0.6783 0.3258
vn -0.4866 0.6339 0.6011
vn -0.2250 0.5670 0.7924
vn 0.0970 0.4862 0.8684
vn 0.4259 0.4055 0.8088
vn 0.7040 0.3382 0.6245
vn 0.8927 0.2929 0.3424
vn 0.9610 0.2764 -0.0000
vn 0.8927 0.2929 -0.3424
vn 0.7040 0.3382 -0.6245
vn 0.4259 0.4055 -0.8088
vn 0.1129 0.7830 -0.6117
vn -0.1164 0.8227 -0.5564
vn -0.3019 0.8553 -0.4210
vn -0.4238 0.8766 -0.2279
vn -0.4673 0.8841 -0.0000
vn -0.4238 0.8766 0.2279
vn -0.3019 0.8553 0.4210
vn -0.1164 0.8227 0.5564
vn 0.1129 0.7830 0.6117
vn 0.3483 0.7432 0.5712
vn 0.5484 0.7099 0.4419
vn 0.6851 0.6868 0.2428
vn 0.7347 0.6784 -0.0000
vn 0.6851 0.6868 -0.2428
vn 0.5484 0.7099 -0.4419
vn 0.3483 0.7432 -0.5712
vn 0.1105 0.9145 -0.3893
vn -0.0394 0.9318 -0.3608
vn -0.1654 0.9463 -0.2778
vn -0.2504 0.9561 -0.1520
vn -0.2812 0.9597 -0.0000
vn -0.2504 0.9561 0.1520
vn -0.1654 0.9463 0.2778
vn -0.0394 0.9318 0.3608
vn 0.1105 0.9145 0.3893
vn 0.2590 0.8973 0.3573
vn 0.3816 0.8831 0.2729
vn 0.4631 0.8738 0.1485
vn 0.4924 0.8704 -0.0000
vn 0.4631 0.8738 -0.1485
vn 0.3816 0.8831 -0.2729
vn 0.2590 0.8973 -0.3573
vn -0.4220 -0.0004 0.9066
vn -0.3883 0.3857 0.8369
vn -0.2965 0.7069 0.6421
vn -0.1604 0.9224 0.3512
vn 0.0027 1.0000 0.0013
vn 0.1654 0.9224 -0.3489
vn 0.3004 0.7069 -0.6403
vn 0.3904 0.3857 -0.8360
vn 0.4220 -0.0004 -0.9066
vn 0.3882 -0.3863 -0.8367
vn 0.2963 -0.7073 -0.6418
vn 0.1602 -0.9226 -0.3510
vn -0.0028 -1.0000 -0.0013
vn -0.1654 -0.9226 0.3486
vn -0.3003 -0.7073 0.6400
vn -0.3903 -0.3863 0.8357
vn -0.4220 -0.0014 0.9066
vn -0.3846 0.3848 0.8390
vn -0.2897 0.7064 0.6458
vn -0.1515 0.9222 0.3558
vn 0.0126 0.9999 0.0058
vn 0.1747 0.9222 -0.3450
vn 0.3076 0.7064 -0.6375
vn 0.3944 0.3848 -0.8345
vn 0.4220 -0.0014 -0.9066
vn 0.3841 -0.3872 -0.8382
vn 0.2889 -0.7077 -0.6447
vn 0.1507 -0.9226 -0.3551
vn -0.0130 -0.9999 -0.0060
vn -0.1746 -0.9226 0.3439
vn -0.3072 -0.7077 0.6362
vn -0.3941 -0.3872 0.8336
vn -0.4222 -0.0034 0.9065
vn -0.3718 0.3827 0.8458
vn -0.2661 0.7046 0.6578
vn -0.1205 0.9208 0.3709
vn 0.0465 0.9987 0.0216
vn 0.2063 0.9208 -0.3310
vn 0.3320 0.7046 -0.6272
vn 0.4078 0.3827 -0.8290
vn 0.4218 -0.0034 -0.9067
vn 0.3702 -0.3884 -0.8439
vn 0.2638 -0.7078 -0.6553
vn 0.1181 -0.9217 -0.3694
vn -0.0480 -0.9986 -0.0223
vn -0.2066 -0.9217 0.3282
vn -0.3316 -0.7078 0.6238
vn -0.4073 -0.3884 0.8266
vn -0.4227 -0.0059 0.9062
vn -0.3468 0.3780 0.8584
vn -0.2198 0.6988 0.6807
vn -0.0598 0.9145 0.4002
vn 0.1126 0.9923 0.0524
vn 0.2677 0.9145 -0.3034
vn 0.3793 0.6988 -0.6065
vn 0.4335 0.3780 -0.8180
vn 0.4212 -0.0059 -0.9069
vn 0.3432 -0.3879 -0.8554
vn 0.2149 -0.7042 -0.6767
vn 0.0549 -0.9158 -0.3979
vn -0.1161 -0.9918 -0.0540
vn -0.2691 -0.9158 0.2981
vn -0.3794 -0.7042 0.6001
vn -0.4335 -0.3879 0.8134
vn -0.4240 -0.0085 0.9056
vn -0.3081 0.3675 0.8775
vn -0.1477 0.6824 0.7159
vn 0.0349 0.8947 0.4454
vn 0.2158 0.9713 0.1004
vn 0.3633 0.8947 -0.2601
vn 0.4527 0.6824 -0.5739
vn 0.4731 0.3675 -0.8007
vn 0.4200 -0.0085 -0.9075
vn 0.3013 -0.3816 -0.8738
vn 0.1396 -0.6899 -0.7103
vn -0.0425 -0.8959 -0.4422
vn -0.2211 -0.9698 -0.1029
vn -0.3657 -0.8959 0.2522
vn -0.4536 -0.6899 0.5642
vn -0.4746 -0.3816 0.7932
vn -0.4259 -0.0101 0.9047
vn -0.2580 0.3469 0.9017
vn -0.0537 0.6466 0.7610
vn 0.1588 0.8489 0.5041
vn 0.3508 0.9221 0.1633
vn 0.4880 0.8489 -0.2031
vn 0.5477 0.6466 -0.5310
vn 0.5238 0.3469 -0.7780
vn 0.4180 -0.0101 -0.9084
vn 0.2475 -0.3636 -0.8981
vn 0.0433 -0.6553 -0.7541
vn -0.1670 -0.8501 -0.4994
vn -0.3554 -0.9200 -0.1654
vn -0.4896 -0.8501 0.1937
vn -0.5491 -0.6553 0.5186
vn -0.5278 -0.3636 0.7676
vn -0.4280 -0.0100 0.9037
vn -0.2036 0.3137 0.9275
vn 0.0488 0.5854 0.8093
vn 0.2942 0.7689 0.5676
vn 0.4985 0.8353 0.2320
vn 0.6238 0.7689 -0.1403
vn 0.6506 0.5854 -0.4837
vn 0.5786 0.3137 -0.7529
vn 0.4160 -0.0100 -0.9093
vn 0.1897 -0.3304 -0.9246
vn -0.0601 -0.5947 -0.8017
vn -0.3006 -0.7711 -0.5612
vn -0.4997 -0.8344 -0.2326
vn -0.6230 -0.7711 0.1313
vn -0.6521 -0.5947 0.4702
vn -0.5853 -0.3304 0.7405
vn -0.4297 -0.0081 0.9029
vn -0.1536 0.2696 0.9506
vn 0.1427 0.5024 0.8528
vn 0.4180 0.6592 0.6251
vn 0.6331 0.7158 0.2947
vn 0.7475 0.6592 -0.0826
vn 0.7444 0.5024 -0.4399
vn 0.6285 0.2696 -0.7296
vn 0.4142 -0.0081 -0.9101
vn 0.1372 -0.2834 -0.9491
vn -0.1544 -0.5108 -0.8457
vn -0.4229 -0.6626 -0.6182
vn -0.6320 -0.7170 -0.2942
vn -0.7453 -0.6626 0.0745
vn -0.7466 -0.5108 0.4264
vn -0.6379 -0.2834 0.7161
vn -0.4333 0.0004 0.9012
vn -0.1171 0.2270 0.9668
vn 0.2124 0.4163 0.8841
vn 0.5097 0.5435 0.6669
vn 0.7324 0.5894 0.3409
vn 0.8385 0.5435 -0.0394
vn 0.8132 0.4163 -0.4067
vn 0.6644 0.2270 -0.7121
vn 0.4106 0.0004 -0.9118
vn 0.0939 -0.2247 -0.9699
vn -0.2307 -0.4108 -0.8821
vn -0.5214 -0.5351 -0.6646
vn -0.7387 -0.5797 -0.3438
vn -0.8443 -0.5351 0.0290
vn -0.8235 -0.4108 0.3914
vn -0.6816 -0.2247 0.6963
vn -0.4429 0.0299 0.8961
vn -0.1005 0.2096 0.9726
vn 0.2496 0.3598 0.8990
vn 0.5599 0.4608 0.6886
vn 0.7866 0.4972 0.3661
vn 0.8874 0.4608 -0.0149
vn 0.8486 0.3598 -0.3878
vn 0.6795 0.2096 -0.7031
vn 0.4005 0.0299 -0.9158
vn 0.0578 -0.1486 -0.9872
vn -0.2892 -0.2963 -0.9103
vn -0.5952 -0.3949 -0.6998
vn -0.8184 -0.4303 -0.3809
vn -0.9187 -0.3949 -0.0049
vn -0.8827 -0.2963 0.3648
vn -0.7182 -0.1486 0.6798
vn -0.4582 0.1019 0.8830
vn -0.1023 0.2438 0.9644
vn 0.2573 0.3627 0.8957
vn 0.5724 0.4429 0.6901
vn 0.7993 0.4718 0.3721
vn 0.8965 0.4429 -0.0064
vn 0.8510 0.3627 -0.3798
vn 0.6721 0.2438 -0.6992
vn 0.3806 0.1019 -0.9191
vn 0.0243 -0.0388 -0.9990
vn -0.3347 -0.1550 -0.9295
vn -0.6492 -0.2326 -0.7242
vn -0.8753 -0.2604 -0.4074
vn -0.9721 -0.2326 -0.0304
vn -0.9267 -0.1550 0.3424
vn -0.7487 -0.0388 0.6618
vn -0.4710 0.2447 0.8475
vn -0.1159 0.3560 0.9273
vn 0.2388 0.4491 0.8610
vn 0.5465 0.5119 0.6628
vn 0.7663 0.5344 0.3567
vn 0.8590 0.5119 -0.0086
vn 0.8125 0.4491 -0.3716
vn 0.6349 0.3560 -0.6857
vn 0.3452 0.2447 -0.9061
vn -0.0099 0.1344 -0.9909
vn -0.3683 0.0431 -0.9287
vn -0.6820 -0.0178 -0.7311
vn -0.9059 -0.0397 -0.4217
vn -0.9985 -0.0178 -0.0511
vn -0.9477 0.0431 0.3161
vn -0.7645 0.1344 0.6304
vn -0.4544 0.4862 0.7464
vn -0.1304 0.5670 0.8133
vn 0.1875 0.6339 0.7503
vn 0.4596 0.6783 0.5733
vn 0.6526 0.6941 0.3038
vn 0.7346 0.6783 -0.0174
vn 0.6949 0.6339 -0.3396
vn 0.5384 0.5670 -0.6234
vn 0.2786 0.4862 -0.8282
vn -0.0448 0.4055 -0.9130
vn -0.3747 0.3382 -0.8633
vn -0.6648 0.2929 -0.6872
vn -0.8713 0.2764 -0.4055
vn -0.9539 0.2929 -0.0663
vn -0.9018 0.3382 0.2691
vn -0.7274 0.4055 0.5536
vn -0.3605 0.7830 0.5069
vn -0.1293 0.8227 0.5536
vn 0.0960 0.8553 0.5091
vn 0.2880 0.8766 0.3855
vn 0.4236 0.8841 0.1972
vn 0.4804 0.8766 -0.0278
vn 0.4513 0.8553 -0.2543
vn 0.3403 0.8227 -0.4553
vn 0.1558 0.7830 -0.6022
vn -0.0748 0.7432 -0.6649
vn -0.3107 0.7099 -0.6321
vn -0.5186 0.6868 -0.5092
vn -0.6661 0.6784 -0.3100
vn -0.7235 0.6868 -0.0690
vn -0.6837 0.7099 0.1692
vn -0.5569 0.7432 0.3709
vn -0.2644 0.9145 0.3063
vn -0.1165 0.9318 0.3438
vn 0.0328 0.9463 0.3216
vn 0.1629 0.9561 0.2434
vn 0.2549 0.9597 0.1186
vn 0.2911 0.9561 -0.0321
vn 0.2672 0.9463 -0.1820
vn 0.1880 0.9318 -0.3105
vn 0.0641 0.9145 -0.3996
vn -0.0840 0.8973 -0.4333
vn -0.2308 0.8831 -0.4084
vn -0.3572 0.8738 -0.3300
vn -0.4464 0.8704 -0.2078
vn -0.4825 0.8738 -0.0608
vn -0.4611 0.8831 0.0864
vn -0.3856 0.8973 0.2147
vt 0.750000 0.562500
vt 0.750000 0.625000
vt 0.687500 0.625000
vt 0.687500 0.562500
vt 0.750000 0.500000
vt 0.687500 0.500000
vt 0.750000 0.937500
vt 0.718750 1.000000
vt 0.687500 0.937500
vt 0.750000 0.875000
vt 0.687500 0.875000
vt 0.750000 0.812500
vt 0.687500 0.812500
vt 0.750000 0.750000
vt 0.687500 0.750000
vt 0.750000 0.687500
vt 0.687500 0.687500
vt 0.625000 0.687500
vt 0.625000 0.625000
vt 0.625000 0.562500
vt 0.625000 0.500000
vt 0.656250 1.000000
vt 0.625000 0.937500
vt 0.625000 0.875000
vt 0.625000 0.812500
vt 0.625000 0.750000
vt 0.562500 0.937500
vt 0.562500 0.875000
vt 0.562500 0.812500
vt 0.562500 0.750000
vt 0.562500 0.687500
vt 0.562500 0.625000
vt 0.562500 0.562500
vt 0.562500 0.500000
vt 0.593750 1.000000
vt 0.500000 0.687500
vt 0.500000 0.625000
vt 0.500000 0.562500
vt 0.500000 0.500000
vt 0.531250 1.000000
vt 0.500000 0.937500
vt 0.500000 0.875000
vt 0.500000 0.812500
vt 0.500000 0.750000
vt 0.062500 0.500000
vt 0.000000 0.500000
vt 0.062500 0.500000
vt 0.437500 0.875000
vt 0.437500 0.812500
vt 0.437500 0.750000
vt 0.437500 0.687500
vt 0.437500 0.625000
vt 0.437500 0.562500
vt 0.437500 0.500000
vt 0.468750 1.000000
vt 0.437500 0.937500
vt 0.375000 0.625000
vt 0.375000 0.562500
vt 0.375000 0.500000
vt 0.406250 1.000000
vt 0.375000 0.937500
vt 0.687500 0.500000
vt 0.375000 0.875000
vt 0.375000 0.812500
vt 0.375000 0.750000
vt 0.375000 0.687500
vt 0.312500 0.500000
vt 0.250000 0.500000
vt 0.312500 0.812500
vt 0.312500 0.750000
vt 0.312500 0.500000
vt 0.250000 0.500000
vt 0.312500 0.687500
vt 0.312500 0.625000
vt 0.312500 0.562500
vt 0.812500 0.500000
vt 0.343750 1.000000
vt 0.312500 0.937500
vt 0.312500 0.875000
vt 0.250000 0.562500
vt 0.281250 1.000000
vt 0.250000 0.937500
vt 0.500000 0.500000
vt 0.250000 0.875000
vt 0.250000 0.812500
vt 0.250000 0.750000
vt 0.250000 0.687500
vt 0.125000 0.500000
vt 0.250000 0.625000
vt 0.125000 0.500000
vt 0.187500 0.812500
vt 0.187500 0.750000
vt 0.187500 0.687500
vt 0.187500 0.625000
vt 0.187500 0.562500
vt 0.437500 0.500000
vt 0.187500 0.500000
vt 0.218750 1.000000
vt 0.187500 0.937500
vt 0.187500 0.875000
vt 0.125000 0.562500
vt 0.156250 1.000000
vt 0.125000 0.937500
vt 0.125000 0.875000
vt 0.125000 0.812500
vt 0.125000 0.750000
vt 0.125000 0.687500
vt 1.000000 0.500000
vt 0.937500 0.500000
vt 0.937500 0.500000
vt 0.125000 0.625000
vt 0.062500 0.750000
vt 0.062500 0.687500
vt 0.062500 0.625000
vt 0.875000 0.500000
vt 0.062500 0.562500
vt 0.093750 1.000000
vt 0.062500 0.937500
vt 0.875000 0.500000
vt 0.062500 0.875000
vt 0.062500 0.812500
vt 0.031250 1.000000
vt 0.000000 0.937500
vt 0.000000 0.875000
vt 0.000000 0.812500
vt 0.000000 0.750000
vt 0.000000 0.687500
vt 0.000000 0.625000
vt 0.000000 0.562500
vt 1.000000 0.687500
vt 1.000000 0.750000
vt 0.937500 0.750000
vt 0.937500 0.687500
vt 1.000000 0.625000
vt 0.937500 0.625000
vt 1.000000 0.562500
vt 0.937500 0.562500
vt 1.000000 0.937500
vt 0.968750 1.000000
vt 0.937500 0.937500
vt 1.000000 0.875000
vt 0.937500 0.875000
vt 1.000000 0.812500
vt 0.937500 0.812500
vt 0.875000 0.937500
vt 0.875000 0.875000
vt 0.875000 0.812500
vt 0.875000 0.750000
vt 0.875000 0.687500
vt 0.875000 0.625000
vt 0.875000 0.562500
vt 0.906250 1.000000
vt 0.812500 0.687500
vt 0.812500 0.625000
vt 0.812500 0.562500
vt 0.843750 1.000000
vt 0.812500 0.937500
vt 0.812500 0.875000
vt 0.812500 0.812500
vt 0.812500 0.750000
vt 0.781250 1.000000
vt 0.000000 1.000000
vt 0.071429 1.000000
vt 0.071429 0.937500
vt 0.000000 0.937500
vt 0.000000 0.062500
vt 0.071429 0.062500
vt 0.071429 0.000000
vt 0.000000 0.000000
vt 0.000000 0.125000
vt 0.071429 0.125000
vt 0.000000 0.187500
vt 0.071429 0.187500
vt 0.000000 0.250000
vt 0.071429 0.250000
vt 0.000000 0.312500
vt 0.071429 0.312500
vt 0.000000 0.375000
vt 0.071429 0.375000
vt 0.000000 0.437500
vt 0.071429 0.437500
vt 0.071429 0.500000
vt 0.071429 0.562500
vt 0.000000 0.625000
vt 0.071429 0.625000
vt 0.071429 0.687500
vt 0.000000 0.750000
vt 0.071429 0.750000
vt 0.071429 0.812500
vt 0.071429 0.875000
vt 0.142857 1.000000
vt 0.142857 0.937500
vt 0.142857 0.062500
vt 0.142857 0.000000
vt 0.142857 0.125000
vt 0.142857 0.187500
vt 0.142857 0.250000
vt 0.142857 0.312500
vt 0.142857 0.375000
vt 0.142857 0.437500
vt 0.142857 0.500000
vt 0.142857 0.562500
vt 0.142857 0.625000
vt 0.142857 0.687500
vt 0.142857 0.750000
vt 0.142857 0.812500
vt 0.142857 0.875000
vt 0.214286 1.000000
vt 0.214286 0.937500
vt 0.214286 0.062500
vt 0.214286 0.000000
vt 0.214286 0.125000
vt 0.214286 0.187500
vt 0.214286 0.250000
vt 0.214286 0.312500
vt 0.214286 0.375000
vt 0.214286 0.437500
vt 0.214286 0.500000
vt 0.214286 0.562500
vt 0.214286 0.625000
vt 0.214286 0.687500
vt 0.214286 0.750000
vt 0.214286 0.812500
vt 0.214286 0.875000
vt 0.285714 1.000000
vt 0.285714 0.937500
vt 0.285714 0.062500
vt 0.285714 0.000000
vt 0.285714 0.125000
vt 0.285714 0.187500
vt 0.285714 0.250000
vt 0.285714 0.312500
vt 0.285714 0.375000
vt 0.285714 0.437500
vt 0.285714 0.500000
vt 0.285714 0.562500
vt 0.285714 0.625000
vt 0.285714 0.687500
vt 0.285714 0.750000
vt 0.285714 0.812500
vt 0.285714 0.875000
vt 0.357143 1.000000
vt 0.357143 0.937500
vt 0.357143 0.062500
vt 0.357143 0.000000
vt 0.357143 0.125000
vt 0.357143 0.187500
vt 0.357143 0.250000
vt 0.357143 0.312500
vt 0.357143 0.375000
vt 0.357143 0.437500
vt 0.357143 0.500000
vt 0.357143 0.562500
vt 0.357143 0.625000
vt 0.357143 0.687500
vt 0.357143 0.750000
vt 0.357143 0.812500
vt 0.357143 0.875000
vt 0.428571 1.000000
vt 0.428571 0.937500
vt 0.428571 0.062500
vt 0.428571 0.000000
vt 0.428571 0.125000
vt 0.428571 0.187500
vt 0.428571 0.250000
vt 0.428571 0.312500
vt 0.428571 0.375000
vt 0.428571 0.437500
vt 0.428571 0.500000
vt 0.428571 0.562500
vt 0.428571 0.625000
vt 0.428571 0.687500
vt 0.428571 0.750000
vt 0.428571 0.812500
vt 0.428571 0.875000
vt 0.500000 1.000000
vt 0.500000 0.937500
vt 0.500000 0.062500
vt 0.500000 0.000000
vt 0.500000 0.125000
vt 0.500000 0.187500
vt 0.500000 0.250000
vt 0.500000 0.312500
vt 0.500000 0.375000
vt 0.500000 0.437500
vt 0.500000 0.500000
vt 0.500000 0.562500
vt 0.500000 0.625000
vt 0.500000 0.687500
vt 0.500000 0.750000
vt 0.500000 0.812500
vt 0.500000 0.875000
vt 0.571429 1.000000
vt 0.571429 0.937500
vt 0.571429 0.062500
vt 0.571429 0.000000
vt 0.571429 0.125000
vt 0.571429 0.187500
vt 0.571429 0.250000
vt 0.571429 0.312500
vt 0.571429 0.375000
vt 0.571429 0.437500
vt 0.571429 0.500000
vt 0.571429 0.562500
vt 0.571429 0.625000
vt 0.571429 0.687500
vt 0.571429 0.750000
vt 0.571429 0.812500
vt 0.571429 0.875000
vt 0.642857 1.000000
vt 0.642857 0.937500
vt 0.642857 0.062500
vt 0.642857 0.000000
vt 0.642857 0.125000
vt 0.642857 0.187500
vt 0.642857 0.250000
vt 0.642857 0.312500
vt 0.642857 0.375000
vt 0.642857 0.437500
vt 0.642857 0.500000
vt 0.642857 0.562500
vt 0.642857 0.625000
vt 0.642857 0.687500
vt 0.642857 0.750000
vt 0.642857 0.812500
vt 0.642857 0.875000
vt 0.714286 1.000000
vt 0.714286 0.937500
vt 0.714286 0.062500
vt 0.714286 0.000000
vt 0.714286 0.125000
vt 0.714286 0.187500
vt 0.714286 0.250000
vt 0.714286 0.312500
vt 0.714286 0.375000
vt 0.714286 0.437500
vt 0.714286 0.500000
vt 0.714286 0.562500
vt 0.714286 0.625000
vt 0.714286 0.687500
vt 0.714286 0.750000
vt 0.714286 0.812500
vt 0.714286 0.875000
vt 0.785714 1.000000
vt 0.785714 0.937500
vt 0.785714 0.062500
vt 0.785714 0.000000
vt 0.785714 0.125000
vt 0.785714 0.187500
vt 0.785714 0.250000
vt 0.785714 0.312500
vt 0.785714 0.375000
vt 0.785714 0.437500
vt 0.785714 0.500000
vt 0.785714 0.562500
vt 0.785714 0.625000
vt 0.785714 0.687500
vt 0.785714 0.750000
vt 0.785714 0.812500
vt 0.785714 0.875000
vt 0.857143 1.000000
vt 0.857143 0.937500
vt 0.857143 0.062500
vt 0.857143 0.000000
vt 0.857143 0.125000
vt 0.857143 0.187500
vt 0.857143 0.250000
vt 0.857143 0.312500
vt 0.857143 0.375000
vt 0.857143 0.437500
vt 0.857143 0.500000
vt 0.857143 0.562500
vt 0.857143 0.625000
vt 0.857143 0.687500
vt 0.857143 0.750000
vt 0.857143 0.812500
vt 0.857143 0.875000
vt 0.928571 1.000000
vt 0.928571 0.937500
vt 0.928571 0.062500
vt 0.928571 0.000000
vt 0.928571 0.125000
vt 0.928571 0.187500
vt 0.928571 0.250000
vt 0.928571 0.312500
vt 0.928571 0.375000
vt 0.928571 0.437500
vt 0.928571 0.500000
vt 0.928571 0.562500
vt 0.928571 0.625000
vt 0.928571 0.687500
vt 0.928571 0.750000
vt 0.928571 0.812500
vt 0.928571 0.875000
vt 1.000000 1.000000
vt 1.000000 0.937500
vt 1.000000 0.062500
vt 1.000000 0.000000
vt 1.000000 0.125000
vt 1.000000 0.187500
vt 1.000000 0.250000
vt 1.000000 0.312500
vt 1.000000 0.375000
vt 1.000000 0.437500
vt 1.000000 0.625000
vt 1.000000 0.750000
s 1
usemtl Main
f 5/1/5 4/2/4 11/3/11 12/4/12
f 223/5/145 5/1/5 12/4/12 13/6/13
f 1/7/1 160/8/108 6/9/6
f 2/10/2 1/7/1 6/9/6 7/11/7
f 221/12/143 2/10/2 7/11/7 8/13/8
f 3/14/3 221/12/143 8/13/8 9/15/9
f 222/16/144 3/14/3 9/15/9 10/17/10
f 4/2/4 222/16/144 10/17/10 11/3/11
f 11/3/11 10/17/10 18/18/18 19/19/19
f 12/4/12 11/3/11 19/19/19 20/20/20
f 13/6/13 12/4/12 20/20/20 21/21/21
f 6/9/6 160/22/108 14/23/14
f 7/11/7 6/9/6 14/23/14 15/24/15
f 8/13/8 7/11/7 15/24/15 16/25/16
f 9/15/9 8/13/8 16/25/16 17/26/17
f 10/17/10 9/15/9 17/26/17 18/18/18
f 15/24/15 14/23/14 24/27/23 25/28/24
f 16/25/16 15/24/15 25/28/24 26/29/25
f 17/26/17 16/25/16 26/29/25 27/30/26
f 18/18/18 17/26/17 27/30/26 28/31/27
f 19/19/19 18/18/18 28/31/27 29/32/28
f 20/20/20 19/19/19 29/32/28 30/33/29
f 21/21/21 20/20/20 30/33/29 31/34/30
f 14/23/14 160/35/108 24/27/23
f 29/32/28 28/31/27 43/36/36 44/37/37
f 30/33/29 29/32/28 44/37/37 45/38/38
f 31/34/30 30/33/29 45/38/38 46/39/39
f 24/27/23 160/40/108 39/41/32
f 25/28/24 24/27/23 39/41/32 40/42/33
f 26/29/25 25/28/24 40/42/33 41/43/34
f 27/30/26 26/29/25 41/43/34 42/44/35
f 28/31/27 27/30/26 42/44/35 43/36/36
f 169/45/107 139/46/88 140/46/88 159/47/107
f 41/43/34 40/42/33 55/48/43 56/49/44
f 170/47/107 138/46/88 139/46/88 169/45/107
f 42/44/35 41/43/34 56/49/44 57/50/45
f 171/47/107 129/46/88 138/46/88 170/47/107
f 43/36/36 42/44/35 57/50/45 58/51/46
f 172/47/107 128/46/88 129/46/88 171/47/107
f 44/37/37 43/36/36 58/51/46 59/52/47
f 152/47/105 168/46/116 128/46/88 172/47/107
f 45/38/38 44/37/37 59/52/47 60/53/48
f 49/21/40 184/34/117 185/34/117 48/21/40
f 46/39/39 45/38/38 60/53/48 61/54/49
f 39/41/32 160/55/108 54/56/42
f 50/21/40 175/34/117 184/34/117 49/21/40
f 51/21/40 174/34/117 175/34/117 50/21/40
f 40/42/33 39/41/32 54/56/42 55/48/43
f 52/21/40 173/34/117 174/34/117 51/21/40
f 60/53/48 59/52/47 74/57/56 75/58/57
f 21/21/21 31/34/30 173/34/117 52/21/40
f 61/54/49 60/53/48 75/58/57 76/59/58
f 54/56/42 160/60/108 69/61/51
f 187/5/126 64/62/41 65/62/41 186/5/126
f 188/5/126 63/62/41 64/62/41 187/5/126
f 55/48/43 54/56/42 69/61/51 70/63/52
f 189/5/126 62/62/41 63/62/41 188/5/126
f 56/49/44 55/48/43 70/63/52 71/64/53
f 190/5/126 53/6/41 62/62/41 189/5/126
f 57/50/45 56/49/44 71/64/53 72/65/54
f 223/5/145 13/6/13 53/6/41 190/5/126
f 58/51/46 57/50/45 72/65/54 73/66/55
f 67/67/50 38/68/31 47/68/31 66/67/50
f 59/52/47 58/51/46 73/66/55 74/57/56
f 68/67/50 37/68/31 38/68/31 67/67/50
f 72/65/54 71/64/53 86/69/62 87/70/63
f 77/71/50 36/72/31 37/68/31 68/67/50
f 73/66/55 72/65/54 87/70/63 88/73/64
f 78/71/50 35/68/31 36/72/31 77/71/50
f 74/57/56 73/66/55 88/73/64 89/74/65
f 91/67/67 106/68/77 35/68/31 78/71/50
f 75/58/57 74/57/56 89/74/65 90/75/66
f 93/76/68 187/5/126 186/5/126 92/76/68
f 76/59/58 75/58/57 90/75/66 91/67/67
f 69/61/51 160/77/108 84/78/60
f 94/76/68 188/5/126 187/5/126 93/76/68
f 95/76/68 189/5/126 188/5/126 94/76/68
f 70/63/52 69/61/51 84/78/60 85/79/61
f 96/76/68 190/5/126 189/5/126 95/76/68
f 71/64/53 70/63/52 85/79/61 86/69/62
f 213/76/142 223/5/145 190/5/126 96/76/68
f 91/67/67 90/75/66 105/80/76 106/68/77
f 84/78/60 160/81/108 99/82/70
f 184/34/117 157/83/106 158/83/106 185/34/117
f 175/34/117 156/83/106 157/83/106 184/34/117
f 85/79/61 84/78/60 99/82/70 100/84/71
f 174/34/117 155/83/106 156/83/106 175/34/117
f 86/69/62 85/79/61 100/84/71 101/85/72
f 173/34/117 154/83/106 155/83/106 174/34/117
f 87/70/63 86/69/62 101/85/72 102/86/73
f 31/34/30 46/39/39 154/83/106 173/34/117
f 88/73/64 87/70/63 102/86/73 103/87/74
f 142/88/97 169/45/107 159/47/107 141/88/97
f 89/74/65 88/73/64 103/87/74 104/89/75
f 143/90/97 170/47/107 169/45/107 142/88/97
f 90/75/66 89/74/65 104/89/75 105/80/76
f 102/86/73 101/85/72 116/91/81 117/92/82
f 144/90/97 171/47/107 170/47/107 143/90/97
f 103/87/74 102/86/73 117/92/82 118/93/83
f 153/88/97 172/47/107 171/47/107 144/90/97
f 104/89/75 103/87/74 118/93/83 119/94/84
f 137/88/96 152/47/105 172/47/107 153/88/97
f 105/80/76 104/89/75 119/94/84 120/95/85
f 157/83/106 113/96/78 122/54/78 158/83/106
f 106/68/77 105/80/76 120/95/85 121/97/86
f 99/82/70 160/98/108 114/99/79
f 156/83/106 112/96/78 113/96/78 157/83/106
f 155/83/106 111/96/78 112/96/78 156/83/106
f 100/84/71 99/82/70 114/99/79 115/100/80
f 154/83/106 110/96/78 111/96/78 155/83/106
f 101/85/72 100/84/71 115/100/80 116/91/81
f 46/39/39 61/54/49 110/96/78 154/83/106
f 121/97/86 120/95/85 136/101/95 137/88/96
f 114/99/79 160/102/108 130/103/89
f 23/97/22 142/88/97 141/88/97 22/97/22
f 32/97/22 143/90/97 142/88/97 23/97/22
f 115/100/80 114/99/79 130/103/89 131/104/90
f 33/97/22 144/90/97 143/90/97 32/97/22
f 116/91/81 115/100/80 131/104/90 132/105/91
f 34/97/22 153/88/97 144/90/97 33/97/22
f 117/92/82 116/91/81 132/105/91 133/106/92
f 121/97/86 137/88/96 153/88/97 34/97/22
f 118/93/83 117/92/82 133/106/92 134/107/93
f 139/108/88 126/109/87 127/110/87 140/108/88
f 119/94/84 118/93/83 134/107/93 135/111/94
f 138/108/88 125/110/87 126/109/87 139/108/88
f 120/95/85 119/94/84 135/111/94 136/101/95
f 129/108/88 124/110/87 125/110/87 138/108/88
f 128/108/88 123/110/87 124/110/87 129/108/88
f 134/107/93 133/106/92 148/112/101 149/113/102
f 168/108/116 183/110/125 123/110/87 128/108/88
f 135/111/94 134/107/93 149/113/102 150/114/103
f 126/109/87 108/115/69 109/115/69 127/110/87
f 136/101/95 135/111/94 150/114/103 151/116/104
f 125/110/87 107/115/69 108/115/69 126/109/87
f 137/88/96 136/101/95 151/116/104 152/47/105
f 130/103/89 160/117/108 145/118/98
f 124/110/87 98/119/69 107/115/69 125/110/87
f 123/110/87 97/115/69 98/119/69 124/110/87
f 131/104/90 130/103/89 145/118/98 146/120/99
f 183/110/125 198/115/134 97/115/69 123/110/87
f 132/105/91 131/104/90 146/120/99 147/121/100
f 113/96/78 82/59/59 83/59/59 122/54/78
f 133/106/92 132/105/91 147/121/100 148/112/101
f 145/118/98 160/122/108 161/123/109
f 112/96/78 81/59/59 82/59/59 113/96/78
f 111/96/78 80/59/59 81/59/59 112/96/78
f 146/120/99 145/118/98 161/123/109 162/124/110
f 110/96/78 79/59/59 80/59/59 111/96/78
f 147/121/100 146/120/99 162/124/110 163/125/111
f 61/54/49 76/59/58 79/59/59 110/96/78
f 148/112/101 147/121/100 163/125/111 164/126/112
f 108/115/69 93/76/68 92/76/68 109/115/69
f 149/113/102 148/112/101 164/126/112 165/127/113
f 107/115/69 94/76/68 93/76/68 108/115/69
f 150/114/103 149/113/102 165/127/113 166/128/114
f 98/119/69 95/76/68 94/76/68 107/115/69
f 151/116/104 150/114/103 166/128/114 167/129/115
f 97/115/69 96/76/68 95/76/68 98/119/69
f 152/47/105 151/116/104 167/129/115 168/46/116
f 165/130/113 164/131/112 179/132/121 180/133/122
f 198/115/134 213/76/142 96/76/68 97/115/69
f 166/134/114 165/130/113 180/133/122 181/135/123
f 82/59/59 67/67/50 66/67/50 83/59/59
f 167/136/115 166/134/114 181/135/123 182/137/124
f 81/59/59 68/67/50 67/67/50 82/59/59
f 168/108/116 167/136/115 182/137/124 183/110/125
f 161/138/109 160/139/108 176/140/118
f 80/59/59 77/71/50 68/67/50 81/59/59
f 79/59/59 78/71/50 77/71/50 80/59/59
f 162/141/110 161/138/109 176/140/118 177/142/119
f 76/59/58 91/67/67 78/71/50 79/59/59
f 163/143/111 162/141/110 177/142/119 178/144/120
f 64/62/41 49/21/40 48/21/40 65/62/41
f 164/131/112 163/143/111 178/144/120 179/132/121
f 63/62/41 50/21/40 49/21/40 64/62/41
f 62/62/41 51/21/40 50/21/40 63/62/41
f 177/142/119 176/140/118 191/145/127 192/146/128
f 53/6/41 52/21/40 51/21/40 62/62/41
f 178/144/120 177/142/119 192/146/128 193/147/129
f 13/6/13 21/21/21 52/21/40 53/6/41
f 179/132/121 178/144/120 193/147/129 194/148/130
f 38/68/31 23/97/22 22/97/22 47/68/31
f 180/133/122 179/132/121 194/148/130 195/149/131
f 37/68/31 32/97/22 23/97/22 38/68/31
f 181/135/123 180/133/122 195/149/131 196/150/132
f 36/72/31 33/97/22 32/97/22 37/68/31
f 182/137/124 181/135/123 196/150/132 197/151/133
f 35/68/31 34/97/22 33/97/22 36/72/31
f 183/110/125 182/137/124 197/151/133 198/115/134
f 176/140/118 160/152/108 191/145/127
f 106/68/77 121/97/86 34/97/22 35/68/31
f 159/47/107 140/46/88 203/46/88 204/47/107
f 196/150/132 195/149/131 210/153/139 211/154/140
f 48/21/40 185/34/117 220/34/117 224/21/40
f 197/151/133 196/150/132 211/154/140 212/155/141
f 186/5/126 65/62/41 225/6/41 199/5/126
f 198/115/134 197/151/133 212/155/141 213/76/142
f 191/145/127 160/156/108 206/157/135
f 66/67/50 47/68/31 215/68/31 216/67/50
f 92/76/68 186/5/126 199/5/126 200/76/68
f 192/146/128 191/145/127 206/157/135 207/158/136
f 185/34/117 158/83/106 219/39/106 220/34/117
f 193/147/129 192/146/128 207/158/136 208/159/137
f 141/88/97 159/47/107 204/47/107 205/88/97
f 194/148/130 193/147/129 208/159/137 209/160/138
f 158/83/106 122/54/78 218/54/78 219/39/106
f 195/149/131 194/148/130 209/160/138 210/153/139
f 22/97/22 141/88/97 205/88/97 214/97/22
f 208/159/137 207/158/136 2/10/2 221/12/143
f 140/108/88 127/110/87 202/110/87 203/108/88
f 209/160/138 208/159/137 221/12/143 3/14/3
f 127/110/87 109/115/69 201/115/69 202/110/87
f 210/153/139 209/160/138 3/14/3 222/16/144
f 122/54/78 83/59/59 217/59/59 218/54/78
f 211/154/140 210/153/139 222/16/144 4/2/4
f 109/115/69 92/76/68 200/76/68 201/115/69
f 212/155/141 211/154/140 4/2/4 5/1/5
f 83/59/59 66/67/50 216/67/50 217/59/59
f 213/76/142 212/155/141 5/1/5 223/5/145
f 206/157/135 160/161/108 1/7/1
f 65/62/41 48/21/40 224/21/40 225/6/41
f 47/68/31 22/97/22 214/97/22 215/68/31
f 207/158/136 206/157/135 1/7/1 2/10/2
f 226/162/146 242/163/162 257/164/177 241/165/161
f 227/166/147 243/167/163 242/168/162 226/169/146
f 228/170/148 244/171/164 243/167/163 227/166/147
f 229/172/149 245/173/165 244/171/164 228/170/148
f 230/174/150 246/175/166 245/173/165 229/172/149
f 231/176/151 247/177/167 246/175/166 230/174/150
f 232/178/152 248/179/168 247/177/167 231/176/151
f 233/180/153 249/181/169 248/179/168 232/178/152
f 234/46/154 250/182/170 249/181/169 233/180/153
f 235/129/155 251/183/171 250/182/170 234/46/154
f 236/184/156 252/185/172 251/183/171 235/129/155
f 237/127/157 253/186/173 252/185/172 236/184/156
f 238/187/158 254/188/174 253/186/173 237/127/157
f 239/125/159 255/189/175 254/188/174 238/187/158
f 240/124/160 256/190/176 255/189/175 239/125/159
f 241/165/161 257/164/177 256/190/176 240/124/160
f 242/163/162 258/191/178 273/192/193 257/164/177
f 243/167/163 259/193/179 258/194/178 242/168/162
f 244/171/164 260/195/180 259/193/179 243/167/163
f 245/173/165 261/196/181 260/195/180 244/171/164
f 246/175/166 262/197/182 261/196/181 245/173/165
f 247/177/167 263/198/183 262/197/182 246/175/166
f 248/179/168 264/199/184 263/198/183 247/177/167
f 249/181/169 265/200/185 264/199/184 248/179/168
f 250/182/170 266/201/186 265/200/185 249/181/169
f 251/183/171 267/202/187 266/201/186 250/182/170
f 252/185/172 268/203/188 267/202/187 251/183/171
f 253/186/173 269/204/189 268/203/188 252/185/172
f 254/188/174 270/205/190 269/204/189 253/186/173
f 255/189/175 271/206/191 270/205/190 254/188/174
f 256/190/176 272/207/192 271/206/191 255/189/175
f 257/164/177 273/192/193 272/207/192 256/190/176
f 258/191/178 274/208/194 289/209/209 273/192/193
f 259/193/179 275/210/195 274/211/194 258/194/178
f 260/195/180 276/212/196 275/210/195 259/193/179
f 261/196/181 277/213/197 276/212/196 260/195/180
f 262/197/182 278/214/198 277/213/197 261/196/181
f 263/198/183 279/215/199 278/214/198 262/197/182
f 264/199/184 280/216/200 279/215/199 263/198/183
f 265/200/185 281/217/201 280/216/200 264/199/184
f 266/201/186 282/218/202 281/217/201 265/200/185
f 267/202/187 283/219/203 282/218/202 266/201/186
f 268/203/188 284/220/204 283/219/203 267/202/187
f 269/204/189 285/221/205 284/220/204 268/203/188
f 270/205/190 286/222/206 285/221/205 269/204/189
f 271/206/191 287/223/207 286/222/206 270/205/190
f 272/207/192 288/224/208 287/223/207 271/206/191
f 273/192/193 289/209/209 288/224/208 272/207/192
f 274/208/194 290/225/210 305/226/225 289/209/209
f 275/210/195 291/227/211 290/228/210 274/211/194
f 276/212/196 292/229/212 291/227/211 275/210/195
f 277/213/197 293/230/213 292/229/212 276/212/196
f 278/214/198 294/231/214 293/230/213 277/213/197
f 279/215/199 295/232/215 294/231/214 278/214/198
f 280/216/200 296/233/216 295/232/215 279/215/199
f 281/217/201 297/234/217 296/233/216 280/216/200
f 282/218/202 298/235/218 297/234/217 281/217/201
f 283/219/203 299/236/219 298/235/218 282/218/202
f 284/220/204 300/237/220 299/236/219 283/219/203
f 285/221/205 301/238/221 300/237/220 284/220/204
f 286/222/206 302/239/222 301/238/221 285/221/205
f 287/223/207 303/240/223 302/239/222 286/222/206
f 288/224/208 304/241/224 303/240/223 287/223/207
f 289/209/209 305/226/225 304/241/224 288/224/208
f 290/225/210 306/242/226 321/243/241 305/226/225
f 291/227/211 307/244/227 306/245/226 290/228/210
f 292/229/212 308/246/228 307/244/227 291/227/211
f 293/230/213 309/247/229 308/246/228 292/229/212
f 294/231/214 310/248/230 309/247/229 293/230/213
f 295/232/215 311/249/231 310/248/230 294/231/214
f 296/233/216 312/250/232 311/249/231 295/232/215
f 297/234/217 313/251/233 312/250/232 296/233/216
f 298/235/218 314/252/234 313/251/233 297/234/217
f 299/236/219 315/253/235 314/252/234 298/235/218
f 300/237/220 316/254/236 315/253/235 299/236/219
f 301/238/221 317/255/237 316/254/236 300/237/220
f 302/239/222 318/256/238 317/255/237 301/238/221
f 303/240/223 319/257/239 318/256/238 302/239/222
f 304/241/224 320/258/240 319/257/239 303/240/223
f 305/226/225 321/243/241 320/258/240 304/241/224
f 306/242/226 322/259/242 337/260/257 321/243/241
f 307/244/227 323/261/243 322/262/242 306/245/226
f 308/246/228 324/263/244 323/261/243 307/244/227
f 309/247/229 325/264/245 324/263/244 308/246/228
f 310/248/230 326/265/246 325/264/245 309/247/229
f 311/249/231 327/266/247 326/265/246 310/248/230
f 312/250/232 328/267/248 327/266/247 311/249/231
f 313/251/233 329/268/249 328/267/248 312/250/232
f 314/252/234 330/269/250 329/268/249 313/251/233
f 315/253/235 331/270/251 330/269/250 314/252/234
f 316/254/236 332/271/252 331/270/251 315/253/235
f 317/255/237 333/272/253 332/271/252 316/254/236
f 318/256/238 334/273/254 333/272/253 317/255/237
f 319/257/239 335/274/255 334/273/254 318/256/238
f 320/258/240 336/275/256 335/274/255 319/257/239
f 321/243/241 337/260/257 336/275/256 320/258/240
f 322/259/242 338/276/258 353/277/273 337/260/257
f 323/261/243 339/278/259 338/279/258 322/262/242
f 324/263/244 340/280/260 339/278/259 323/261/243
f 325/264/245 341/281/261 340/280/260 324/263/244
f 326/265/246 342/282/262 341/281/261 325/264/245
f 327/266/247 343/283/263 342/282/262 326/265/246
f 328/267/248 344/284/264 343/283/263 327/266/247
f 329/268/249 345/285/265 344/284/264 328/267/248
f 330/269/250 346/286/266 345/285/265 329/268/249
f 331/270/251 347/287/267 346/286/266 330/269/250
f 332/271/252 348/288/268 347/287/267 331/270/251
f 333/272/253 349/289/269 348/288/268 332/271/252
f 334/273/254 350/290/270 349/289/269 333/272/253
f 335/274/255 351/291/271 350/290/270 334/273/254
f 336/275/256 352/292/272 351/291/271 335/274/255
f 337/260/257 353/277/273 352/292/272 336/275/256
f 338/276/258 354/293/274 369/294/289 353/277/273
f 339/278/259 355/295/275 354/296/274 338/279/258
f 340/280/260 356/297/276 355/295/275 339/278/259
f 341/281/261 357/298/277 356/297/276 340/280/260
f 342/282/262 358/299/278 357/298/277 341/281/261
f 343/283/263 359/300/279 358/299/278 342/282/262
f 344/284/264 360/301/280 359/300/279 343/283/263
f 345/285/265 361/302/281 360/301/280 344/284/264
f 346/286/266 362/303/282 361/302/281 345/285/265
f 347/287/267 363/304/283 362/303/282 346/286/266
f 348/288/268 364/305/284 363/304/283 347/287/267
f 349/289/269 365/306/285 364/305/284 348/288/268
f 350/290/270 366/307/286 365/306/285 349/289/269
f 351/291/271 367/308/287 366/307/286 350/290/270
f 352/292/272 368/309/288 367/308/287 351/291/271
f 353/277/273 369/294/289 368/309/288 352/292/272
f 354/293/274 370/310/290 385/311/305 369/294/289
f 355/295/275 371/312/291 370/313/290 354/296/274
f 356/297/276 372/314/292 371/312/291 355/295/275
f 357/298/277 373/315/293 372/314/292 356/297/276
f 358/299/278 374/316/294 373/315/293 357/298/277
f 359/300/279 375/317/295 374/316/294 358/299/278
f 360/301/280 376/318/296 375/317/295 359/300/279
f 361/302/281 377/319/297 376/318/296 360/301/280
f 362/303/282 378/320/298 377/319/297 361/302/281
f 363/304/283 379/321/299 378/320/298 362/303/282
f 364/305/284 380/322/300 379/321/299 363/304/283
f 365/306/285 381/323/301 380/322/300 364/305/284
f 366/307/286 382/324/302 381/323/301 365/306/285
f 367/308/287 383/325/303 382/324/302 366/307/286
f 368/309/288 384/326/304 383/325/303 367/308/287
f 369/294/289 385/311/305 384/326/304 368/309/288
f 370/310/290 386/327/306 401/328/321 385/311/305
f 371/312/291 387/329/307 386/330/306 370/313/290
f 372/314/292 388/331/308 387/329/307 371/312/291
f 373/315/293 389/332/309 388/331/308 372/314/292
f 374/316/294 390/333/310 389/332/309 373/315/293
f 375/317/295 391/334/311 390/333/310 374/316/294
f 376/318/296 392/335/312 391/334/311 375/317/295
f 377/319/297 393/336/313 392/335/312 376/318/296
f 378/320/298 394/337/314 393/336/313 377/319/297
f 379/321/299 395/338/315 394/337/314 378/320/298
f 380/322/300 396/339/316 395/338/315 379/321/299
f 381/323/301 397/340/317 396/339/316 380/322/300
f 382/324/302 398/341/318 397/340/317 381/323/301
f 383/325/303 399/342/319 398/341/318 382/324/302
f 384/326/304 400/343/320 399/342/319 383/325/303
f 385/311/305 401/328/321 400/343/320 384/326/304
f 386/327/306 402/344/322 417/345/337 401/328/321
f 387/329/307 403/346/323 402/347/322 386/330/306
f 388/331/308 404/348/324 403/346/323 387/329/307
f 389/332/309 405/349/325 404/348/324 388/331/308
f 390/333/310 406/350/326 405/349/325 389/332/309
f 391/334/311 407/351/327 406/350/326 390/333/310
f 392/335/312 408/352/328 407/351/327 391/334/311
f 393/336/313 409/353/329 408/352/328 392/335/312
f 394/337/314 410/354/330 409/353/329 393/336/313
f 395/338/315 411/355/331 410/354/330 394/337/314
f 396/339/316 412/356/332 411/355/331 395/338/315
f 397/340/317 413/357/333 412/356/332 396/339/316
f 398/341/318 414/358/334 413/357/333 397/340/317
f 399/342/319 415/359/335 414/358/334 398/341/318
f 400/343/320 416/360/336 415/359/335 399/342/319
f 401/328/321 417/345/337 416/360/336 400/343/320
f 402/344/322 418/361/338 433/362/353 417/345/337
f 403/346/323 419/363/339 418/364/338 402/347/322
f 404/348/324 420/365/340 419/363/339 403/346/323
f 405/349/325 421/366/341 420/365/340 404/348/324
f 406/350/326 422/367/342 421/366/341 405/349/325
f 407/351/327 423/368/343 422/367/342 406/350/326
f 408/352/328 424/369/344 423/368/343 407/351/327
f 409/353/329 425/370/345 424/369/344 408/352/328
f 410/354/330 426/371/346 425/370/345 409/353/329
f 411/355/331 427/372/347 426/371/346 410/354/330
f 412/356/332 428/373/348 427/372/347 411/355/331
f 413/357/333 429/374/349 428/373/348 412/356/332
f 414/358/334 430/375/350 429/374/349 413/357/333
f 415/359/335 431/376/351 430/375/350 414/358/334
f 416/360/336 432/377/352 431/376/351 415/359/335
f 417/345/337 433/362/353 432/377/352 416/360/336
f 418/361/338 434/378/354 449/379/369 433/362/353
f 419/363/339 435/380/355 434/381/354 418/364/338
f 420/365/340 436/382/356 435/380/355 419/363/339
f 421/366/341 437/383/357 436/382/356 420/365/340
f 422/367/342 438/384/358 437/383/357 421/366/341
f 423/368/343 439/385/359 438/384/358 422/367/342
f 424/369/344 440/386/360 439/385/359 423/368/343
f 425/370/345 441/387/361 440/386/360 424/369/344
f 426/371/346 442/388/362 441/387/361 425/370/345
f 427/372/347 443/389/363 442/388/362 426/371/346
f 428/373/348 444/390/364 443/389/363 427/372/347
f 429/374/349 445/391/365 444/390/364 428/373/348
f 430/375/350 446/392/366 445/391/365 429/374/349
f 431/376/351 447/393/367 446/392/366 430/375/350
f 432/377/352 448/394/368 447/393/367 431/376/351
f 433/362/353 449/379/369 448/394/368 432/377/352
f 434/378/354 450/395/370 465/396/385 449/379/369
f 435/380/355 451/397/371 450/398/370 434/381/354
f 436/382/356 452/399/372 451/397/371 435/380/355
f 437/383/357 453/400/373 452/399/372 436/382/356
f 438/384/358 454/401/374 453/400/373 437/383/357
f 439/385/359 455/402/375 454/401/374 438/384/358
f 440/386/360 456/403/376 455/402/375 439/385/359
f 441/387/361 457/404/377 456/403/376 440/386/360
f 442/388/362 458/108/378 457/404/377 441/387/361
f 443/389/363 459/136/379 458/108/378 442/388/362
f 444/390/364 460/405/380 459/136/379 443/389/363
f 445/391/365 461/130/381 460/405/380 444/390/364
f 446/392/366 462/406/382 461/130/381 445/391/365
f 447/393/367 463/143/383 462/406/382 446/392/366
f 448/394/368 464/141/384 463/143/383 447/393/367
f 449/379/369 465/396/385 464/141/384 448/394/368
f 466/162/386 482/163/402 497/164/417 481/165/401
f 467/166/387 483/167/403 482/168/402 466/169/386
f 468/170/388 484/171/404 483/167/403 467/166/387
f 469/172/389 485/173/405 484/171/404 468/170/388
f 470/174/390 486/175/406 485/173/405 469/172/389
f 471/176/391 487/177/407 486/175/406 470/174/390
f 472/178/392 488/179/408 487/177/407 471/176/391
f 473/180/393 489/181/409 488/179/408 472/178/392
f 474/46/394 490/182/410 489/181/409 473/180/393
f 475/129/395 491/183/411 490/182/410 474/46/394
f 476/184/396 492/185/412 491/183/411 475/129/395
f 477/127/397 493/186/413 492/185/412 476/184/396
f 478/187/398 494/188/414 493/186/413 477/127/397
f 479/125/399 495/189/415 494/188/414 478/187/398
f 480/124/400 496/190/416 495/189/415 479/125/399
f 481/165/401 497/164/417 496/190/416 480/124/400
f 482/163/402 498/191/418 513/192/433 497/164/417
f 483/167/403 499/193/419 498/194/418 482/168/402
f 484/171/404 500/195/420 499/193/419 483/167/403
f 485/173/405 501/196/421 500/195/420 484/171/404
f 486/175/406 502/197/422 501/196/421 485/173/405
f 487/177/407 503/198/423 502/197/422 486/175/406
f 488/179/408 504/199/424 503/198/423 487/177/407
f 489/181/409 505/200/425 504/199/424 488/179/408
f 490/182/410 506/201/426 505/200/425 489/181/409
f 491/183/411 507/202/427 506/201/426 490/182/410
f 492/185/412 508/203/428 507/202/427 491/183/411
f 493/186/413 509/204/429 508/203/428 492/185/412
f 494/188/414 510/205/430 509/204/429 493/186/413
f 495/189/415 511/206/431 510/205/430 494/188/414
f 496/190/416 512/207/432 511/206/431 495/189/415
f 497/164/417 513/192/433 512/207/432 496/190/416
f 498/191/418 514/208/434 529/209/449 513/192/433
f 499/193/419 515/210/435 514/211/434 498/194/418
f 500/195/420 516/212/436 515/210/435 499/193/419
f 501/196/421 517/213/437 516/212/436 500/195/420
f 502/197/422 518/214/438 517/213/437 501/196/421
f 503/198/423 519/215/439 518/214/438 502/197/422
f 504/199/424 520/216/440 519/215/439 503/198/423
f 505/200/425 521/217/441 520/216/440 504/199/424
f 506/201/426 522/218/442 521/217/441 505/200/425
f 507/202/427 523/219/443 522/218/442 506/201/426
f 508/203/428 524/220/444 523/219/443 507/202/427
f 509/204/429 525/221/445 524/220/444 508/203/428
f 510/205/430 526/222/446 525/221/445 509/204/429
f 511/206/431 527/223/447 526/222/446 510/205/430
f 512/207/432 528/224/448 527/223/447 511/206/431
f 513/192/433 529/209/449 528/224/448 512/207/432
f 514/208/434 530/225/450 545/226/465 529/209/449
f 515/210/435 531/227/451 530/228/450 514/211/434
f 516/212/436 532/229/452 531/227/451 515/210/435
f 517/213/437 533/230/453 532/229/452 516/212/436
f 518/214/438 534/231/454 533/230/453 517/213/437
f 519/215/439 535/232/455 534/231/454 518/214/438
f 520/216/440 536/233/456 535/232/455 519/215/439
f 521/217/441 537/234/457 536/233/456 520/216/440
f 522/218/442 538/235/458 537/234/457 521/217/441
f 523/219/443 539/236/459 538/235/458 522/218/442
f 524/220/444 540/237/460 539/236/459 523/219/443
f 525/221/445 541/238/461 540/237/460 524/220/444
f 526/222/446 542/239/462 541/238/461 525/221/445
f 527/223/447 543/240/463 542/239/462 526/222/446
f 528/224/448 544/241/464 543/240/463 527/223/447
f 529/209/449 545/226/465 544/241/464 528/224/448
f 530/225/450 546/242/466 561/243/481 545/226/465
f 531/227/451 547/244/467 546/245/466 530/228/450
f 532/229/452 548/246/468 547/244/467 531/227/451
f 533/230/453 549/247/469 548/246/468 532/229/452
f 534/231/454 550/248/470 549/247/469 533/230/453
f 535/232/455 551/249/471 550/248/470 534/231/454
f 536/233/456 552/250/472 551/249/471 535/232/455
f 537/234/457 553/251/473 552/250/472 536/233/456
f 538/235/458 554/252/474 553/251/473 537/234/457
f 539/236/459 555/253/475 554/252/474 538/235/458
f 540/237/460 556/254/476 555/253/475 539/236/459
f 541/238/461 557/255/477 556/254/476 540/237/460
f 542/239/462 558/256/478 557/255/477 541/238/461
f 543/240/463 559/257/479 558/256/478 542/239/462
f 544/241/464 560/258/480 559/257/479 543/240/463
f 545/226/465 561/243/481 560/258/480 544/241/464
f 546/242/466 562/259/482 577/260/497 561/243/481
f 547/244/467 563/261/483 562/262/482 546/245/466
f 548/246/468 564/263/484 563/261/483 547/244/467
f 549/247/469 565/264/485 564/263/484 548/246/468
f 550/248/470 566/265/486 565/264/485 549/247/469
f 551/249/471 567/266/487 566/265/486 550/248/470
f 552/250/472 568/267/488 567/266/487 551/249/471
f 553/251/473 569/268/489 568/267/488 552/250/472
f 554/252/474 570/269/490 569/268/489 553/251/473
f 555/253/475 571/270/491 570/269/490 554/252/474
f 556/254/476 572/271/492 571/270/491 555/253/475
f 557/255/477 573/272/493 572/271/492 556/254/476
f 558/256/478 574/273/494 573/272/493 557/255/477
f 559/257/479 575/274/495 574/273/494 558/256/478
f 560/258/480 576/275/496 575/274/495 559/257/479
f 561/243/481 577/260/497 576/275/496 560/258/480
f 562/259/482 578/276/498 593/277/513 577/260/497
f 563/261/483 579/278/499 578/279/498 562/262/482
f 564/263/484 580/280/500 579/278/499 563/261/483
f 565/264/485 581/281/501 580/280/500 564/263/484
f 566/265/486 582/282/502 581/281/501 565/264/485
f 567/266/487 583/283/503 582/282/502 566/265/486
f 568/267/488 584/284/504 583/283/503 567/266/487
f 569/268/489 585/285/505 584/284/504 568/267/488
f 570/269/490 586/286/506 585/285/505 569/268/489
f 571/270/491 587/287/507 586/286/506 570/269/490
f 572/271/492 588/288/508 587/287/507 571/270/491
f 573/272/493 589/289/509 588/288/508 572/271/492
f 574/273/494 590/290/510 589/289/509 573/272/493
f 575/274/495 591/291/511 590/290/510 574/273/494
f 576/275/496 592/292/512 591/291/511 575/274/495
f 577/260/497 593/277/513 592/292/512 576/275/496
f 578/276/498 594/293/514 609/294/529 593/277/513
f 579/278/499 595/295/515 594/296/514 578/279/498
f 580/280/500 596/297/516 595/295/515 579/278/499
f 581/281/501 597/298/517 596/297/516 580/280/500
f 582/282/502 598/299/518 597/298/517 581/281/501
f 583/283/503 599/300/519 598/299/518 582/282/502
f 584/284/504 600/301/520 599/300/519 583/283/503
f 585/285/505 601/302/521 600/301/520 584/284/504
f 586/286/506 602/303/522 601/302/521 585/285/505
f 587/287/507 603/304/523 602/303/522 586/286/506
f 588/288/508 604/305/524 603/304/523 587/287/507
f 589/289/509 605/306/525 604/305/524 588/288/508
f 590/290/510 606/307/526 605/306/525 589/289/509
f 591/291/511 607/308/527 606/307/526 590/290/510
f 592/292/512 608/309/528 607/308/527 591/291/511
f 593/277/513 609/294/529 608/309/528 592/292/512
f 594/293/514 610/310/530 625/311/545 609/294/529
f 595/295/515 611/312/531 610/313/530 594/296/514
f 596/297/516 612/314/532 611/312/531 595/295/515
f 597/298/517 613/315/533 612/314/532 596/297/516
f 598/299/518 614/316/534 613/315/533 597/298/517
f 599/300/519 615/317/535 614/316/534 598/299/518
f 600/301/520 616/318/536 615/317/535 599/300/519
f 601/302/521 617/319/537 616/318/536 600/301/520
f 602/303/522 618/320/538 617/319/537 601/302/521
f 603/304/523 619/321/539 618/320/538 602/303/522
f 604/305/524 620/322/540 619/321/539 603/304/523
f 605/306/525 621/323/541 620/322/540 604/305/524
f 606/307/526 622/324/542 621/323/541 605/306/525
f 607/308/527 623/325/543 622/324/542 606/307/526
f 608/309/528 624/326/544 623/325/543 607/308/527
f 609/294/529 625/311/545 624/326/544 608/309/528
f 610/310/530 626/327/546 641/328/561 625/311/545
f 611/312/531 627/329/547 626/330/546 610/313/530
f 612/314/532 628/331/548 627/329/547 611/312/531
f 613/315/533 629/332/549 628/331/548 612/314/532
f 614/316/534 630/333/550 629/332/549 613/315/533
f 615/317/535 631/334/551 630/333/550 614/316/534
f 616/318/536 632/335/552 631/334/551 615/317/535
f 617/319/537 633/336/553 632/335/552 616/318/536
f 618/320/538 634/337/554 633/336/553 617/319/537
f 619/321/539 635/338/555 634/337/554 618/320/538
f 620/322/540 636/339/556 635/338/555 619/321/539
f 621/323/541 637/340/557 636/339/556 620/322/540
f 622/324/542 638/341/558 637/340/557 621/323/541
f 623/325/543 639/342/559 638/341/558 622/324/542
f 624/326/544 640/343/560 639/342/559 623/325/543
f 625/311/545 641/328/561 640/343/560 624/326/544
f 626/327/546 642/344/562 657/345/577 641/328/561
f 627/329/547 643/346/563 642/347/562 626/330/546
f 628/331/548 644/348/564 643/346/563 627/329/547
f 629/332/549 645/349/565 644/348/564 628/331/548
f 630/333/550 646/350/566 645/349/565 629/332/549
f 631/334/551 647/351/567 646/350/566 630/333/550
f 632/335/552 648/352/568 647/351/567 631/334/551
f 633/336/553 649/353/569 648/352/568 632/335/552
f 634/337/554 650/354/570 649/353/569 633/336/553
f 635/338/555 651/355/571 650/354/570 634/337/554
f 636/339/556 652/356/572 651/355/571 635/338/555
f 637/340/557 653/357/573 652/356/572 636/339/556
f 638/341/558 654/358/574 653/357/573 637/340/557
f 639/342/559 655/359/575 654/358/574 638/341/558
f 640/343/560 656/360/576 655/359/575 639/342/559
f 641/328/561 657/345/577 656/360/576 640/343/560
f 642/344/562 658/361/578 673/362/593 657/345/577
f 643/346/563 659/363/579 658/364/578 642/347/562
f 644/348/564 660/365/580 659/363/579 643/346/563
f 645/349/565 661/366/581 660/365/580 644/348/564
f 646/350/566 662/367/582 661/366/581 645/349/565
f 647/351/567 663/368/583 662/367/582 646/350/566
f 648/352/568 664/369/584 663/368/583 647/351/567
f 649/353/569 665/370/585 664/369/584 648/352/568
f 650/354/570 666/371/586 665/370/585 649/353/569
f 651/355/571 667/372/587 666/371/586 650/354/570
f 652/356/572 668/373/588 667/372/587 651/355/571
f 653/357/573 669/374/589 668/373/588 652/356/572
f 654/358/574 670/375/590 669/374/589 653/357/573
f 655/359/575 671/376/591 670/375/590 654/358/574
f 656/360/576 672/377/592 671/376/591 655/359/575
f 657/345/577 673/362/593 672/377/592 656/360/576
f 658/361/578 674/378/594 689/379/609 673/362/593
f 659/363/579 675/380/595 674/381/594 658/364/578
f 660/365/580 676/382/596 675/380/595 659/363/579
f 661/366/581 677/383/597 676/382/596 660/365/580
f 662/367/582 678/384/598 677/383/597 661/366/581
f 663/368/583 679/385/599 678/384/598 662/367/582
f 664/369/584 680/386/600 679/385/599 663/368/583
f 665/370/585 681/387/601 680/386/600 664/369/584
f 666/371/586 682/388/602 681/387/601 665/370/585
f 667/372/587 683/389/603 682/388/602 666/371/586
f 668/373/588 684/390/604 683/389/603 667/372/587
f 669/374/589 685/391/605 684/390/604 668/373/588
f 670/375/590 686/392/606 685/391/605 669/374/589
f 671/376/591 687/393/607 686/392/606 670/375/590
f 672/377/592 688/394/608 687/393/607 671/376/591
f 673/362/593 689/379/609 688/394/608 672/377/592
f 674/378/594 690/395/610 705/396/625 689/379/609
f 675/380/595 691/397/611 690/398/610 674/381/594
f 676/382/596 692/399/612 691/397/611 675/380/595
f 677/383/597 693/400/613 692/399/612 676/382/596
f 678/384/598 694/401/614 693/400/613 677/383/597
f 679/385/599 695/402/615 694/401/614 678/384/598
f 680/386/600 696/403/616 695/402/615 679/385/599
f 681/387/601 697/404/617 696/403/616 680/386/600
f 682/388/602 698/108/618 697/404/617 681/387/601
f 683/389/603 699/136/619 698/108/618 682/388/602
f 684/390/604 700/405/620 699/136/619 683/389/603
f 685/391/605 701/130/621 700/405/620 684/390/604
f 686/392/606 702/406/622 701/130/621 685/391/605
f 687/393/607 703/143/623 702/406/622 686/392/606
f 688/394/608 704/141/624 703/143/623 687/393/607
f 689/379/609 705/396/625 704/141/624 688/394/608
o Spikes
v -0.488332 4.138600 -0.866204
v -0.647374 4.062976 -0.776542
v -0.713252 3.880400 -0.739402
v -0.647374 3.697824 -0.776542
v -0.488332 3.622199 -0.866204
v -0.329289 3.697824 -0.955866
v -0.263411 3.880400 -0.993005
v -0.329289 4.062976 -0.955866
v -0.741934 3.880400 -1.316044
v 0.000000 5.128601 0.994373
v 0.182576 5.052976 0.994373
v 0.258201 4.870400 0.994373
v 0.182576 4.687824 0.994373
v 0.000000 4.612200 0.994373
v -0.182576 4.687824 0.994372
v -0.258201 4.870400 0.994373
v -0.182576 5.052976 0.994372
v 0.000000 4.870400 1.510774
v -0.568204 6.698601 0.816040
v -0.418372 6.622976 0.920367
v -0.356309 6.440400 0.963581
v -0.418372 6.257825 0.920367
v -0.568204 6.182199 0.816040
v -0.718036 6.257825 0.711713
v -0.780099 6.440400 0.668499
v -0.718036 6.622976 0.711713
v -0.863286 6.440400 1.239829
v -0.282405 7.078601 -0.953428
v -0.457463 7.002975 -0.901575
v -0.529974 6.820400 -0.880098
v -0.457463 6.637824 -0.901575
v -0.282405 6.562200 -0.953428
v -0.107347 6.637824 -1.005280
v -0.034836 6.820400 -1.026757
v -0.107347 7.002975 -1.005280
v -0.429065 6.820400 -1.448566
v -0.964835 8.198601 0.240561
v -0.920666 8.122976 0.417713
v -0.902371 7.940400 0.491092
v -0.920666 7.757824 0.417713
v -0.964835 7.682199 0.240561
v -1.009004 7.757824 0.063408
v -1.027300 7.940400 -0.009971
v -1.009004 8.122976 0.063408
v -1.465898 7.940400 0.365490
v 0.420240 8.548601 -0.901208
v 0.254770 8.472977 -0.978367
v 0.186231 8.290401 -1.010328
v 0.254770 8.107824 -0.978367
v 0.420240 8.032200 -0.901208
v 0.585710 8.107824 -0.824048
v 0.654250 8.290401 -0.792087
v 0.585710 8.472977 -0.824048
v 0.638481 8.290401 -1.369226
v 0.956101 8.818602 0.273218
v 1.006266 8.742976 0.097669
v 1.027045 8.560400 0.024954
v 1.006266 8.377825 0.097669
v 0.956101 8.302200 0.273218
v 0.905936 8.377825 0.448766
v 0.885157 8.560400 0.521481
v 0.905936 8.742976 0.448766
v 1.452627 8.560400 0.415106
v 0.803090 2.588601 0.586365
v 0.910751 2.512976 0.438911
v 0.955346 2.330400 0.377833
v 0.910751 2.147824 0.438911
v 0.803090 2.072199 0.586365
v 0.695428 2.147824 0.733819
v 0.650833 2.330400 0.794897
v 0.695428 2.512976 0.733819
v 1.220154 2.330400 0.890878
v 0.034703 2.138601 -0.993767
v -0.147761 2.062976 -1.000139
v -0.223341 1.880400 -1.002778
v -0.147761 1.697824 -1.000139
v 0.034703 1.622199 -0.993767
v 0.217167 1.697824 -0.987395
v 0.292747 1.880400 -0.984756
v 0.217167 2.062976 -0.987395
v 0.052725 1.880400 -1.509854
v -0.991950 1.898601 -0.069364
v -1.004686 1.822976 0.112767
v -1.009962 1.640400 0.188208
v -1.004686 1.457824 0.112767
v -0.991950 1.382199 -0.069364
v -0.979215 1.457824 -0.251495
v -0.973939 1.640400 -0.326936
v -0.979215 1.822976 -0.251495
v -1.507094 1.640400 -0.105386
v 0.993010 3.698601 -0.052041
v 0.983455 3.622976 -0.234367
v 0.979497 3.440400 -0.309888
v 0.983455 3.257824 -0.234367
v 0.993010 3.182199 -0.052041
v 1.002565 3.257824 0.130284
v 1.006523 3.440400 0.205806
v 1.002565 3.622976 0.130284
v 1.508704 3.440400 -0.079068
vn -0.5086 0.8387 -0.1947
vn -0.9366 0.3474 0.0466
vn -0.9366 -0.3474 0.0466
vn -0.5086 -0.8387 -0.1947
vn 0.0967 -0.8387 -0.5359
vn 0.5247 -0.3474 -0.7772
vn 0.4911 -0.0000 0.8711
vn 0.5247 0.3474 -0.7772
vn 0.0967 0.8387 -0.5359
vn 0.3474 0.8387 0.4194
vn 0.8387 0.3474 0.4194
vn 0.8387 -0.3474 0.4194
vn 0.3474 -0.8387 0.4194
vn -0.3474 -0.8387 0.4194
vn -0.8387 -0.3474 0.4194
vn -0.0000 -0.0000 -1.0000
vn -0.8387 0.3474 0.4194
vn -0.3474 0.8387 0.4194
vn 0.0455 0.8387 0.5427
vn 0.4487 0.3474 0.8234
vn 0.4487 -0.3474 0.8234
vn 0.0455 -0.8387 0.5427
vn -0.5247 -0.8387 0.1456
vn -0.9279 -0.3474 -0.1351
vn 0.5714 -0.0000 -0.8207
vn -0.9279 0.3474 -0.1351
vn -0.5247 0.8387 0.1456
vn -0.4522 0.8387 -0.3034
vn -0.9233 0.3474 -0.1639
vn -0.9233 -0.3474 -0.1639
vn -0.4522 -0.8387 -0.3034
vn 0.2140 -0.8387 -0.5008
vn 0.6851 -0.3474 -0.6403
vn 0.2840 -0.0000 0.9588
vn 0.6851 0.3474 -0.6403
vn 0.2140 0.8387 -0.5008
vn -0.3229 0.8387 0.4385
vn -0.2040 0.3474 0.9153
vn -0.2040 -0.3474 0.9153
vn -0.3229 -0.8387 0.4385
vn -0.4909 -0.8387 -0.2356
vn -0.6098 -0.3474 -0.7124
vn 0.9703 -0.0000 -0.2419
vn -0.6098 0.3474 -0.7124
vn -0.4909 0.8387 -0.2356
vn -0.1376 0.8387 -0.5269
vn -0.5829 0.3474 -0.7345
vn -0.5829 -0.3474 -0.7345
vn -0.1376 -0.8387 -0.5269
vn 0.4921 -0.8387 -0.2332
vn 0.9374 -0.3474 -0.0256
vn -0.4226 -0.0000 0.9063
vn 0.9374 0.3474 -0.0256
vn 0.4921 0.8387 -0.2332
vn 0.4987 0.8387 -0.2188
vn 0.6337 0.3474 -0.6912
vn 0.6337 -0.3474 -0.6912
vn 0.4987 -0.8387 -0.2188
vn 0.3078 -0.8387 0.4493
vn 0.1728 -0.3474 0.9217
vn -0.9615 -0.0000 -0.2748
vn 0.1728 0.3474 0.9217
vn 0.3078 0.8387 0.4493
vn 0.5435 0.8387 -0.0333
vn 0.8333 0.3474 -0.4301
vn 0.8333 -0.3474 -0.4301
vn 0.5435 -0.8387 -0.0333
vn 0.1338 -0.8387 0.5279
vn -0.1559 -0.3474 0.9247
vn -0.8076 -0.0000 -0.5897
vn -0.1559 0.3474 0.9247
vn 0.1338 0.8387 0.5279
vn -0.3326 0.8387 -0.4312
vn -0.8236 0.3474 -0.4484
vn -0.8236 -0.3474 -0.4484
vn -0.3326 -0.8387 -0.4312
vn 0.3618 -0.8387 -0.4070
vn 0.8528 -0.3474 -0.3898
vn -0.0349 -0.0000 0.9994
vn 0.8528 0.3474 -0.3898
vn 0.3618 0.8387 -0.4070
vn -0.4426 0.8387 0.3173
vn -0.4768 0.3474 0.8074
vn -0.4768 -0.3474 0.8074
vn -0.4426 -0.8387 0.3173
vn -0.3941 -0.8387 -0.3758
vn -0.3598 -0.3474 -0.8659
vn 0.9976 -0.0000 0.0698
vn -0.3598 0.3474 -0.8659
vn -0.3941 0.8387 -0.3758
vn 0.4006 0.8387 -0.3689
vn 0.3749 0.3474 -0.8595
vn 0.3749 -0.3474 -0.8595
vn 0.4006 -0.8387 -0.3689
vn 0.4370 -0.8387 0.3250
vn 0.4627 -0.3474 0.8156
vn -0.9986 -0.0000 0.0523
vn 0.4627 0.3474 0.8156
vn 0.4370 0.8387 0.3250
vt 0.250000 0.490000
vt 0.250000 0.250000
vt 0.419706 0.419706
vt 0.490000 0.250000
vt 0.419706 0.080294
vt 0.250000 0.010000
vt 0.080294 0.080294
vt 0.010000 0.250000
vt 0.750000 0.490000
vt 0.919706 0.419706
vt 0.990000 0.250000
vt 0.919706 0.080294
vt 0.750000 0.010000
vt 0.580294 0.080294
vt 0.510000 0.250000
vt 0.580294 0.419706
vt 0.080294 0.419706
s 1
usemtl Spike
f 706/407/626 714/408/626 707/409/626
f 707/409/627 714/408/627 708/410/627
f 708/410/628 714/408/628 709/411/628
f 709/411/629 714/408/629 710/412/629
f 710/412/630 714/408/630 711/413/630
f 711/413/631 714/408/631 712/414/631
f 706/415/632 707/416/632 708/417/632 709/418/632 710/419/632 711/420/632 712/421/632 713/422/632
f 712/414/633 714/408/633 713/423/633
f 713/423/634 714/408/634 706/407/634
f 715/407/635 723/408/635 716/409/635
f 716/409/636 723/408/636 717/410/636
f 717/410/637 723/408/637 718/411/637
f 718/411/638 723/408/638 719/412/638
f 719/412/639 723/408/639 720/413/639
f 720/413/640 723/408/640 721/414/640
f 715/415/641 716/416/641 717/417/641 718/418/641 719/419/641 720/420/641 721/421/641 722/422/641
f 721/414/642 723/408/642 722/423/642
f 722/423/643 723/408/643 715/407/643
f 724/407/644 732/408/644 725/409/644
f 725/409/645 732/408/645 726/410/645
f 726/410/646 732/408/646 727/411/646
f 727/411/647 732/408/647 728/412/647
f 728/412/648 732/408/648 729/413/648
f 729/413/649 732/408/649 730/414/649
f 724/415/650 725/416/650 726/417/650 727/418/650 728/419/650 729/420/650 730/421/650 731/422/650
f 730/414/651 732/408/651 731/423/651
f 731/423/652 732/408/652 724/407/652
f 733/407/653 741/408/653 734/409/653
f 734/409/654 741/408/654 735/410/654
f 735/410/655 741/408/655 736/411/655
f 736/411/656 741/408/656 737/412/656
f 737/412/657 741/408/657 738/413/657
f 738/413/658 741/408/658 739/414/658
f 733/415/659 734/416/659 735/417/659 736/418/659 737/419/659 738/420/659 739/421/659 740/422/659
f 739/414/660 741/408/660 740/423/660
f 740/423/661 741/408/661 733/407/661
f 742/407/662 750/408/662 743/409/662
f 743/409/663 750/408/663 744/410/663
f 744/410/664 750/408/664 745/411/664
f 745/411/665 750/408/665 746/412/665
f 746/412/666 750/408/666 747/413/666
f 747/413/667 750/408/667 748/414/667
f 742/415/668 743/416/668 744/417/668 745/418/668 746/419/668 747/420/668 748/421/668 749/422/668
f 748/414/669 750/408/669 749/423/669
f 749/423/670 750/408/670 742/407/670
f 751/407/671 759/408/671 752/409/671
f 752/409/672 759/408/672 753/410/672
f 753/410/673 759/408/673 754/411/673
f 754/411/674 759/408/674 755/412/674
f 755/412/675 759/408/675 756/413/675
f 756/413/676 759/408/676 757/414/676
f 751/415/677 752/416/677 753/417/677 754/418/677 755/419/677 756/420/677 757/421/677 758/422/677
f 757/414/678 759/408/678 758/423/678
f 758/423/679 759/408/679 751/407/679
f 760/407/680 768/408/680 761/409/680
f 761/409/681 768/408/681 762/410/681
f 762/410/682 768/408/682 763/411/682
f 763/411/683 768/408/683 764/412/683
f 764/412/684 768/408/684 765/413/684
f 765/413/685 768/408/685 766/414/685
f 760/415/686 761/416/686 762/417/686 763/418/686 764/419/686 765/420/686 766/421/686 767/422/686
f 766/414/687 768/408/687 767/423/687
f 767/423/688 768/408/688 760/407/688
f 769/407/689 777/408/689 770/409/689
f 770/409/690 777/408/690 771/410/690
f 771/410/691 777/408/691 772/411/691
f 772/411/692 777/408/692 773/412/692
f 773/412/693 777/408/693 774/413/693
f 774/413/694 777/408/694 775/414/694
f 769/415/695 770/416/695 771/417/695 772/418/695 773/419/695 774/420/695 775/421/695 776/422/695
f 775/414/696 777/408/696 776/423/696
f 776/423/697 777/408/697 769/407/697
f 778/407/698 786/408/698 779/409/698
f 779/409/699 786/408/699 780/410/699
f 780/410/700 786/408/700 781/411/700
f 781/411/701 786/408/701 782/412/701
f 782/412/702 786/408/702 783/413/702
f 783/413/703 786/408/703 784/414/703
f 778/415/704 779/416/704 780/417/704 781/418/704 782/419/704 783/420/704 784/421/704 785/422/704
f 784/414/705 786/408/705 785/423/705
f 785/423/706 786/408/706 778/407/706
f 787/407/707 795/408/707 788/409/707
f 788/409/708 795/408/708 789/410/708
f 789/410/709 795/408/709 790/411/709
f 790/411/710 795/408/710 791/412/710
f 791/412/711 795/408/711 792/413/711
f 792/413/712 795/408/712 793/414/712
f 787/415/713 788/416/713 789/417/713 790/418/713 791/419/713 792/420/713 793/421/713 794/422/713
f 793/414/714 795/408/714 794/423/714
f 794/423/715 795/408/715 787/407/715
f 796/407/716 804/408/716 797/409/716
f 797/409/717 804/408/717 798/410/717
f 798/410/718 804/408/718 799/411/718
f 799/411/719 804/408/719 800/412/719
f 800/412/720 804/408/720 801/413/720
f 801/413/721 804/408/721 802/414/721
f 796/415/722 797/416/722 798/417/722 799/418/722 800/419/722 801/420/722 802/421/722 803/422/722
f 802/414/723 804/408/723 803/423/723
f 803/423/724 804/408/724 796/407/724
