# Blender 4.4.3
# www.blender.org
mtllib palm_tree.mtl
o Trunk
v 0.000000 3.949358 -0.090265
v 0.034419 3.949358 -0.083170
v 0.062532 3.949358 -0.063822
v 0.081489 3.949358 -0.035129
v 0.088441 3.949358 0.000000
v 0.081489 3.949358 0.035129
v 0.062532 3.949358 0.063822
v 0.034419 3.949358 0.083170
v -0.000000 3.949358 0.090265
v -0.034419 3.949358 0.083170
v -0.062532 3.949358 0.063822
v -0.081489 3.949358 0.035129
v -0.088441 3.949358 -0.000000
v -0.081489 3.949358 -0.035129
v -0.062532 3.949358 -0.063822
v -0.034419 3.949358 -0.083170
v 0.049126 3.682691 -0.126323
v 0.097630 3.690706 -0.116393
v 0.137247 3.697252 -0.089316
v 0.163962 3.701667 -0.049162
v 0.173759 3.703285 0.000000
v 0.163962 3.701667 0.049162
v 0.137247 3.697252 0.089316
v 0.097630 3.690706 0.116393
v 0.049126 3.682691 0.126323
v 0.000621 3.674676 0.116393
v -0.038996 3.668130 0.089316
v -0.065710 3.663716 0.049162
v -0.075507 3.662097 -0.000000
v -0.065710 3.663716 -0.049162
v -0.038996 3.668130 -0.089316
v 0.000621 3.674676 -0.116393
v 0.088159 3.416024 -0.155422
v 0.148149 3.423755 -0.143205
v 0.197148 3.430069 -0.109891
v 0.230189 3.434326 -0.060487
v 0.242306 3.435888 0.000000
v 0.230189 3.434326 0.060487
v 0.197148 3.430068 0.109891
v 0.148149 3.423755 0.143205
v 0.088159 3.416024 0.155422
v 0.028168 3.408294 0.143205
v -0.020831 3.401980 0.109891
v -0.053872 3.397722 0.060487
v -0.065989 3.396161 -0.000000
v -0.053872 3.397722 -0.060487
v -0.020831 3.401980 -0.109891
v 0.028168 3.408294 -0.143205
v 0.117872 3.149357 -0.178502
v 0.187027 3.155950 -0.164470
v 0.243511 3.161335 -0.126209
v 0.281600 3.164967 -0.069469
v 0.295568 3.166299 0.000000
v 0.281600 3.164967 0.069469
v 0.243511 3.161335 0.126209
v 0.187027 3.155950 0.164470
v 0.117872 3.149357 0.178502
v 0.048717 3.142764 0.164470
v -0.007767 3.137379 0.126209
v -0.045856 3.133747 0.069469
v -0.059824 3.132416 -0.000000
v -0.045856 3.133747 -0.069469
v -0.007767 3.137379 -0.126209
v 0.048717 3.142764 -0.164470
v 0.139019 2.882691 -0.196420
v 0.215303 2.887619 -0.180980
v 0.277609 2.891644 -0.138878
v 0.319623 2.894358 -0.076442
v 0.335031 2.895353 0.000000
v 0.319623 2.894358 0.076442
v 0.277609 2.891644 0.138878
v 0.215303 2.887619 0.180980
v 0.139019 2.882691 0.196420
v 0.062736 2.877764 0.180980
v 0.000430 2.873739 0.138878
v -0.041584 2.871025 0.076442
v -0.056992 2.870029 -0.000000
v -0.041584 2.871025 -0.076442
v 0.000430 2.873739 -0.138878
v 0.062736 2.877764 -0.180980
v 0.152331 2.616024 -0.209952
v 0.233985 2.619009 -0.193448
v 0.300678 2.621447 -0.148446
v 0.345651 2.623091 -0.081709
v 0.362143 2.623693 0.000000
v 0.345651 2.623091 0.081709
v 0.300678 2.621447 0.148446
v 0.233985 2.619009 0.193448
v 0.152331 2.616024 0.209952
v 0.070677 2.613039 0.193448
v 0.003984 2.610601 0.148446
v -0.040988 2.608958 0.081709
v -0.057481 2.608355 -0.000000
v -0.040988 2.608958 -0.081709
v 0.003984 2.610601 -0.148446
v 0.070677 2.613039 -0.193448
v 0.158518 2.349358 -0.219792
v 0.244050 2.350309 -0.202514
v 0.313911 2.351087 -0.155403
v 0.361020 2.351611 -0.085538
v 0.378296 2.351803 0.000000
v 0.361020 2.351611 0.085538
v 0.313911 2.351087 0.155403
v 0.244050 2.350309 0.202515
v 0.158518 2.349358 0.219792
v 0.072985 2.348406 0.202514
v 0.003124 2.347628 0.155403
v -0.043984 2.347104 0.085538
v -0.061261 2.346912 -0.000000
v -0.043984 2.347104 -0.085538
v 0.003124 2.347628 -0.155403
v 0.072985 2.348406 -0.202515
v 0.158267 2.082690 -0.226549
v 0.246429 2.081654 -0.208741
v 0.318437 2.080807 -0.160181
v 0.366993 2.080236 -0.088168
v 0.384800 2.080027 0.000000
v 0.366993 2.080236 0.088168
v 0.318437 2.080807 0.160181
v 0.246429 2.081654 0.208741
v 0.158267 2.082690 0.226549
v 0.070105 2.083727 0.208741
v -0.001903 2.084574 0.160181
v -0.050460 2.085145 0.088168
v -0.068267 2.085354 -0.000000
v -0.050460 2.085145 -0.088168
v -0.001903 2.084574 -0.160181
v 0.070105 2.083727 -0.208741
v 0.152245 1.816024 -0.230754
v 0.242003 1.813135 -0.212615
v 0.315314 1.810775 -0.163154
v 0.364750 1.809184 -0.089804
v 0.382879 1.808600 0.000000
v 0.364750 1.809184 0.089804
v 0.315314 1.810775 0.163154
v 0.242003 1.813135 0.212615
v 0.152245 1.816024 0.230754
v 0.062487 1.818913 0.212615
v -0.010824 1.821273 0.163154
v -0.060260 1.822864 0.089804
v -0.078389 1.823448 -0.000000
v -0.060260 1.822864 -0.089804
v -0.010824 1.821273 -0.163154
v 0.062487 1.818913 -0.212615
v 0.141098 1.549357 -0.232852
v 0.231605 1.544811 -0.214548
v 0.305528 1.541097 -0.164637
v 0.355376 1.538592 -0.090621
v 0.373656 1.537674 0.000000
v 0.355376 1.538592 0.090621
v 0.305528 1.541097 0.164637
v 0.231605 1.544810 0.214548
v 0.141098 1.549357 0.232852
v 0.050592 1.553904 0.214548
v -0.023332 1.557618 0.164637
v -0.073179 1.560122 0.090621
v -0.091460 1.561041 -0.000000
v -0.073179 1.560122 -0.090621
v -0.023331 1.557618 -0.164637
v 0.050592 1.553904 -0.214548
v 0.125449 1.282691 -0.233207
v 0.216011 1.276715 -0.214875
v 0.289979 1.271833 -0.164888
v 0.339858 1.268542 -0.090759
v 0.358150 1.267335 0.000000
v 0.339858 1.268542 0.090759
v 0.289979 1.271833 0.164888
v 0.216011 1.276715 0.214875
v 0.125449 1.282691 0.233207
v 0.034887 1.288667 0.214875
v -0.039081 1.293548 0.164888
v -0.088959 1.296840 0.090759
v -0.107251 1.298047 -0.000000
v -0.088959 1.296840 -0.090759
v -0.039081 1.293549 -0.164888
v 0.034887 1.288667 -0.214875
v 0.105901 1.016024 -0.232102
v 0.195945 1.008863 -0.213857
v 0.269491 1.003014 -0.164107
v 0.319084 0.999070 -0.090329
v 0.337272 0.997624 0.000000
v 0.319084 0.999070 0.090329
v 0.269491 1.003014 0.164107
v 0.195945 1.008863 0.213857
v 0.105901 1.016024 0.232102
v 0.015856 1.023185 0.213857
v -0.057690 1.029034 0.164107
v -0.107283 1.032978 0.090329
v -0.125471 1.034424 -0.000000
v -0.107283 1.032978 -0.090329
v -0.057690 1.029034 -0.164107
v 0.015856 1.023185 -0.213857
v 0.083033 0.749358 -0.229736
v 0.172074 0.741261 -0.211677
v 0.244800 0.734649 -0.162434
v 0.293841 0.730190 -0.089408
v 0.311825 0.728554 0.000000
v 0.293841 0.730190 0.089408
v 0.244800 0.734649 0.162434
v 0.172074 0.741261 0.211677
v 0.083033 0.749358 0.229736
v -0.006008 0.757454 0.211677
v -0.078734 0.764066 0.162434
v -0.127774 0.768525 0.089408
v -0.145759 0.770161 -0.000000
v -0.127774 0.768525 -0.089408
v -0.078734 0.764066 -0.162434
v -0.006008 0.757454 -0.211677
v 0.057406 0.482691 -0.226227
v 0.145009 0.473907 -0.208444
v 0.216561 0.466733 -0.159953
v 0.264810 0.461895 -0.088043
v 0.282504 0.460121 0.000000
v 0.264810 0.461895 0.088043
v 0.216561 0.466733 0.159953
v 0.145009 0.473907 0.208444
v 0.057406 0.482691 0.226227
v -0.030198 0.491475 0.208444
v -0.101750 0.498649 0.159953
v -0.149999 0.503487 0.088043
v -0.167693 0.505261 -0.000000
v -0.149999 0.503487 -0.088043
v -0.101750 0.498649 -0.159953
v -0.030198 0.491475 -0.208444
v 0.029556 0.216024 -0.221611
v 0.115307 0.206794 -0.204191
v 0.185345 0.199256 -0.156689
v 0.232574 0.194172 -0.086246
v 0.249894 0.192308 0.000000
v 0.232574 0.194172 0.086246
v 0.185345 0.199256 0.156689
v 0.115307 0.206794 0.204191
v 0.029556 0.216024 0.221611
v -0.056195 0.225254 0.204191
v -0.126234 0.232792 0.156689
v -0.173462 0.237876 0.086246
v -0.190782 0.239740 -0.000000
v -0.173462 0.237876 -0.086246
v -0.126234 0.232792 -0.156689
v -0.056195 0.225254 -0.204191
v 0.000000 -0.050642 -0.215840
v 0.083465 -0.060108 -0.198873
v 0.151637 -0.067839 -0.152609
v 0.197606 -0.073053 -0.084000
v 0.214465 -0.074965 0.000000
v 0.197606 -0.073053 0.084000
v 0.151637 -0.067839 0.152609
v 0.083465 -0.060108 0.198873
v -0.000000 -0.050643 0.215840
v -0.083465 -0.041177 0.198873
v -0.151637 -0.033446 0.152609
v -0.197606 -0.028232 0.084000
v -0.214465 -0.026320 -0.000000
v -0.197606 -0.028232 -0.084000
v -0.151637 -0.033446 -0.152609
v -0.083465 -0.041177 -0.198873
v 0.052298 0.433783 -0.225381
v -0.034966 0.442648 -0.207664
v 0.139561 0.424917 -0.207664
v 0.210836 0.417676 -0.159355
v 0.258898 0.412793 -0.087713
v 0.276523 0.411002 0.000000
v 0.258897 0.412793 0.087713
v 0.210836 0.417676 0.159355
v 0.139561 0.424917 0.207664
v 0.052298 0.433782 0.225381
v -0.034966 0.442648 0.207664
v -0.106240 0.449889 0.159355
v -0.154302 0.454772 0.087713
v -0.171928 0.456563 -0.000000
v -0.154302 0.454772 -0.087713
v -0.106240 0.449889 -0.159355
v 0.101863 0.968939 -0.231684
v 0.011996 0.976266 -0.213472
v 0.191730 0.961613 -0.213472
v 0.265131 0.955630 -0.163812
v 0.314627 0.951595 -0.090166
v 0.332779 0.950115 0.000000
v 0.314627 0.951595 0.090166
v 0.265131 0.955630 0.163812
v 0.191730 0.961613 0.213472
v 0.101863 0.968939 0.231684
v 0.011996 0.976266 0.213472
v -0.061405 0.982249 0.163812
v -0.110901 0.986284 0.090166
v -0.129053 0.987764 -0.000000
v -0.110901 0.986284 -0.090166
v -0.061405 0.982249 -0.163812
v 0.138760 1.509511 -0.232905
v 0.048245 1.514271 -0.214597
v 0.229275 1.504750 -0.214597
v 0.303204 1.500862 -0.164674
v 0.353057 1.498240 -0.090641
v 0.371339 1.497278 0.000000
v 0.353057 1.498240 0.090641
v 0.303204 1.500862 0.164675
v 0.229275 1.504750 0.214597
v 0.138760 1.509511 0.232905
v 0.048245 1.514271 0.214597
v -0.025685 1.518160 0.164674
v -0.075537 1.520782 0.090641
v -0.093820 1.521743 -0.000000
v -0.075537 1.520782 -0.090641
v -0.025685 1.518160 -0.164675
v 0.157357 2.042392 -0.227185
v 0.068954 2.043709 -0.209326
v 0.245760 2.041076 -0.209326
v 0.317965 2.040000 -0.160630
v 0.366654 2.039275 -0.088415
v 0.384510 2.039009 0.000000
v 0.366654 2.039275 0.088415
v 0.317965 2.040000 0.160630
v 0.245760 2.041076 0.209326
v 0.157357 2.042392 0.227185
v 0.068954 2.043709 0.209326
v -0.003251 2.044785 0.160630
v -0.051941 2.045510 0.088415
v -0.069797 2.045775 -0.000000
v -0.051941 2.045510 -0.088415
v -0.003251 2.044785 -0.160630
v 0.153299 2.574287 -0.211492
v 0.071038 2.571620 -0.194867
v 0.235561 2.576953 -0.194867
v 0.302749 2.579131 -0.149535
v 0.348056 2.580600 -0.082308
v 0.364671 2.581138 0.000000
v 0.348056 2.580600 0.082308
v 0.302749 2.579131 0.149535
v 0.235561 2.576953 0.194867
v 0.153299 2.574287 0.211492
v 0.071038 2.571620 0.194867
v 0.003850 2.569442 0.149535
v -0.041457 2.567974 0.082308
v -0.058073 2.567435 -0.000000
v -0.041457 2.567974 -0.082308
v 0.003850 2.569442 -0.149535
v 0.120902 3.111146 -0.181069
v 0.050726 3.104791 -0.166836
v 0.191079 3.117500 -0.166836
v 0.248397 3.122691 -0.128024
v 0.287048 3.126190 -0.070468
v 0.301223 3.127474 0.000000
v 0.287048 3.126190 0.070468
v 0.248397 3.122691 0.128024
v 0.191079 3.117500 0.166836
v 0.120902 3.111146 0.181069
v 0.050726 3.104791 0.166836
v -0.006593 3.099601 0.128024
v -0.045244 3.096101 0.070468
v -0.059418 3.094818 -0.000000
v -0.045244 3.096101 -0.070468
v -0.006593 3.099601 -0.128024
v 0.055543 3.638847 -0.131107
v 0.005150 3.630879 -0.120801
v 0.105936 3.646815 -0.120801
v 0.147096 3.653323 -0.092699
v 0.174851 3.657712 -0.051024
v 0.185029 3.659321 0.000000
v 0.174851 3.657712 0.051024
v 0.147096 3.653323 0.092699
v 0.105936 3.646815 0.120801
v 0.055543 3.638847 0.131107
v 0.005150 3.630879 0.120801
v -0.036009 3.624371 0.092699
v -0.063764 3.619982 0.051024
v -0.073942 3.618373 -0.000000
v -0.063764 3.619982 -0.051024
v -0.036009 3.624371 -0.092699
v 0.011225 3.888427 -0.098504
v -0.026413 3.881175 -0.090761
v 0.048863 3.895679 -0.090761
v 0.079604 3.901602 -0.069647
v 0.100333 3.905596 -0.038336
v 0.107936 3.907061 0.000000
v 0.100333 3.905596 0.038336
v 0.079604 3.901602 0.069647
v 0.048863 3.895679 0.090761
v 0.011225 3.888427 0.098504
v -0.026413 3.881175 0.090761
v -0.057154 3.875252 0.069647
v -0.077884 3.871257 0.038336
v -0.085486 3.869792 -0.000000
v -0.077884 3.871257 -0.038336
v -0.057154 3.875252 -0.069647
vn -0.0362 0.1291 -0.9910
vn 0.3415 0.2212 -0.9135
vn 0.6481 0.3139 -0.6939
vn 0.8434 0.3853 -0.3744
vn 0.9108 0.4128 -0.0000
vn 0.8434 0.3853 0.3744
vn 0.6481 0.3139 0.6938
vn 0.3415 0.2212 0.9135
vn -0.0362 0.1291 0.9910
vn -0.4135 0.0542 0.9089
vn -0.7227 0.0026 0.6911
vn -0.9268 -0.0275 0.3745
vn -0.9993 -0.0375 -0.0000
vn -0.9268 -0.0275 -0.3745
vn -0.7227 0.0026 -0.6911
vn -0.4135 0.0542 -0.9089
vn -0.0177 0.1181 -0.9928
vn 0.3603 0.1797 -0.9154
vn 0.6744 0.2309 -0.7013
vn 0.8850 0.2653 -0.3827
vn 0.9607 0.2776 -0.0000
vn 0.8850 0.2653 0.3827
vn 0.6744 0.2309 0.7013
vn 0.3603 0.1797 0.9154
vn -0.0177 0.1181 0.9928
vn -0.3962 0.0564 0.9164
vn -0.7114 0.0050 0.7027
vn -0.9230 -0.0294 0.3838
vn -0.9991 -0.0419 -0.0000
vn -0.9230 -0.0294 -0.3838
vn -0.7114 0.0050 -0.7028
vn -0.3962 0.0564 -0.9164
vn -0.0101 0.0959 -0.9953
vn 0.3707 0.1442 -0.9175
vn 0.6871 0.1843 -0.7028
vn 0.8991 0.2112 -0.3835
vn 0.9753 0.2209 -0.0000
vn 0.8991 0.2112 0.3835
vn 0.6871 0.1843 0.7028
vn 0.3707 0.1442 0.9175
vn -0.0101 0.0959 0.9953
vn -0.3916 0.0475 0.9189
vn -0.7094 0.0072 0.7048
vn -0.9227 -0.0198 0.3849
vn -0.9996 -0.0296 -0.0000
vn -0.9227 -0.0198 -0.3849
vn -0.7094 0.0072 -0.7048
vn -0.3916 0.0475 -0.9189
vn -0.0058 0.0760 -0.9971
vn 0.3772 0.1119 -0.9194
vn 0.6955 0.1417 -0.7044
vn 0.9089 0.1617 -0.3844
vn 0.9856 0.1689 -0.0000
vn 0.9089 0.1617 0.3844
vn 0.6955 0.1417 0.7044
vn 0.3772 0.1119 0.9194
vn -0.0058 0.0760 0.9971
vn -0.3892 0.0401 0.9203
vn -0.7085 0.0102 0.7057
vn -0.9227 -0.0099 0.3853
vn -0.9999 -0.0171 -0.0000
vn -0.9227 -0.0099 -0.3853
vn -0.7085 0.0102 -0.7057
vn -0.3892 0.0401 -0.9203
vn -0.0020 0.0587 -0.9983
vn 0.3823 0.0830 -0.9203
vn 0.7016 0.1032 -0.7051
vn 0.9156 0.1168 -0.3847
vn 0.9926 0.1216 -0.0000
vn 0.9156 0.1168 0.3847
vn 0.7016 0.1032 0.7051
vn 0.3823 0.0830 0.9203
vn -0.0020 0.0587 0.9983
vn -0.3868 0.0343 0.9215
vn -0.7074 0.0140 0.7067
vn -0.9225 0.0004 0.3859
vn -1.0000 -0.0045 -0.0000
vn -0.9225 0.0004 -0.3859
vn -0.7074 0.0140 -0.7067
vn -0.3868 0.0343 -0.9215
vn -0.0002 0.0437 -0.9990
vn 0.3850 0.0575 -0.9211
vn 0.7051 0.0688 -0.7058
vn 0.9197 0.0765 -0.3852
vn 0.9969 0.0792 -0.0000
vn 0.9197 0.0765 0.3852
vn 0.7051 0.0688 0.7058
vn 0.3850 0.0575 0.9211
vn -0.0002 0.0437 0.9990
vn -0.3858 0.0300 0.9221
vn -0.7069 0.0186 0.7071
vn -0.9224 0.0109 0.3861
vn -1.0000 0.0082 -0.0000
vn -0.9224 0.0109 -0.3861
vn -0.7069 0.0186 -0.7071
vn -0.3858 0.0300 -0.9221
vn 0.0011 0.0311 -0.9995
vn 0.3867 0.0351 -0.9215
vn 0.7071 0.0385 -0.7061
vn 0.9219 0.0408 -0.3853
vn 0.9991 0.0416 -0.0000
vn 0.9219 0.0408 0.3853
vn 0.7071 0.0385 0.7061
vn 0.3867 0.0351 0.9215
vn 0.0011 0.0311 0.9995
vn -0.3849 0.0271 0.9226
vn -0.7064 0.0237 0.7075
vn -0.9221 0.0214 0.3863
vn -0.9998 0.0206 -0.0000
vn -0.9221 0.0214 -0.3863
vn -0.7064 0.0237 -0.7075
vn -0.3849 0.0271 -0.9226
vn 0.0015 0.0205 -0.9998
vn 0.3872 0.0158 -0.9219
vn 0.7077 0.0119 -0.7064
vn 0.9227 0.0093 -0.3855
vn 1.0000 0.0084 -0.0000
vn 0.9227 0.0093 0.3855
vn 0.7077 0.0119 0.7064
vn 0.3872 0.0158 0.9219
vn 0.0015 0.0205 0.9998
vn -0.3846 0.0252 0.9227
vn -0.7061 0.0291 0.7075
vn -0.9218 0.0318 0.3864
vn -0.9995 0.0327 -0.0000
vn -0.9218 0.0318 -0.3864
vn -0.7061 0.0291 -0.7075
vn -0.3846 0.0252 -0.9227
vn 0.0016 0.0118 -0.9999
vn 0.3871 -0.0007 -0.9220
vn 0.7076 -0.0111 -0.7065
vn 0.9225 -0.0181 -0.3856
vn 0.9998 -0.0206 -0.0000
vn 0.9225 -0.0181 0.3856
vn 0.7076 -0.0111 0.7065
vn 0.3871 -0.0007 0.9220
vn 0.0016 0.0118 0.9999
vn -0.3844 0.0243 0.9228
vn -0.7057 0.0347 0.7076
vn -0.9214 0.0417 0.3864
vn -0.9990 0.0442 -0.0000
vn -0.9214 0.0417 -0.3864
vn -0.7057 0.0347 -0.7076
vn -0.3844 0.0243 -0.9228
vn 0.0013 0.0045 -1.0000
vn 0.3866 -0.0148 -0.9221
vn 0.7069 -0.0310 -0.7066
vn 0.9217 -0.0418 -0.3856
vn 0.9990 -0.0457 -0.0000
vn 0.9217 -0.0418 0.3856
vn 0.7069 -0.0310 0.7066
vn 0.3866 -0.0148 0.9221
vn 0.0013 0.0045 1.0000
vn -0.3844 0.0239 0.9228
vn -0.7055 0.0401 0.7076
vn -0.9209 0.0509 0.3864
vn -0.9985 0.0548 -0.0000
vn -0.9209 0.0509 -0.3864
vn -0.7055 0.0401 -0.7076
vn -0.3844 0.0239 -0.9228
vn 0.0008 -0.0015 -1.0000
vn 0.3858 -0.0269 -0.9222
vn 0.7059 -0.0480 -0.7067
vn 0.9205 -0.0621 -0.3857
vn 0.9977 -0.0672 -0.0000
vn 0.9205 -0.0621 0.3857
vn 0.7059 -0.0480 0.7067
vn 0.3858 -0.0269 0.9222
vn 0.0008 -0.0015 1.0000
vn -0.3845 0.0240 0.9228
vn -0.7052 0.0451 0.7075
vn -0.9205 0.0593 0.3863
vn -0.9979 0.0644 -0.0000
vn -0.9205 0.0593 -0.3863
vn -0.7052 0.0451 -0.7075
vn -0.3845 0.0240 -0.9228
vn 0.0003 -0.0065 -1.0000
vn 0.3849 -0.0371 -0.9222
vn 0.7047 -0.0625 -0.7067
vn 0.9192 -0.0795 -0.3857
vn 0.9963 -0.0857 -0.0000
vn 0.9192 -0.0795 0.3857
vn 0.7047 -0.0625 0.7067
vn 0.3849 -0.0371 0.9222
vn 0.0003 -0.0065 1.0000
vn -0.3846 0.0241 0.9228
vn -0.7050 0.0495 0.7075
vn -0.9200 0.0666 0.3863
vn -0.9974 0.0727 -0.0000
vn -0.9200 0.0666 -0.3863
vn -0.7050 0.0495 -0.7075
vn -0.3846 0.0241 -0.9228
vn -0.0004 -0.0110 -0.9999
vn 0.3839 -0.0459 -0.9222
vn 0.7035 -0.0749 -0.7068
vn 0.9178 -0.0944 -0.3858
vn 0.9948 -0.1014 -0.0000
vn 0.9178 -0.0944 0.3858
vn 0.7035 -0.0749 0.7068
vn 0.3839 -0.0459 0.9222
vn -0.0004 -0.0110 0.9999
vn -0.3849 0.0239 0.9227
vn -0.7049 0.0530 0.7074
vn -0.9196 0.0725 0.3862
vn -0.9968 0.0795 -0.0000
vn -0.9196 0.0725 -0.3862
vn -0.7049 0.0530 -0.7074
vn -0.3849 0.0239 -0.9227
vn -0.0010 -0.0151 -0.9999
vn 0.3830 -0.0536 -0.9222
vn 0.7023 -0.0856 -0.7068
vn 0.9164 -0.1070 -0.3858
vn 0.9934 -0.1147 -0.0000
vn 0.9164 -0.1070 0.3858
vn 0.7023 -0.0856 0.7068
vn 0.3830 -0.0536 0.9222
vn -0.0010 -0.0151 0.9999
vn -0.3851 0.0233 0.9226
vn -0.7048 0.0554 0.7073
vn -0.9192 0.0768 0.3861
vn -0.9964 0.0846 -0.0000
vn -0.9192 0.0768 -0.3861
vn -0.7048 0.0554 -0.7073
vn -0.3851 0.0233 -0.9226
vn -0.0017 -0.0193 -0.9998
vn 0.3820 -0.0605 -0.9222
vn 0.7010 -0.0948 -0.7068
vn 0.9150 -0.1179 -0.3858
vn 0.9920 -0.1261 -0.0000
vn 0.9150 -0.1179 0.3858
vn 0.7010 -0.0948 0.7068
vn 0.3820 -0.0605 0.9222
vn -0.0017 -0.0193 0.9998
vn -0.3855 0.0220 0.9225
vn -0.7048 0.0563 0.7072
vn -0.9191 0.0794 0.3861
vn -0.9962 0.0876 -0.0000
vn -0.9191 0.0794 -0.3861
vn -0.7048 0.0563 -0.7072
vn -0.3855 0.0220 -0.9225
vn -0.0020 -0.0214 -0.9998
vn 0.3815 -0.0639 -0.9222
vn 0.7004 -0.0992 -0.7068
vn 0.9144 -0.1229 -0.3858
vn 0.9913 -0.1314 -0.0000
vn 0.9144 -0.1229 0.3858
vn 0.7004 -0.0992 0.7068
vn 0.3815 -0.0639 0.9222
vn -0.0020 -0.0214 0.9998
vn -0.3857 0.0211 0.9224
vn -0.7049 0.0564 0.7071
vn -0.9190 0.0801 0.3860
vn -0.9961 0.0887 -0.0000
vn -0.9190 0.0801 -0.3860
vn -0.7049 0.0564 -0.7071
vn -0.3857 0.0211 -0.9224
vn -0.0018 -0.0171 -0.9999
vn -0.3856 0.0229 -0.9224
vn 0.3821 -0.0572 -0.9224
vn 0.7014 -0.0905 -0.7070
vn 0.9156 -0.1128 -0.3859
vn 0.9927 -0.1209 -0.0000
vn 0.9156 -0.1128 0.3859
vn 0.7014 -0.0905 0.7070
vn 0.3821 -0.0572 0.9224
vn -0.0018 -0.0171 0.9999
vn -0.3856 0.0229 0.9224
vn -0.7050 0.0562 0.7070
vn -0.9192 0.0786 0.3860
vn -0.9962 0.0866 -0.0000
vn -0.9192 0.0786 -0.3860
vn -0.7050 0.0562 -0.7070
vn -0.0007 -0.0088 -1.0000
vn -0.3853 0.0241 -0.9225
vn 0.3838 -0.0418 -0.9225
vn 0.7038 -0.0692 -0.7071
vn 0.9183 -0.0875 -0.3860
vn 0.9956 -0.0942 -0.0000
vn 0.9183 -0.0875 0.3860
vn 0.7038 -0.0692 0.7071
vn 0.3838 -0.0418 0.9225
vn -0.0007 -0.0088 1.0000
vn -0.3853 0.0241 0.9225
vn -0.7052 0.0516 0.7071
vn -0.9198 0.0699 0.3860
vn -0.9971 0.0766 -0.0000
vn -0.9198 0.0699 -0.3860
vn -0.7052 0.0516 -0.7071
vn 0.0001 0.0013 -1.0000
vn -0.3853 0.0239 -0.9225
vn 0.3854 -0.0213 -0.9225
vn 0.7060 -0.0401 -0.7071
vn 0.9210 -0.0527 -0.3860
vn 0.9984 -0.0573 -0.0000
vn 0.9210 -0.0527 0.3860
vn 0.7060 -0.0401 0.7071
vn 0.3854 -0.0213 0.9225
vn 0.0001 0.0013 1.0000
vn -0.3853 0.0239 0.9225
vn -0.7058 0.0428 0.7071
vn -0.9208 0.0554 0.3860
vn -0.9982 0.0599 -0.0000
vn -0.9208 0.0554 -0.3860
vn -0.7058 0.0428 -0.7071
vn 0.0003 0.0158 -0.9999
vn -0.3856 0.0246 -0.9224
vn 0.3862 0.0069 -0.9224
vn 0.7072 -0.0004 -0.7070
vn 0.9225 -0.0053 -0.3860
vn 1.0000 -0.0071 -0.0000
vn 0.9225 -0.0053 0.3860
vn 0.7072 -0.0004 0.7070
vn 0.3862 0.0069 0.9224
vn 0.0003 0.0158 0.9999
vn -0.3856 0.0246 0.9224
vn -0.7065 0.0319 0.7070
vn -0.9218 0.0368 0.3859
vn -0.9993 0.0386 -0.0000
vn -0.9218 0.0368 -0.3859
vn -0.7065 0.0319 -0.7070
vn -0.0010 0.0369 -0.9993
vn -0.3867 0.0282 -0.9218
vn 0.3847 0.0455 -0.9219
vn 0.7056 0.0527 -0.7067
vn 0.9208 0.0576 -0.3858
vn 0.9982 0.0593 -0.0000
vn 0.9208 0.0576 0.3858
vn 0.7056 0.0527 0.7067
vn 0.3847 0.0455 0.9219
vn -0.0010 0.0369 0.9993
vn -0.3867 0.0282 0.9218
vn -0.7074 0.0210 0.7065
vn -0.9225 0.0162 0.3856
vn -0.9999 0.0144 -0.0000
vn -0.9225 0.0162 -0.3856
vn -0.7074 0.0210 -0.7065
vn -0.0056 0.0666 -0.9978
vn -0.3896 0.0367 -0.9203
vn 0.3784 0.0965 -0.9206
vn 0.6980 0.1214 -0.7057
vn 0.9124 0.1382 -0.3853
vn 0.9896 0.1442 -0.0000
vn 0.9124 0.1382 0.3853
vn 0.6980 0.1214 0.7057
vn 0.3784 0.0965 0.9206
vn -0.0056 0.0666 0.9978
vn -0.3896 0.0367 0.9203
vn -0.7088 0.0118 0.7053
vn -0.9229 -0.0048 0.3849
vn -0.9999 -0.0109 -0.0000
vn -0.9229 -0.0048 -0.3849
vn -0.7088 0.0118 -0.7053
vn -0.0161 0.1061 -0.9942
vn -0.3959 0.0513 -0.9169
vn 0.3639 0.1610 -0.9174
vn 0.6801 0.2067 -0.7033
vn 0.8923 0.2374 -0.3840
vn 0.9687 0.2484 -0.0000
vn 0.8923 0.2374 0.3840
vn 0.6801 0.2067 0.7033
vn 0.3639 0.1610 0.9174
vn -0.0161 0.1061 0.9942
vn -0.3959 0.0513 0.9169
vn -0.7116 0.0057 0.7026
vn -0.9232 -0.0248 0.3835
vn -0.9994 -0.0359 -0.0000
vn -0.9232 -0.0248 -0.3835
vn -0.7116 0.0057 -0.7026
vn -0.0187 0.1318 -0.9911
vn -0.3991 0.0591 -0.9150
vn 0.3585 0.2126 -0.9090
vn 0.6646 0.2866 -0.6900
vn 0.8633 0.3399 -0.3731
vn 0.9331 0.3595 -0.0000
vn 0.8633 0.3399 0.3731
vn 0.6646 0.2866 0.6900
vn 0.3585 0.2126 0.9090
vn -0.0187 0.1318 0.9911
vn -0.3991 0.0591 0.9150
vn -0.7143 0.0038 0.6998
vn -0.9241 -0.0308 0.3810
vn -0.9991 -0.0429 -0.0000
vn -0.9241 -0.0308 -0.3810
vn -0.7143 0.0038 -0.6998
vt 0.015233 1.000000
vt 0.066667 1.000000
vt 0.066667 0.937500
vt 0.015233 0.937500
vt 0.015233 0.062500
vt 0.066667 0.062500
vt 0.066667 0.000000
vt 0.015233 0.000000
vt 0.015233 0.125000
vt 0.066667 0.125000
vt 0.015233 0.187500
vt 0.066667 0.187500
vt 0.015233 0.250000
vt 0.066667 0.250000
vt 0.015233 0.312500
vt 0.066667 0.312500
vt 0.015233 0.375000
vt 0.066667 0.375000
vt 0.015233 0.437500
vt 0.066667 0.437500
vt 0.015233 0.500000
vt 0.066667 0.500000
vt 0.015233 0.562500
vt 0.066667 0.562500
vt 0.015233 0.625000
vt 0.066667 0.625000
vt 0.015233 0.687500
vt 0.066667 0.687500
vt 0.015233 0.750000
vt 0.066667 0.750000
vt 0.015233 0.812500
vt 0.066667 0.812500
vt 0.015233 0.875000
vt 0.066667 0.875000
vt 0.077628 1.000000
vt 0.133333 1.000000
vt 0.133333 0.937500
vt 0.077628 0.937500
vt 0.077628 0.062500
vt 0.133333 0.062500
vt 0.133333 0.000000
vt 0.077628 0.000000
vt 0.077628 0.125000
vt 0.133333 0.125000
vt 0.077628 0.187500
vt 0.133333 0.187500
vt 0.077628 0.250000
vt 0.133333 0.250000
vt 0.077628 0.312500
vt 0.133333 0.312500
vt 0.077628 0.375000
vt 0.133333 0.375000
vt 0.077628 0.437500
vt 0.133333 0.437500
vt 0.077628 0.500000
vt 0.133333 0.500000
vt 0.077628 0.562500
vt 0.133333 0.562500
vt 0.077628 0.625000
vt 0.133333 0.625000
vt 0.077628 0.687500
vt 0.133333 0.687500
vt 0.077628 0.750000
vt 0.133333 0.750000
vt 0.077628 0.812500
vt 0.133333 0.812500
vt 0.077628 0.875000
vt 0.133333 0.875000
vt 0.200000 1.000000
vt 0.200000 0.937500
vt 0.200000 0.062500
vt 0.200000 0.000000
vt 0.200000 0.125000
vt 0.200000 0.187500
vt 0.200000 0.250000
vt 0.200000 0.312500
vt 0.200000 0.375000
vt 0.200000 0.437500
vt 0.200000 0.500000
vt 0.200000 0.562500
vt 0.200000 0.625000
vt 0.200000 0.687500
vt 0.200000 0.750000
vt 0.200000 0.812500
vt 0.200000 0.875000
vt 0.209553 1.000000
vt 0.266667 1.000000
vt 0.266667 0.937500
vt 0.209553 0.937500
vt 0.209553 0.062500
vt 0.266667 0.062500
vt 0.266667 0.000000
vt 0.209553 0.000000
vt 0.209553 0.125000
vt 0.266667 0.125000
vt 0.209553 0.187500
vt 0.266667 0.187500
vt 0.209553 0.250000
vt 0.266667 0.250000
vt 0.209553 0.312500
vt 0.266667 0.312500
vt 0.209553 0.375000
vt 0.266667 0.375000
vt 0.209553 0.437500
vt 0.266667 0.437500
vt 0.209553 0.500000
vt 0.266667 0.500000
vt 0.209553 0.562500
vt 0.266667 0.562500
vt 0.209553 0.625000
vt 0.266667 0.625000
vt 0.209553 0.687500
vt 0.266667 0.687500
vt 0.209553 0.750000
vt 0.266667 0.750000
vt 0.209553 0.812500
vt 0.266667 0.812500
vt 0.209553 0.875000
vt 0.266667 0.875000
vt 0.333333 1.000000
vt 0.333333 0.937500
vt 0.333333 0.062500
vt 0.333333 0.000000
vt 0.333333 0.125000
vt 0.333333 0.187500
vt 0.333333 0.250000
vt 0.333333 0.312500
vt 0.333333 0.375000
vt 0.333333 0.437500
vt 0.333333 0.500000
vt 0.333333 0.562500
vt 0.333333 0.625000
vt 0.333333 0.687500
vt 0.333333 0.750000
vt 0.333333 0.812500
vt 0.333333 0.875000
vt 0.343768 1.000000
vt 0.400000 1.000000
vt 0.400000 0.937500
vt 0.343768 0.937500
vt 0.343768 0.062500
vt 0.400000 0.062500
vt 0.400000 0.000000
vt 0.343768 0.000000
vt 0.343768 0.125000
vt 0.400000 0.125000
vt 0.343768 0.187500
vt 0.400000 0.187500
vt 0.343768 0.250000
vt 0.400000 0.250000
vt 0.343768 0.312500
vt 0.400000 0.312500
vt 0.343768 0.375000
vt 0.400000 0.375000
vt 0.343768 0.437500
vt 0.400000 0.437500
vt 0.343768 0.500000
vt 0.400000 0.500000
vt 0.343768 0.562500
vt 0.400000 0.562500
vt 0.343768 0.625000
vt 0.400000 0.625000
vt 0.343768 0.687500
vt 0.400000 0.687500
vt 0.343768 0.750000
vt 0.400000 0.750000
vt 0.343768 0.812500
vt 0.400000 0.812500
vt 0.343768 0.875000
vt 0.400000 0.875000
vt 0.466667 1.000000
vt 0.466667 0.937500
vt 0.466667 0.062500
vt 0.466667 0.000000
vt 0.466667 0.125000
vt 0.466667 0.187500
vt 0.466667 0.250000
vt 0.466667 0.312500
vt 0.466667 0.375000
vt 0.466667 0.437500
vt 0.466667 0.500000
vt 0.466667 0.562500
vt 0.466667 0.625000
vt 0.466667 0.687500
vt 0.466667 0.750000
vt 0.466667 0.812500
vt 0.466667 0.875000
vt 0.476741 1.000000
vt 0.533333 1.000000
vt 0.533333 0.937500
vt 0.476741 0.937500
vt 0.476741 0.062500
vt 0.533333 0.062500
vt 0.533333 0.000000
vt 0.476741 0.000000
vt 0.476741 0.125000
vt 0.533333 0.125000
vt 0.476741 0.187500
vt 0.533333 0.187500
vt 0.476741 0.250000
vt 0.533333 0.250000
vt 0.476741 0.312500
vt 0.533333 0.312500
vt 0.476741 0.375000
vt 0.533333 0.375000
vt 0.476741 0.437500
vt 0.533333 0.437500
vt 0.476741 0.500000
vt 0.533333 0.500000
vt 0.476741 0.562500
vt 0.533333 0.562500
vt 0.476741 0.625000
vt 0.533333 0.625000
vt 0.476741 0.687500
vt 0.533333 0.687500
vt 0.476741 0.750000
vt 0.533333 0.750000
vt 0.476741 0.812500
vt 0.533333 0.812500
vt 0.476741 0.875000
vt 0.533333 0.875000
vt 0.600000 1.000000
vt 0.600000 0.937500
vt 0.600000 0.062500
vt 0.600000 0.000000
vt 0.600000 0.125000
vt 0.600000 0.187500
vt 0.600000 0.250000
vt 0.600000 0.312500
vt 0.600000 0.375000
vt 0.600000 0.437500
vt 0.600000 0.500000
vt 0.600000 0.562500
vt 0.600000 0.625000
vt 0.600000 0.687500
vt 0.600000 0.750000
vt 0.600000 0.812500
vt 0.600000 0.875000
vt 0.609962 1.000000
vt 0.666667 1.000000
vt 0.666667 0.937500
vt 0.609962 0.937500
vt 0.609962 0.062500
vt 0.666667 0.062500
vt 0.666667 0.000000
vt 0.609962 0.000000
vt 0.609962 0.125000
vt 0.666667 0.125000
vt 0.609962 0.187500
vt 0.666667 0.187500
vt 0.609962 0.250000
vt 0.666667 0.250000
vt 0.609962 0.312500
vt 0.666667 0.312500
vt 0.609962 0.375000
vt 0.666667 0.375000
vt 0.609962 0.437500
vt 0.666667 0.437500
vt 0.609962 0.500000
vt 0.666667 0.500000
vt 0.609962 0.562500
vt 0.666667 0.562500
vt 0.609962 0.625000
vt 0.666667 0.625000
vt 0.609962 0.687500
vt 0.666667 0.687500
vt 0.609962 0.750000
vt 0.666667 0.750000
vt 0.609962 0.812500
vt 0.666667 0.812500
vt 0.609962 0.875000
vt 0.666667 0.875000
vt 0.733333 1.000000
vt 0.733333 0.937500
vt 0.733333 0.062500
vt 0.733333 0.000000
vt 0.733333 0.125000
vt 0.733333 0.187500
vt 0.733333 0.250000
vt 0.733333 0.312500
vt 0.733333 0.375000
vt 0.733333 0.437500
vt 0.733333 0.500000
vt 0.733333 0.562500
vt 0.733333 0.625000
vt 0.733333 0.687500
vt 0.733333 0.750000
vt 0.733333 0.812500
vt 0.733333 0.875000
vt 0.745105 1.000000
vt 0.800000 1.000000
vt 0.800000 0.937500
vt 0.745105 0.937500
vt 0.745105 0.062500
vt 0.800000 0.062500
vt 0.800000 0.000000
vt 0.745105 0.000000
vt 0.745105 0.125000
vt 0.800000 0.125000
vt 0.745105 0.187500
vt 0.800000 0.187500
vt 0.745105 0.250000
vt 0.800000 0.250000
vt 0.745104 0.312500
vt 0.800000 0.312500
vt 0.745105 0.375000
vt 0.800000 0.375000
vt 0.745105 0.437500
vt 0.800000 0.437500
vt 0.745105 0.500000
vt 0.800000 0.500000
vt 0.745105 0.562500
vt 0.800000 0.562500
vt 0.745104 0.625000
vt 0.800000 0.625000
vt 0.745104 0.687500
vt 0.800000 0.687500
vt 0.745105 0.750000
vt 0.800000 0.750000
vt 0.745104 0.812500
vt 0.800000 0.812500
vt 0.745105 0.875000
vt 0.800000 0.875000
vt 0.866667 1.000000
vt 0.866667 0.937500
vt 0.866667 0.062500
vt 0.866667 0.000000
vt 0.866667 0.125000
vt 0.866667 0.187500
vt 0.866667 0.250000
vt 0.866667 0.312500
vt 0.866667 0.375000
vt 0.866667 0.437500
vt 0.866667 0.500000
vt 0.866667 0.562500
vt 0.866667 0.625000
vt 0.866667 0.687500
vt 0.866667 0.750000
vt 0.866667 0.812500
vt 0.866667 0.875000
vt 0.878894 1.000000
vt 0.933333 1.000000
vt 0.933333 0.937500
vt 0.878894 0.937500
vt 0.878894 0.062500
vt 0.933333 0.062500
vt 0.933333 0.000000
vt 0.878894 0.000000
vt 0.878894 0.125000
vt 0.933333 0.125000
vt 0.878894 0.187500
vt 0.933333 0.187500
vt 0.878894 0.250000
vt 0.933333 0.250000
vt 0.878894 0.312500
vt 0.933333 0.312500
vt 0.878894 0.375000
vt 0.933333 0.375000
vt 0.878894 0.437500
vt 0.933333 0.437500
vt 0.878894 0.500000
vt 0.933333 0.500000
vt 0.878894 0.562500
vt 0.933333 0.562500
vt 0.878894 0.625000
vt 0.933333 0.625000
vt 0.878894 0.687500
vt 0.933333 0.687500
vt 0.878894 0.750000
vt 0.933333 0.750000
vt 0.878894 0.812500
vt 0.933333 0.812500
vt 0.878894 0.875000
vt 0.933333 0.875000
vt 1.000000 1.000000
vt 1.000000 0.937500
vt 1.000000 0.062500
vt 1.000000 0.000000
vt 1.000000 0.125000
vt 1.000000 0.187500
vt 1.000000 0.250000
vt 1.000000 0.312500
vt 1.000000 0.375000
vt 1.000000 0.437500
vt 1.000000 0.500000
vt 1.000000 0.562500
vt 1.000000 0.625000
vt 1.000000 0.687500
vt 1.000000 0.750000
vt 1.000000 0.812500
vt 1.000000 0.875000
vt 0.000000 0.937500
vt 0.000000 0.875000
vt 0.000000 0.812500
vt 0.000000 0.750000
vt 0.000000 0.687500
vt 0.000000 0.625000
vt 0.000000 0.562500
vt 0.000000 0.500000
vt 0.000000 0.437500
vt 0.000000 0.375000
vt 0.000000 0.312500
vt 0.000000 0.250000
vt 0.000000 0.187500
vt 0.000000 0.125000
vt 0.000000 0.062500
vt 0.000000 0.000000
vt 0.000000 1.000000
s 1
usemtl Trunk
f 369/1/369 17/2/17 32/3/32 370/4/370
f 371/5/371 18/6/18 17/7/17 369/8/369
f 372/9/372 19/10/19 18/6/18 371/5/371
f 373/11/373 20/12/20 19/10/19 372/9/372
f 374/13/374 21/14/21 20/12/20 373/11/373
f 375/15/375 22/16/22 21/14/21 374/13/374
f 376/17/376 23/18/23 22/16/22 375/15/375
f 377/19/377 24/20/24 23/18/23 376/17/376
f 378/21/378 25/22/25 24/20/24 377/19/377
f 379/23/379 26/24/26 25/22/25 378/21/378
f 380/25/380 27/26/27 26/24/26 379/23/379
f 381/27/381 28/28/28 27/26/27 380/25/380
f 382/29/382 29/30/29 28/28/28 381/27/381
f 383/31/383 30/32/30 29/30/29 382/29/382
f 384/33/384 31/34/31 30/32/30 383/31/383
f 370/4/370 32/3/32 31/34/31 384/33/384
f 353/35/353 33/36/33 48/37/48 354/38/354
f 355/39/355 34/40/34 33/41/33 353/42/353
f 356/43/356 35/44/35 34/40/34 355/39/355
f 357/45/357 36/46/36 35/44/35 356/43/356
f 358/47/358 37/48/37 36/46/36 357/45/357
f 359/49/359 38/50/38 37/48/37 358/47/358
f 360/51/360 39/52/39 38/50/38 359/49/359
f 361/53/361 40/54/40 39/52/39 360/51/360
f 362/55/362 41/56/41 40/54/40 361/53/361
f 363/57/363 42/58/42 41/56/41 362/55/362
f 364/59/364 43/60/43 42/58/42 363/57/363
f 365/61/365 44/62/44 43/60/43 364/59/364
f 366/63/366 45/64/45 44/62/44 365/61/365
f 367/65/367 46/66/46 45/64/45 366/63/366
f 368/67/368 47/68/47 46/66/46 367/65/367
f 354/38/354 48/37/48 47/68/47 368/67/368
f 33/36/33 49/69/49 64/70/64 48/37/48
f 34/40/34 50/71/50 49/72/49 33/41/33
f 35/44/35 51/73/51 50/71/50 34/40/34
f 36/46/36 52/74/52 51/73/51 35/44/35
f 37/48/37 53/75/53 52/74/52 36/46/36
f 38/50/38 54/76/54 53/75/53 37/48/37
f 39/52/39 55/77/55 54/76/54 38/50/38
f 40/54/40 56/78/56 55/77/55 39/52/39
f 41/56/41 57/79/57 56/78/56 40/54/40
f 42/58/42 58/80/58 57/79/57 41/56/41
f 43/60/43 59/81/59 58/80/58 42/58/42
f 44/62/44 60/82/60 59/81/59 43/60/43
f 45/64/45 61/83/61 60/82/60 44/62/44
f 46/66/46 62/84/62 61/83/61 45/64/45
f 47/68/47 63/85/63 62/84/62 46/66/46
f 48/37/48 64/70/64 63/85/63 47/68/47
f 337/86/337 65/87/65 80/88/80 338/89/338
f 339/90/339 66/91/66 65/92/65 337/93/337
f 340/94/340 67/95/67 66/91/66 339/90/339
f 341/96/341 68/97/68 67/95/67 340/94/340
f 342/98/342 69/99/69 68/97/68 341/96/341
f 343/100/343 70/101/70 69/99/69 342/98/342
f 344/102/344 71/103/71 70/101/70 343/100/343
f 345/104/345 72/105/72 71/103/71 344/102/344
f 346/106/346 73/107/73 72/105/72 345/104/345
f 347/108/347 74/109/74 73/107/73 346/106/346
f 348/110/348 75/111/75 74/109/74 347/108/347
f 349/112/349 76/113/76 75/111/75 348/110/348
f 350/114/350 77/115/77 76/113/76 349/112/349
f 351/116/351 78/117/78 77/115/77 350/114/350
f 352/118/352 79/119/79 78/117/78 351/116/351
f 338/89/338 80/88/80 79/119/79 352/118/352
f 65/87/65 81/120/81 96/121/96 80/88/80
f 66/91/66 82/122/82 81/123/81 65/92/65
f 67/95/67 83/124/83 82/122/82 66/91/66
f 68/97/68 84/125/84 83/124/83 67/95/67
f 69/99/69 85/126/85 84/125/84 68/97/68
f 70/101/70 86/127/86 85/126/85 69/99/69
f 71/103/71 87/128/87 86/127/86 70/101/70
f 72/105/72 88/129/88 87/128/87 71/103/71
f 73/107/73 89/130/89 88/129/88 72/105/72
f 74/109/74 90/131/90 89/130/89 73/107/73
f 75/111/75 91/132/91 90/131/90 74/109/74
f 76/113/76 92/133/92 91/132/91 75/111/75
f 77/115/77 93/134/93 92/133/92 76/113/76
f 78/117/78 94/135/94 93/134/93 77/115/77
f 79/119/79 95/136/95 94/135/94 78/117/78
f 80/88/80 96/121/96 95/136/95 79/119/79
f 321/137/321 97/138/97 112/139/112 322/140/322
f 323/141/323 98/142/98 97/143/97 321/144/321
f 324/145/324 99/146/99 98/142/98 323/141/323
f 325/147/325 100/148/100 99/146/99 324/145/324
f 326/149/326 101/150/101 100/148/100 325/147/325
f 327/151/327 102/152/102 101/150/101 326/149/326
f 328/153/328 103/154/103 102/152/102 327/151/327
f 329/155/329 104/156/104 103/154/103 328/153/328
f 330/157/330 105/158/105 104/156/104 329/155/329
f 331/159/331 106/160/106 105/158/105 330/157/330
f 332/161/332 107/162/107 106/160/106 331/159/331
f 333/163/333 108/164/108 107/162/107 332/161/332
f 334/165/334 109/166/109 108/164/108 333/163/333
f 335/167/335 110/168/110 109/166/109 334/165/334
f 336/169/336 111/170/111 110/168/110 335/167/335
f 322/140/322 112/139/112 111/170/111 336/169/336
f 97/138/97 113/171/113 128/172/128 112/139/112
f 98/142/98 114/173/114 113/174/113 97/143/97
f 99/146/99 115/175/115 114/173/114 98/142/98
f 100/148/100 116/176/116 115/175/115 99/146/99
f 101/150/101 117/177/117 116/176/116 100/148/100
f 102/152/102 118/178/118 117/177/117 101/150/101
f 103/154/103 119/179/119 118/178/118 102/152/102
f 104/156/104 120/180/120 119/179/119 103/154/103
f 105/158/105 121/181/121 120/180/120 104/156/104
f 106/160/106 122/182/122 121/181/121 105/158/105
f 107/162/107 123/183/123 122/182/122 106/160/106
f 108/164/108 124/184/124 123/183/123 107/162/107
f 109/166/109 125/185/125 124/184/124 108/164/108
f 110/168/110 126/186/126 125/185/125 109/166/109
f 111/170/111 127/187/127 126/186/126 110/168/110
f 112/139/112 128/172/128 127/187/127 111/170/111
f 305/188/305 129/189/129 144/190/144 306/191/306
f 307/192/307 130/193/130 129/194/129 305/195/305
f 308/196/308 131/197/131 130/193/130 307/192/307
f 309/198/309 132/199/132 131/197/131 308/196/308
f 310/200/310 133/201/133 132/199/132 309/198/309
f 311/202/311 134/203/134 133/201/133 310/200/310
f 312/204/312 135/205/135 134/203/134 311/202/311
f 313/206/313 136/207/136 135/205/135 312/204/312
f 314/208/314 137/209/137 136/207/136 313/206/313
f 315/210/315 138/211/138 137/209/137 314/208/314
f 316/212/316 139/213/139 138/211/138 315/210/315
f 317/214/317 140/215/140 139/213/139 316/212/316
f 318/216/318 141/217/141 140/215/140 317/214/317
f 319/218/319 142/219/142 141/217/141 318/216/318
f 320/220/320 143/221/143 142/219/142 319/218/319
f 306/191/306 144/190/144 143/221/143 320/220/320
f 129/189/129 145/222/145 160/223/160 144/190/144
f 130/193/130 146/224/146 145/225/145 129/194/129
f 131/197/131 147/226/147 146/224/146 130/193/130
f 132/199/132 148/227/148 147/226/147 131/197/131
f 133/201/133 149/228/149 148/227/148 132/199/132
f 134/203/134 150/229/150 149/228/149 133/201/133
f 135/205/135 151/230/151 150/229/150 134/203/134
f 136/207/136 152/231/152 151/230/151 135/205/135
f 137/209/137 153/232/153 152/231/152 136/207/136
f 138/211/138 154/233/154 153/232/153 137/209/137
f 139/213/139 155/234/155 154/233/154 138/211/138
f 140/215/140 156/235/156 155/234/155 139/213/139
f 141/217/141 157/236/157 156/235/156 140/215/140
f 142/219/142 158/237/158 157/236/157 141/217/141
f 143/221/143 159/238/159 158/237/158 142/219/142
f 144/190/144 160/223/160 159/238/159 143/221/143
f 289/239/289 161/240/161 176/241/176 290/242/290
f 291/243/291 162/244/162 161/245/161 289/246/289
f 292/247/292 163/248/163 162/244/162 291/243/291
f 293/249/293 164/250/164 163/248/163 292/247/292
f 294/251/294 165/252/165 164/250/164 293/249/293
f 295/253/295 166/254/166 165/252/165 294/251/294
f 296/255/296 167/256/167 166/254/166 295/253/295
f 297/257/297 168/258/168 167/256/167 296/255/296
f 298/259/298 169/260/169 168/258/168 297/257/297
f 299/261/299 170/262/170 169/260/169 298/259/298
f 300/263/300 171/264/171 170/262/170 299/261/299
f 301/265/301 172/266/172 171/264/171 300/263/300
f 302/267/302 173/268/173 172/266/172 301/265/301
f 303/269/303 174/270/174 173/268/173 302/267/302
f 304/271/304 175/272/175 174/270/174 303/269/303
f 290/242/290 176/241/176 175/272/175 304/271/304
f 161/240/161 177/273/177 192/274/192 176/241/176
f 162/244/162 178/275/178 177/276/177 161/245/161
f 163/248/163 179/277/179 178/275/178 162/244/162
f 164/250/164 180/278/180 179/277/179 163/248/163
f 165/252/165 181/279/181 180/278/180 164/250/164
f 166/254/166 182/280/182 181/279/181 165/252/165
f 167/256/167 183/281/183 182/280/182 166/254/166
f 168/258/168 184/282/184 183/281/183 167/256/167
f 169/260/169 185/283/185 184/282/184 168/258/168
f 170/262/170 186/284/186 185/283/185 169/260/169
f 171/264/171 187/285/187 186/284/186 170/262/170
f 172/266/172 188/286/188 187/285/187 171/264/171
f 173/268/173 189/287/189 188/286/188 172/266/172
f 174/270/174 190/288/190 189/287/189 173/268/173
f 175/272/175 191/289/191 190/288/190 174/270/174
f 176/241/176 192/274/192 191/289/191 175/272/175
f 273/290/273 193/291/193 208/292/208 274/293/274
f 275/294/275 194/295/194 193/296/193 273/297/273
f 276/298/276 195/299/195 194/295/194 275/294/275
f 277/300/277 196/301/196 195/299/195 276/298/276
f 278/302/278 197/303/197 196/301/196 277/300/277
f 279/304/279 198/305/198 197/303/197 278/302/278
f 280/306/280 199/307/199 198/305/198 279/304/279
f 281/308/281 200/309/200 199/307/199 280/306/280
f 282/310/282 201/311/201 200/309/200 281/308/281
f 283/312/283 202/313/202 201/311/201 282/310/282
f 284/314/284 203/315/203 202/313/202 283/312/283
f 285/316/285 204/317/204 203/315/203 284/314/284
f 286/318/286 205/319/205 204/317/204 285/316/285
f 287/320/287 206/321/206 205/319/205 286/318/286
f 288/322/288 207/323/207 206/321/206 287/320/287
f 274/293/274 208/292/208 207/323/207 288/322/288
f 193/291/193 209/324/209 224/325/224 208/292/208
f 194/295/194 210/326/210 209/327/209 193/296/193
f 195/299/195 211/328/211 210/326/210 194/295/194
f 196/301/196 212/329/212 211/328/211 195/299/195
f 197/303/197 213/330/213 212/329/212 196/301/196
f 198/305/198 214/331/214 213/330/213 197/303/197
f 199/307/199 215/332/215 214/331/214 198/305/198
f 200/309/200 216/333/216 215/332/215 199/307/199
f 201/311/201 217/334/217 216/333/216 200/309/200
f 202/313/202 218/335/218 217/334/217 201/311/201
f 203/315/203 219/336/219 218/335/218 202/313/202
f 204/317/204 220/337/220 219/336/219 203/315/203
f 205/319/205 221/338/221 220/337/220 204/317/204
f 206/321/206 222/339/222 221/338/221 205/319/205
f 207/323/207 223/340/223 222/339/222 206/321/206
f 208/292/208 224/325/224 223/340/223 207/323/207
f 257/341/257 225/342/225 240/343/240 258/344/258
f 259/345/259 226/346/226 225/347/225 257/348/257
f 260/349/260 227/350/227 226/346/226 259/345/259
f 261/351/261 228/352/228 227/350/227 260/349/260
f 262/353/262 229/354/229 228/352/228 261/351/261
f 263/355/263 230/356/230 229/354/229 262/353/262
f 264/357/264 231/358/231 230/356/230 263/355/263
f 265/359/265 232/360/232 231/358/231 264/357/264
f 266/361/266 233/362/233 232/360/232 265/359/265
f 267/363/267 234/364/234 233/362/233 266/361/266
f 268/365/268 235/366/235 234/364/234 267/363/267
f 269/367/269 236/368/236 235/366/235 268/365/268
f 270/369/270 237/370/237 236/368/236 269/367/269
f 271/371/271 238/372/238 237/370/237 270/369/270
f 272/373/272 239/374/239 238/372/238 271/371/271
f 258/344/258 240/343/240 239/374/239 272/373/272
f 225/342/225 241/375/241 256/376/256 240/343/240
f 226/346/226 242/377/242 241/378/241 225/347/225
f 227/350/227 243/379/243 242/377/242 226/346/226
f 228/352/228 244/380/244 243/379/243 227/350/227
f 229/354/229 245/381/245 244/380/244 228/352/228
f 230/356/230 246/382/246 245/381/245 229/354/229
f 231/358/231 247/383/247 246/382/246 230/356/230
f 232/360/232 248/384/248 247/383/247 231/358/231
f 233/362/233 249/385/249 248/384/248 232/360/232
f 234/364/234 250/386/250 249/385/249 233/362/233
f 235/366/235 251/387/251 250/386/250 234/364/234
f 236/368/236 252/388/252 251/387/251 235/366/235
f 237/370/237 253/389/253 252/388/252 236/368/236
f 238/372/238 254/390/254 253/389/253 237/370/237
f 239/374/239 255/391/255 254/390/254 238/372/238
f 240/343/240 256/376/256 255/391/255 239/374/239
f 16/392/16 370/4/370 384/33/384 15/393/15
f 15/393/15 384/33/384 383/31/383 14/394/14
f 14/394/14 383/31/383 382/29/382 13/395/13
f 13/395/13 382/29/382 381/27/381 12/396/12
f 12/396/12 381/27/381 380/25/380 11/397/11
f 11/397/11 380/25/380 379/23/379 10/398/10
f 10/398/10 379/23/379 378/21/378 9/399/9
f 9/399/9 378/21/378 377/19/377 8/400/8
f 8/400/8 377/19/377 376/17/376 7/401/7
f 7/401/7 376/17/376 375/15/375 6/402/6
f 6/402/6 375/15/375 374/13/374 5/403/5
f 5/403/5 374/13/374 373/11/373 4/404/4
f 4/404/4 373/11/373 372/9/372 3/405/3
f 3/405/3 372/9/372 371/5/371 2/406/2
f 2/406/2 371/5/371 369/8/369 1/407/1
f 1/408/1 369/1/369 370/4/370 16/392/16
usemtl Trunk2
f 224/325/224 258/344/258 272/373/272 223/340/223
f 223/340/223 272/373/272 271/371/271 222/339/222
f 222/339/222 271/371/271 270/369/270 221/338/221
f 221/338/221 270/369/270 269/367/269 220/337/220
f 220/337/220 269/367/269 268/365/268 219/336/219
f 219/336/219 268/365/268 267/363/267 218/335/218
f 218/335/218 267/363/267 266/361/266 217/334/217
f 217/334/217 266/361/266 265/359/265 216/333/216
f 216/333/216 265/359/265 264/357/264 215/332/215
f 215/332/215 264/357/264 263/355/263 214/331/214
f 214/331/214 263/355/263 262/353/262 213/330/213
f 213/330/213 262/353/262 261/351/261 212/329/212
f 212/329/212 261/351/261 260/349/260 211/328/211
f 211/328/211 260/349/260 259/345/259 210/326/210
f 210/326/210 259/345/259 257/348/257 209/327/209
f 209/324/209 257/341/257 258/344/258 224/325/224
f 192/274/192 274/293/274 288/322/288 191/289/191
f 191/289/191 288/322/288 287/320/287 190/288/190
f 190/288/190 287/320/287 286/318/286 189/287/189
f 189/287/189 286/318/286 285/316/285 188/286/188
f 188/286/188 285/316/285 284/314/284 187/285/187
f 187/285/187 284/314/284 283/312/283 186/284/186
f 186/284/186 283/312/283 282/310/282 185/283/185
f 185/283/185 282/310/282 281/308/281 184/282/184
f 184/282/184 281/308/281 280/306/280 183/281/183
f 183/281/183 280/306/280 279/304/279 182/280/182
f 182/280/182 279/304/279 278/302/278 181/279/181
f 181/279/181 278/302/278 277/300/277 180/278/180
f 180/278/180 277/300/277 276/298/276 179/277/179
f 179/277/179 276/298/276 275/294/275 178/275/178
f 178/275/178 275/294/275 273/297/273 177/276/177
f 177/273/177 273/290/273 274/293/274 192/274/192
f 160/223/160 290/242/290 304/271/304 159/238/159
f 159/238/159 304/271/304 303/269/303 158/237/158
f 158/237/158 303/269/303 302/267/302 157/236/157
f 157/236/157 302/267/302 301/265/301 156/235/156
f 156/235/156 301/265/301 300/263/300 155/234/155
f 155/234/155 300/263/300 299/261/299 154/233/154
f 154/233/154 299/261/299 298/259/298 153/232/153
f 153/232/153 298/259/298 297/257/297 152/231/152
f 152/231/152 297/257/297 296/255/296 151/230/151
f 151/230/151 296/255/296 295/253/295 150/229/150
f 150/229/150 295/253/295 294/251/294 149/228/149
f 149/228/149 294/251/294 293/249/293 148/227/148
f 148/227/148 293/249/293 292/247/292 147/226/147
f 147/226/147 292/247/292 291/243/291 146/224/146
f 146/224/146 291/243/291 289/246/289 145/225/145
f 145/222/145 289/239/289 290/242/290 160/223/160
f 128/172/128 306/191/306 320/220/320 127/187/127
f 127/187/127 320/220/320 319/218/319 126/186/126
f 126/186/126 319/218/319 318/216/318 125/185/125
f 125/185/125 318/216/318 317/214/317 124/184/124
f 124/184/124 317/214/317 316/212/316 123/183/123
f 123/183/123 316/212/316 315/210/315 122/182/122
f 122/182/122 315/210/315 314/208/314 121/181/121
f 121/181/121 314/208/314 313/206/313 120/180/120
f 120/180/120 313/206/313 312/204/312 119/179/119
f 119/179/119 312/204/312 311/202/311 118/178/118
f 118/178/118 311/202/311 310/200/310 117/177/117
f 117/177/117 310/200/310 309/198/309 116/176/116
f 116/176/116 309/198/309 308/196/308 115/175/115
f 115/175/115 308/196/308 307/192/307 114/173/114
f 114/173/114 307/192/307 305/195/305 113/174/113
f 113/171/113 305/188/305 306/191/306 128/172/128
f 96/121/96 322/140/322 336/169/336 95/136/95
f 95/136/95 336/169/336 335/167/335 94/135/94
f 94/135/94 335/167/335 334/165/334 93/134/93
f 93/134/93 334/165/334 333/163/333 92/133/92
f 92/133/92 333/163/333 332/161/332 91/132/91
f 91/132/91 332/161/332 331/159/331 90/131/90
f 90/131/90 331/159/331 330/157/330 89/130/89
f 89/130/89 330/157/330 329/155/329 88/129/88
f 88/129/88 329/155/329 328/153/328 87/128/87
f 87/128/87 328/153/328 327/151/327 86/127/86
f 86/127/86 327/151/327 326/149/326 85/126/85
f 85/126/85 326/149/326 325/147/325 84/125/84
f 84/125/84 325/147/325 324/145/324 83/124/83
f 83/124/83 324/145/324 323/141/323 82/122/82
f 82/122/82 323/141/323 321/144/321 81/123/81
f 81/120/81 321/137/321 322/140/322 96/121/96
f 64/70/64 338/89/338 352/118/352 63/85/63
f 63/85/63 352/118/352 351/116/351 62/84/62
f 62/84/62 351/116/351 350/114/350 61/83/61
f 61/83/61 350/114/350 349/112/349 60/82/60
f 60/82/60 349/112/349 348/110/348 59/81/59
f 59/81/59 348/110/348 347/108/347 58/80/58
f 58/80/58 347/108/347 346/106/346 57/79/57
f 57/79/57 346/106/346 345/104/345 56/78/56
f 56/78/56 345/104/345 344/102/344 55/77/55
f 55/77/55 344/102/344 343/100/343 54/76/54
f 54/76/54 343/100/343 342/98/342 53/75/53
f 53/75/53 342/98/342 341/96/341 52/74/52
f 52/74/52 341/96/341 340/94/340 51/73/51
f 51/73/51 340/94/340 339/90/339 50/71/50
f 50/71/50 339/90/339 337/93/337 49/72/49
f 49/69/49 337/86/337 338/89/338 64/70/64
f 32/3/32 354/38/354 368/67/368 31/34/31
f 31/34/31 368/67/368 367/65/367 30/32/30
f 30/32/30 367/65/367 366/63/366 29/30/29
f 29/30/29 366/63/366 365/61/365 28/28/28
f 28/28/28 365/61/365 364/59/364 27/26/27
f 27/26/27 364/59/364 363/57/363 26/24/26
f 26/24/26 363/57/363 362/55/362 25/22/25
f 25/22/25 362/55/362 361/53/361 24/20/24
f 24/20/24 361/53/361 360/51/360 23/18/23
f 23/18/23 360/51/360 359/49/359 22/16/22
f 22/16/22 359/49/359 358/47/358 21/14/21
f 21/14/21 358/47/358 357/45/357 20/12/20
f 20/12/20 357/45/357 356/43/356 19/10/19
f 19/10/19 356/43/356 355/39/355 18/6/18
f 18/6/18 355/39/355 353/42/353 17/7/17
f 17/2/17 353/35/353 354/38/354 32/3/32
o Leaves
v 0.000000 2.617255 2.079508
v -0.111174 3.948395 0.003404
v 0.111174 3.948395 0.003404
v -0.283484 3.887638 0.602172
v -0.313949 3.639325 1.002172
v -0.283484 3.381341 1.402172
v -0.201710 2.925905 1.802172
v 0.201710 2.925905 1.802172
v 0.283484 3.381341 1.402172
v 0.313949 3.639325 1.002172
v 0.283484 3.887638 0.602172
v 0.000000 3.948395 0.003404
v 0.000000 3.051180 1.802172
v 0.000000 3.495068 1.402172
v 0.000000 3.765418 1.002172
v 0.000000 3.979622 0.602172
v -0.304101 3.555930 1.131475
v 0.293982 3.470244 1.264329
v 0.303451 3.550422 1.140015
v 0.174675 3.570288 1.202172
v -0.293332 3.464737 1.272869
v -0.174675 3.570288 1.202172
v -0.242597 3.153623 1.602172
v 0.242597 3.153623 1.602172
v 0.000000 3.273124 1.602172
v -0.214405 2.996607 1.740077
v 0.213989 2.994290 1.742111
v -0.229903 3.082922 1.664268
v 0.230319 3.085239 1.662233
v 0.123708 3.100958 1.702172
v -0.123708 3.100958 1.702172
v 0.197329 3.952752 0.302788
v -0.197329 3.952752 0.302788
v 0.000000 3.988536 0.302788
v 1.476633 2.617255 1.464209
v -0.075862 3.948395 0.081340
v 0.080696 3.948395 -0.076546
v 0.227990 3.887638 0.625296
v 0.490575 3.639325 0.928574
v 0.796061 3.381341 1.188586
v 1.137674 2.925905 1.412165
v 1.421727 2.925905 1.125701
v 1.195270 3.381341 0.785989
v 0.932686 3.639325 0.482711
v 0.627200 3.887638 0.222699
v 0.002417 3.948395 0.002397
v 1.279700 3.051180 1.268933
v 0.995665 3.495068 0.987288
v 0.711630 3.765418 0.705642
v 0.427595 3.979622 0.423997
v 0.589325 3.555930 1.012625
v 1.104782 3.470244 0.681478
v 1.023174 3.550422 0.587223
v 0.976638 3.570288 0.722431
v 0.697310 3.464737 1.104535
v 0.730657 3.570288 0.970500
v 0.966867 3.153623 1.300376
v 1.308499 3.153623 0.955845
v 1.137683 3.273124 1.128110
v 1.084642 2.996607 1.377457
v 1.387724 2.994290 1.074693
v 1.019899 3.082922 1.335084
v 1.342502 3.085239 1.006853
v 1.295796 3.100958 1.110678
v 1.121587 3.100958 1.286365
v 0.353948 3.952752 0.073076
v 0.076064 3.952752 0.353318
v 0.215006 3.988536 0.213197
v 2.079434 2.617255 -0.017571
v 0.004344 3.948395 0.111141
v 0.002465 3.948395 -0.111199
v 0.604546 3.887638 0.278386
v 1.004789 3.639325 0.305470
v 1.404517 3.381341 0.271626
v 1.803812 2.925905 0.186476
v 1.800403 2.925905 -0.216930
v 1.399727 3.381341 -0.295321
v 0.999483 3.639325 -0.322406
v 0.599755 3.887638 -0.288562
v 0.003404 3.948395 -0.000029
v 1.802108 3.051180 -0.015227
v 1.402122 3.495068 -0.011847
v 1.002136 3.765418 -0.008468
v 0.602151 3.979622 -0.005088
v 1.134004 3.555930 0.294530
v 1.261800 3.470244 -0.304655
v 1.137410 3.550422 -0.313072
v 1.200653 3.570288 -0.184826
v 1.275302 3.464737 0.282567
v 1.203605 3.570288 0.164511
v 1.604165 3.153623 0.229051
v 1.600065 3.153623 -0.256126
v 1.602115 3.273124 -0.013537
v 1.741826 2.996607 0.199694
v 1.740241 2.994290 -0.228701
v 1.666151 3.082922 0.215832
v 1.660227 3.085239 -0.244355
v 1.701066 3.100958 -0.138086
v 1.703156 3.100958 0.109321
v 0.301110 3.952752 -0.199880
v 0.304445 3.952752 0.194763
v 0.302777 3.988536 -0.002558
v 1.451680 2.617255 -1.488952
v 0.081978 3.948395 0.075172
v -0.077225 3.948395 -0.080047
v 0.623347 3.887638 -0.233266
v 0.924396 3.639325 -0.498403
v 1.181818 3.381341 -0.806075
v 1.402502 2.925905 -1.149565
v 1.113648 2.925905 -1.431188
v 0.775862 3.381341 -1.201868
v 0.474813 3.639325 -0.936731
v 0.217391 3.887638 -0.629059
v 0.002376 3.948395 -0.002438
v 1.258075 3.051180 -1.290376
v 0.978840 3.495068 -1.003972
v 0.699604 3.765418 -0.717567
v 0.420369 3.979622 -0.431162
v 1.007609 3.555930 -0.597860
v 0.672119 3.470244 -1.110500
v 0.578557 3.550422 -1.028099
v 0.714153 3.570288 -0.982708
v 1.098604 3.464737 -0.706617
v 0.964291 3.570288 -0.738831
v 1.292160 3.153623 -0.977820
v 0.944755 3.153623 -1.316528
v 1.118457 3.273124 -1.147174
v 1.368243 2.996607 -1.096242
v 1.062929 2.994290 -1.396755
v 1.326419 3.082922 -1.031143
v 0.995474 3.085239 -1.350961
v 1.099690 3.100958 -1.305134
v 1.276843 3.100958 -1.132416
v 0.070083 3.952752 -0.354553
v 0.352663 3.952752 -0.079047
v 0.211373 3.988536 -0.216800
v -0.035140 2.617255 -2.079211
v 0.111100 3.948395 -0.005282
v -0.111215 3.948395 -0.001525
v 0.273268 3.887638 -0.606876
v 0.296969 3.639325 -1.007334
v 0.259749 3.381341 -1.406762
v 0.171228 2.925905 -1.805323
v -0.232135 2.925905 -1.798506
v -0.307137 3.381341 -1.397181
v -0.330839 3.639325 -0.996724
v -0.293619 3.887638 -0.597296
v -0.000058 3.948395 -0.003404
v -0.030453 3.051180 -1.801915
v -0.023694 3.495068 -1.401972
v -0.016935 3.765418 -1.002029
v -0.010176 3.979622 -0.602086
v 0.284938 3.555930 -1.136452
v -0.315305 3.470244 -1.259181
v -0.322671 3.550422 -1.134724
v -0.194964 3.570288 -1.199049
v 0.271781 3.464737 -1.277644
v 0.154335 3.570288 -1.204952
v 0.215489 3.153623 -1.606043
v -0.269636 3.153623 -1.597844
v -0.027074 3.273124 -1.601943
v 0.184970 2.996607 -1.743451
v -0.243396 2.994290 -1.738246
v 0.201747 3.082922 -1.667915
v -0.258374 3.085239 -1.658103
v -0.152454 3.100958 -1.699838
v 0.094927 3.100958 -1.704019
v -0.202417 3.952752 -0.299410
v 0.192184 3.952752 -0.306079
v -0.005117 3.988536 -0.302745
v -1.501165 2.617255 -1.439048
v 0.074476 3.948395 -0.082610
v -0.079391 3.948395 0.077899
v -0.238524 3.887638 -0.621354
v -0.506196 3.639325 -0.920151
v -0.816032 3.381341 -1.174965
v -1.161374 2.925905 -1.392739
v -1.440546 2.925905 -1.101516
v -1.208381 3.381341 -0.765679
v -0.940709 3.639325 -0.466881
v -0.630873 3.887638 -0.212068
v -0.002458 3.948395 -0.002356
v -1.300960 3.051180 -1.247127
v -1.012206 3.495068 -0.970322
v -0.723452 3.765418 -0.693516
v -0.434699 3.979622 -0.416711
v -0.606353 3.555930 -1.002522
v -1.116140 3.470244 -0.662712
v -1.032951 3.550422 -0.569849
v -0.988707 3.570288 -0.705824
v -0.715874 3.464737 -1.092594
v -0.746952 3.570288 -0.958014
v -0.988703 3.153623 -1.283852
v -1.324463 3.153623 -0.933597
v -1.156583 3.273124 -1.108725
v -1.107763 2.996607 -1.358932
v -1.405686 2.994290 -1.051089
v -1.042313 3.082922 -1.317659
v -1.359324 3.085239 -0.984024
v -1.314379 3.100958 -1.088623
v -1.143164 3.100958 -1.267229
v -0.355132 3.952752 -0.067085
v -0.082024 3.952752 -0.351982
v -0.218578 3.988536 -0.209533
v -2.078840 2.617255 0.052707
v -0.006221 3.948395 -0.111052
v -0.000585 3.948395 0.111224
v -0.609164 3.887638 -0.268130
v -1.009807 3.639325 -0.288447
v -1.408907 3.381341 -0.247854
v -1.806705 2.925905 -0.155968
v -1.796480 2.925905 0.247323
v -1.394536 3.381341 0.318932
v -0.993893 3.639325 0.339249
v -0.594793 3.887638 0.298655
v -0.003403 3.948395 0.000086
v -1.801593 3.051180 0.045677
v -1.401721 3.495068 0.035539
v -1.001850 3.765418 0.025401
v -0.601979 3.979622 0.015262
v -1.138819 3.555930 -0.275325
v -1.256472 3.470244 0.325933
v -1.131957 3.550422 0.332248
v -1.197358 3.570288 0.205089
v -1.279894 3.464737 -0.260976
v -1.206213 3.570288 -0.144149
v -1.607806 3.153623 -0.201911
v -1.595508 3.153623 0.283127
v -1.601657 3.273124 0.040608
v -1.744952 2.996607 -0.170232
v -1.736128 2.994290 0.258075
v -1.669560 3.082922 -0.187647
v -1.655861 3.085239 0.272375
v -1.698490 3.100958 0.166811
v -1.704761 3.100958 -0.080526
v -0.297689 3.952752 0.204940
v -0.307692 3.952752 -0.189591
v -0.302691 3.988536 0.007674
v -1.426312 2.617255 1.513270
v -0.083237 3.948395 -0.073776
v 0.078567 3.948395 0.078730
v -0.619316 3.887638 0.243766
v -0.915841 3.639325 0.513952
v -1.168028 3.381341 0.825930
v -1.382876 2.925905 1.173100
v -1.089304 2.925905 1.449802
v -0.755442 3.381341 1.214807
v -0.458916 3.639325 0.944621
v -0.206730 3.887638 0.632643
v -0.002335 3.948395 0.002477
v -1.236090 3.051180 1.311451
v -0.961735 3.495068 1.020369
v -0.687379 3.765418 0.729286
v -0.413023 3.979622 0.438204
v -0.997363 3.555930 0.614802
v -0.653257 3.470244 1.121699
v -0.561101 3.550422 1.037729
v -0.697445 3.570288 0.994635
v -1.086506 3.464737 0.725081
v -0.951669 3.570288 0.755020
v -1.275452 3.153623 0.999515
v -0.922373 3.153623 1.332305
v -1.098912 3.273124 1.165910
v -1.349523 2.996607 1.119206
v -1.039174 2.994290 1.414517
v -1.308805 3.082922 1.053410
v -0.972503 3.085239 1.367589
v -1.077478 3.100958 1.323531
v -1.257524 3.100958 1.153831
v -0.064082 3.952752 0.355686
v -0.351277 3.952752 0.084995
v -0.207679 3.988536 0.220341
vn -0.0000 1.0000 -0.0035
vn 0.1995 0.9798 0.0119
vn 0.1148 0.9893 -0.0900
vn -0.0000 0.9959 -0.0906
vn 0.3172 0.5107 0.7991
vn 0.3367 0.5422 0.7698
vn 0.3318 0.5720 0.7502
vn 0.2934 0.6265 0.7221
vn 0.3030 0.6241 0.7202
vn 0.3000 0.6949 0.6536
vn 0.2943 0.7203 0.6281
vn 0.3097 0.7885 0.5313
vn 0.3052 0.8157 0.4914
vn 0.3203 0.8106 0.4902
vn 0.2897 0.9031 0.3169
vn -0.0000 0.9592 0.2827
vn -0.3200 0.8108 0.4901
vn -0.3051 0.8158 0.4914
vn -0.2897 0.9031 0.3169
vn -0.3089 0.7887 0.5315
vn -0.3327 0.7956 0.5063
vn -0.3032 0.6239 0.7203
vn -0.2935 0.6264 0.7221
vn -0.2941 0.7203 0.6282
vn -0.2996 0.6949 0.6537
vn -0.3172 0.5107 0.7991
vn -0.3318 0.5720 0.7502
vn -0.3367 0.5422 0.7698
vn -0.1995 0.9798 0.0119
vn -0.1148 0.9893 -0.0900
vn -0.3226 0.7694 0.5514
vn 0.3333 0.7952 0.5066
vn 0.3233 0.7694 0.5510
vn -0.3318 0.6134 0.7167
vn -0.3231 0.6231 0.7123
vn 0.3317 0.6136 0.7166
vn 0.3593 0.5784 0.7323
vn -0.3593 0.5785 0.7323
vn 0.3228 0.6234 0.7121
vn -0.0025 1.0000 -0.0024
vn 0.1489 0.9798 -0.1332
vn 0.0169 0.9893 -0.1449
vn -0.0644 0.9959 -0.0638
vn 0.7908 0.5107 0.3374
vn 0.7838 0.5422 0.3029
vn 0.7663 0.5720 0.2926
vn 0.7193 0.6265 0.3000
vn 0.7248 0.6241 0.2919
vn 0.6753 0.6949 0.2472
vn 0.6533 0.7203 0.2332
vn 0.5954 0.7885 0.1542
vn 0.5639 0.8157 0.1293
vn 0.5736 0.8106 0.1177
vn 0.4290 0.9031 0.0174
vn 0.2008 0.9592 0.1991
vn 0.1227 0.8108 0.5723
vn 0.1341 0.8158 0.5626
vn 0.0210 0.9031 0.4288
vn 0.1599 0.7887 0.5936
vn 0.1252 0.7956 0.5928
vn 0.2980 0.6239 0.7225
vn 0.3061 0.6264 0.7168
vn 0.2390 0.7203 0.6512
vn 0.2532 0.6949 0.6731
vn 0.3441 0.5107 0.7879
vn 0.2990 0.5720 0.7638
vn 0.3095 0.5422 0.7812
vn -0.1320 0.9798 0.1500
vn -0.1447 0.9893 0.0181
vn 0.1644 0.7694 0.6173
vn 0.5944 0.7952 0.1200
vn 0.6189 0.7694 0.1584
vn 0.2753 0.6134 0.7402
vn 0.2783 0.6231 0.7310
vn 0.7424 0.6136 0.2691
vn 0.7730 0.5784 0.2605
vn 0.2670 0.5785 0.7708
vn 0.7330 0.6234 0.2722
vn -0.0035 1.0000 -0.0000
vn 0.0102 0.9798 -0.1996
vn -0.0910 0.9893 -0.1140
vn -0.0906 0.9959 0.0008
vn 0.7964 0.5107 -0.3239
vn 0.7670 0.5422 -0.3432
vn 0.7473 0.5720 -0.3382
vn 0.7196 0.6265 -0.2995
vn 0.7176 0.6241 -0.3091
vn 0.6510 0.6949 -0.3055
vn 0.6256 0.7203 -0.2996
vn 0.5287 0.7885 -0.3142
vn 0.4888 0.8157 -0.3094
vn 0.4875 0.8106 -0.3244
vn 0.3144 0.9031 -0.2924
vn 0.2827 0.9592 -0.0024
vn 0.4927 0.8108 0.3158
vn 0.4939 0.8158 0.3009
vn 0.3193 0.9031 0.2870
vn 0.5341 0.7887 0.3044
vn 0.5091 0.7956 0.3285
vn 0.7229 0.6239 0.2971
vn 0.7246 0.6264 0.2874
vn 0.6307 0.7203 0.2888
vn 0.6562 0.6949 0.2941
vn 0.8017 0.5107 0.3104
vn 0.7529 0.5720 0.3255
vn 0.7727 0.5422 0.3302
vn 0.0136 0.9798 0.1994
vn -0.0891 0.9893 0.1155
vn 0.5541 0.7694 0.3179
vn 0.5037 0.7952 -0.3375
vn 0.5482 0.7694 -0.3279
vn 0.7195 0.6134 0.3257
vn 0.7150 0.6231 0.3171
vn 0.7138 0.6136 -0.3377
vn 0.7292 0.5785 -0.3655
vn 0.7353 0.5785 0.3531
vn 0.7094 0.6234 -0.3288
vn -0.0024 1.0000 0.0025
vn -0.1345 0.9798 -0.1478
vn -0.1450 0.9893 -0.0156
vn -0.0633 0.9959 0.0649
vn 0.3307 0.5107 -0.7936
vn 0.2963 0.5422 -0.7863
vn 0.2861 0.5720 -0.7688
vn 0.2940 0.6265 -0.7219
vn 0.2858 0.6241 -0.7272
vn 0.2415 0.6949 -0.6774
vn 0.2277 0.7203 -0.6552
vn 0.1492 0.7885 -0.5967
vn 0.1245 0.8157 -0.5650
vn 0.1129 0.8106 -0.5746
vn 0.0138 0.9031 -0.4291
vn 0.1974 0.9592 -0.2024
vn 0.5712 0.8108 -0.1275
vn 0.5615 0.8158 -0.1388
vn 0.4286 0.9031 -0.0246
vn 0.5922 0.7887 -0.1649
vn 0.5917 0.7956 -0.1303
vn 0.7199 0.6239 -0.3041
vn 0.7142 0.6264 -0.3121
vn 0.6491 0.7203 -0.2445
vn 0.6709 0.6949 -0.2589
vn 0.7849 0.5107 -0.3507
vn 0.7613 0.5720 -0.3055
vn 0.7785 0.5422 -0.3161
vn 0.1512 0.9798 0.1307
vn 0.0193 0.9893 0.1446
vn 0.6159 0.7694 -0.1696
vn 0.1150 0.7952 -0.5954
vn 0.1531 0.7694 -0.6202
vn 0.7379 0.6134 -0.2815
vn 0.7286 0.6231 -0.2845
vn 0.2628 0.6136 -0.7446
vn 0.2539 0.5784 -0.7752
vn 0.7685 0.5785 -0.2735
vn 0.2660 0.6234 -0.7353
vn 0.0001 1.0000 0.0035
vn -0.1996 0.9798 -0.0086
vn -0.1132 0.9893 0.0920
vn 0.0015 0.9959 0.0906
vn -0.3307 0.5107 -0.7936
vn -0.3497 0.5422 -0.7640
vn -0.3445 0.5720 -0.7444
vn -0.3056 0.6265 -0.7170
vn -0.3151 0.6241 -0.7150
vn -0.3110 0.6949 -0.6484
vn -0.3049 0.7203 -0.6230
vn -0.3187 0.7885 -0.5260
vn -0.3135 0.8157 -0.4862
vn -0.3285 0.8106 -0.4847
vn -0.2950 0.9031 -0.3119
vn -0.0048 0.9592 -0.2827
vn 0.3116 0.8108 -0.4954
vn 0.2968 0.8158 -0.4965
vn 0.2843 0.9031 -0.3217
vn 0.2999 0.7887 -0.5366
vn 0.3241 0.7956 -0.5119
vn 0.2910 0.6239 -0.7253
vn 0.2813 0.6264 -0.7270
vn 0.2834 0.7203 -0.6331
vn 0.2885 0.6949 -0.6587
vn 0.3036 0.5107 -0.8043
vn 0.3191 0.5720 -0.7557
vn 0.3237 0.5422 -0.7754
vn 0.1992 0.9798 -0.0153
vn 0.1163 0.9893 0.0881
vn 0.3132 0.7694 -0.5567
vn -0.3418 0.7952 -0.5009
vn -0.3326 0.7694 -0.5454
vn 0.3196 0.6134 -0.7222
vn 0.3110 0.6231 -0.7176
vn -0.3437 0.6136 -0.7109
vn -0.3716 0.5785 -0.7261
vn 0.3469 0.5785 -0.7383
vn -0.3348 0.6234 -0.7066
vn 0.0025 1.0000 0.0024
vn -0.1467 0.9798 0.1357
vn -0.0144 0.9893 0.1451
vn 0.0654 0.9959 0.0627
vn -0.7964 0.5107 -0.3240
vn -0.7888 0.5422 -0.2897
vn -0.7712 0.5720 -0.2796
vn -0.7243 0.6265 -0.2879
vn -0.7296 0.6241 -0.2797
vn -0.6794 0.6949 -0.2357
vn -0.6571 0.7203 -0.2222
vn -0.5979 0.7885 -0.1441
vn -0.5660 0.8157 -0.1197
vn -0.5755 0.8106 -0.1080
vn -0.4292 0.9031 -0.0102
vn -0.2041 0.9592 -0.1957
vn -0.1323 0.8108 -0.5701
vn -0.1436 0.8158 -0.5603
vn -0.0283 0.9031 -0.4284
vn -0.1699 0.7887 -0.5908
vn -0.1352 0.7956 -0.5906
vn -0.3102 0.6239 -0.7173
vn -0.3182 0.6264 -0.7116
vn -0.2500 0.7203 -0.6470
vn -0.2646 0.6949 -0.6687
vn -0.3574 0.5107 -0.7820
vn -0.3119 0.5720 -0.7587
vn -0.3227 0.5422 -0.7758
vn 0.1294 0.9798 -0.1523
vn 0.1444 0.9893 -0.0205
vn -0.1748 0.7694 -0.6144
vn -0.5963 0.7952 -0.1100
vn -0.6215 0.7694 -0.1479
vn -0.2878 0.6134 -0.7355
vn -0.2906 0.6231 -0.7262
vn -0.7468 0.6136 -0.2565
vn -0.7773 0.5785 -0.2474
vn -0.2800 0.5785 -0.7662
vn -0.7375 0.6234 -0.2598
vn 0.0035 1.0000 -0.0001
vn -0.0069 0.9798 0.1997
vn 0.0929 0.9893 0.1124
vn 0.0906 0.9959 -0.0023
vn -0.7908 0.5107 0.3373
vn -0.7611 0.5422 0.3562
vn -0.7415 0.5720 0.3507
vn -0.7144 0.6265 0.3116
vn -0.7123 0.6241 0.3212
vn -0.6457 0.6949 0.3164
vn -0.6204 0.7203 0.3102
vn -0.5233 0.7885 0.3231
vn -0.4835 0.8157 0.3176
vn -0.4819 0.8106 0.3326
vn -0.3094 0.9031 0.2976
vn -0.2827 0.9592 0.0072
vn -0.4980 0.8108 -0.3074
vn -0.4990 0.8158 -0.2926
vn -0.3241 0.9031 -0.2816
vn -0.5392 0.7887 -0.2953
vn -0.5146 0.7956 -0.3198
vn -0.7278 0.6239 -0.2848
vn -0.7293 0.6264 -0.2751
vn -0.6355 0.7203 -0.2781
vn -0.6611 0.6949 -0.2830
vn -0.8069 0.5107 -0.2968
vn -0.7583 0.5720 -0.3127
vn -0.7781 0.5422 -0.3171
vn -0.0170 0.9798 -0.1991
vn 0.0871 0.9893 -0.1170
vn -0.5594 0.7694 -0.3085
vn -0.4980 0.7952 0.3460
vn -0.5426 0.7694 0.3372
vn -0.7249 0.6134 -0.3135
vn -0.7203 0.6231 -0.3049
vn -0.7080 0.6136 0.3497
vn -0.7230 0.5784 0.3778
vn -0.7412 0.5785 -0.3406
vn -0.7037 0.6234 0.3408
vn 0.0024 1.0000 -0.0025
vn 0.1370 0.9798 0.1455
vn 0.1453 0.9893 0.0132
vn 0.0622 0.9959 -0.0660
vn -0.3173 0.5107 0.7991
vn -0.2830 0.5422 0.7912
vn -0.2730 0.5720 0.7735
vn -0.2817 0.6265 0.7267
vn -0.2735 0.6241 0.7320
vn -0.2300 0.6949 0.6813
vn -0.2166 0.7203 0.6590
vn -0.1391 0.7885 0.5991
vn -0.1149 0.8157 0.5670
vn -0.1032 0.8106 0.5764
vn -0.0065 0.9031 0.4293
vn -0.1939 0.9592 0.2058
vn -0.5690 0.8108 0.1372
vn -0.5591 0.8158 0.1483
vn -0.4282 0.9031 0.0319
vn -0.5893 0.7887 0.1749
vn -0.5894 0.7956 0.1402
vn -0.7147 0.6239 0.3162
vn -0.7089 0.6264 0.3242
vn -0.6449 0.7203 0.2554
vn -0.6664 0.6949 0.2702
vn -0.7789 0.5107 0.3639
vn -0.7560 0.5720 0.3183
vn -0.7731 0.5422 0.3292
vn -0.1533 0.9798 -0.1281
vn -0.0218 0.9893 -0.1442
vn -0.6129 0.7694 0.1800
vn -0.1049 0.7952 0.5972
vn -0.1426 0.7694 0.6227
vn -0.7330 0.6134 0.2940
vn -0.7237 0.6231 0.2967
vn -0.2502 0.6136 0.7490
vn -0.2408 0.5785 0.7794
vn -0.7638 0.5785 0.2865
vn -0.2535 0.6234 0.7397
vt 0.500000 0.900000
vt 1.000000 0.900000
vt 1.000000 1.000000
vt 0.500000 1.000000
vt 1.000000 0.000000
vt 1.000000 0.200000
vt 0.500000 0.200000
vt 0.500000 0.300000
vt 1.000000 0.300000
vt 1.000000 0.400000
vt 0.500000 0.400000
vt 0.748956 0.500001
vt 0.500000 0.600000
vt 1.000000 0.600000
vt 1.000000 0.800000
vt 0.500000 0.800000
vt 0.000000 0.600000
vt 0.000000 0.800000
vt 0.251044 0.500001
vt 0.000000 0.550000
vt 0.000000 0.300000
vt 0.000000 0.400000
vt 0.500000 0.000000
vt 0.000000 0.200000
vt 0.000000 0.900000
vt 0.000000 1.000000
vt 0.000000 0.450000
vt 1.000000 0.550000
vt 1.000000 0.450000
vt 0.252892 0.249765
vt 0.000000 0.275000
vt 0.747108 0.249765
vt 1.000000 0.225000
vt 0.000000 0.225000
vt 1.000000 0.275000
s 1
usemtl Leaves
f 418/409/385 416/410/386 387/411/387 396/412/388
f 385/413/389 392/414/390 397/415/391
f 409/416/392 408/417/393 393/418/394 398/419/395
f 398/419/395 404/420/396 399/421/397
f 399/421/397 394/422/398 395/423/399 400/424/400
f 389/425/401 399/421/402 400/424/400 388/426/403
f 406/427/404 399/421/402 389/425/401 401/428/405
f 407/429/406 409/416/407 398/419/408 390/430/409
f 385/431/410 397/415/411 391/432/412
f 417/433/413 418/409/385 396/412/388 386/434/414
f 398/419/408 406/427/404 405/435/415 390/430/409
f 399/421/397 404/420/396 403/436/416 394/422/398
f 404/420/396 398/419/395 393/418/394 402/437/417
f 399/421/402 406/427/404 398/419/408
f 415/438/418 409/416/407 407/429/406 412/439/419
f 397/415/391 414/440/420 409/416/392
f 414/440/420 397/415/391 392/414/390 411/441/421
f 397/415/411 415/438/418 410/442/422 391/432/412
f 414/440/420 413/443/423 408/417/393 409/416/392
f 409/416/407 415/438/418 397/415/411
f 388/426/403 400/424/400 418/409/385 417/433/413
f 400/424/400 395/423/399 416/410/386 418/409/385
f 452/409/424 450/410/425 421/411/426 430/412/427
f 419/413/428 426/414/429 431/415/430
f 443/416/431 442/417/432 427/418/433 432/419/434
f 432/419/434 438/420/435 433/421/436
f 433/421/436 428/422/437 429/423/438 434/424/439
f 423/425/440 433/421/441 434/424/439 422/426/442
f 440/427/443 433/421/441 423/425/440 435/428/444
f 441/429/445 443/416/446 432/419/447 424/430/448
f 419/431/449 431/415/450 425/432/451
f 451/433/452 452/409/424 430/412/427 420/434/453
f 432/419/447 440/427/443 439/435/454 424/430/448
f 433/421/436 438/420/435 437/436/455 428/422/437
f 438/420/435 432/419/434 427/418/433 436/437/456
f 433/421/441 440/427/443 432/419/447
f 449/438/457 443/416/446 441/429/445 446/439/458
f 431/415/430 448/440/459 443/416/431
f 448/440/459 431/415/430 426/414/429 445/441/460
f 431/415/450 449/438/457 444/442/461 425/432/451
f 448/440/459 447/443/462 442/417/432 443/416/431
f 443/416/446 449/438/457 431/415/450
f 422/426/442 434/424/439 452/409/424 451/433/452
f 434/424/439 429/423/438 450/410/425 452/409/424
f 486/409/463 484/410/464 455/411/465 464/412/466
f 453/413/467 460/414/468 465/415/469
f 477/416/470 476/417/471 461/418/472 466/419/473
f 466/419/473 472/420/474 467/421/475
f 467/421/475 462/422/476 463/423/477 468/424/478
f 457/425/479 467/421/480 468/424/478 456/426/481
f 474/427/482 467/421/480 457/425/479 469/428/483
f 475/429/484 477/416/485 466/419/486 458/430/487
f 453/431/488 465/415/489 459/432/490
f 485/433/491 486/409/463 464/412/466 454/434/492
f 466/419/486 474/427/482 473/435/493 458/430/487
f 467/421/475 472/420/474 471/436/494 462/422/476
f 472/420/474 466/419/473 461/418/472 470/437/495
f 467/421/480 474/427/482 466/419/486
f 483/438/496 477/416/485 475/429/484 480/439/497
f 465/415/469 482/440/498 477/416/470
f 482/440/498 465/415/469 460/414/468 479/441/499
f 465/415/489 483/438/496 478/442/500 459/432/490
f 482/440/498 481/443/501 476/417/471 477/416/470
f 477/416/485 483/438/496 465/415/489
f 456/426/481 468/424/478 486/409/463 485/433/491
f 468/424/478 463/423/477 484/410/464 486/409/463
f 520/409/502 518/410/503 489/411/504 498/412/505
f 487/413/506 494/414/507 499/415/508
f 511/416/509 510/417/510 495/418/511 500/419/512
f 500/419/512 506/420/513 501/421/514
f 501/421/514 496/422/515 497/423/516 502/424/517
f 491/425/518 501/421/519 502/424/517 490/426/520
f 508/427/521 501/421/519 491/425/518 503/428/522
f 509/429/523 511/416/524 500/419/525 492/430/526
f 487/431/527 499/415/528 493/432/529
f 519/433/530 520/409/502 498/412/505 488/434/531
f 500/419/525 508/427/521 507/435/532 492/430/526
f 501/421/514 506/420/513 505/436/533 496/422/515
f 506/420/513 500/419/512 495/418/511 504/437/534
f 501/421/519 508/427/521 500/419/525
f 517/438/535 511/416/524 509/429/523 514/439/536
f 499/415/508 516/440/537 511/416/509
f 516/440/537 499/415/508 494/414/507 513/441/538
f 499/415/528 517/438/535 512/442/539 493/432/529
f 516/440/537 515/443/540 510/417/510 511/416/509
f 511/416/524 517/438/535 499/415/528
f 490/426/520 502/424/517 520/409/502 519/433/530
f 502/424/517 497/423/516 518/410/503 520/409/502
f 554/409/541 552/410/542 523/411/543 532/412/544
f 521/413/545 528/414/546 533/415/547
f 545/416/548 544/417/549 529/418/550 534/419/551
f 534/419/551 540/420/552 535/421/553
f 535/421/553 530/422/554 531/423/555 536/424/556
f 525/425/557 535/421/558 536/424/556 524/426/559
f 542/427/560 535/421/558 525/425/557 537/428/561
f 543/429/562 545/416/563 534/419/564 526/430/565
f 521/431/566 533/415/567 527/432/568
f 553/433/569 554/409/541 532/412/544 522/434/570
f 534/419/564 542/427/560 541/435/571 526/430/565
f 535/421/553 540/420/552 539/436/572 530/422/554
f 540/420/552 534/419/551 529/418/550 538/437/573
f 535/421/558 542/427/560 534/419/564
f 551/438/574 545/416/563 543/429/562 548/439/575
f 533/415/547 550/440/576 545/416/548
f 550/440/576 533/415/547 528/414/546 547/441/577
f 533/415/567 551/438/574 546/442/578 527/432/568
f 550/440/576 549/443/579 544/417/549 545/416/548
f 545/416/563 551/438/574 533/415/567
f 524/426/559 536/424/556 554/409/541 553/433/569
f 536/424/556 531/423/555 552/410/542 554/409/541
f 588/409/580 586/410/581 557/411/582 566/412/583
f 555/413/584 562/414/585 567/415/586
f 579/416/587 578/417/588 563/418/589 568/419/590
f 568/419/590 574/420/591 569/421/592
f 569/421/592 564/422/593 565/423/594 570/424/595
f 559/425/596 569/421/597 570/424/595 558/426/598
f 576/427/599 569/421/597 559/425/596 571/428/600
f 577/429/601 579/416/602 568/419/603 560/430/604
f 555/431/605 567/415/606 561/432/607
f 587/433/608 588/409/580 566/412/583 556/434/609
f 568/419/603 576/427/599 575/435/610 560/430/604
f 569/421/592 574/420/591 573/436/611 564/422/593
f 574/420/591 568/419/590 563/418/589 572/437/612
f 569/421/597 576/427/599 568/419/603
f 585/438/613 579/416/602 577/429/601 582/439/614
f 567/415/586 584/440/615 579/416/587
f 584/440/615 567/415/586 562/414/585 581/441/616
f 567/415/606 585/438/613 580/442/617 561/432/607
f 584/440/615 583/443/618 578/417/588 579/416/587
f 579/416/602 585/438/613 567/415/606
f 558/426/598 570/424/595 588/409/580 587/433/608
f 570/424/595 565/423/594 586/410/581 588/409/580
f 622/409/619 620/410/620 591/411/621 600/412/622
f 589/413/623 596/414/624 601/415/625
f 613/416/626 612/417/627 597/418/628 602/419/629
f 602/419/629 608/420/630 603/421/631
f 603/421/631 598/422/632 599/423/633 604/424/634
f 593/425/635 603/421/636 604/424/634 592/426/637
f 610/427/638 603/421/636 593/425/635 605/428/639
f 611/429/640 613/416/641 602/419/642 594/430/643
f 589/431/644 601/415/645 595/432/646
f 621/433/647 622/409/619 600/412/622 590/434/648
f 602/419/642 610/427/638 609/435/649 594/430/643
f 603/421/631 608/420/630 607/436/650 598/422/632
f 608/420/630 602/419/629 597/418/628 606/437/651
f 603/421/636 610/427/638 602/419/642
f 619/438/652 613/416/641 611/429/640 616/439/653
f 601/415/625 618/440/654 613/416/626
f 618/440/654 601/415/625 596/414/624 615/441/655
f 601/415/645 619/438/652 614/442/656 595/432/646
f 618/440/654 617/443/657 612/417/627 613/416/626
f 613/416/641 619/438/652 601/415/645
f 592/426/637 604/424/634 622/409/619 621/433/647
f 604/424/634 599/423/633 620/410/620 622/409/619
f 656/409/658 654/410/659 625/411/660 634/412/661
f 623/413/662 630/414/663 635/415/664
f 647/416/665 646/417/666 631/418/667 636/419/668
f 636/419/668 642/420/669 637/421/670
f 637/421/670 632/422/671 633/423/672 638/424/673
f 627/425/674 637/421/675 638/424/673 626/426/676
f 644/427/677 637/421/675 627/425/674 639/428/678
f 645/429/679 647/416/680 636/419/681 628/430/682
f 623/431/683 635/415/684 629/432/685
f 655/433/686 656/409/658 634/412/661 624/434/687
f 636/419/681 644/427/677 643/435/688 628/430/682
f 637/421/670 642/420/669 641/436/689 632/422/671
f 642/420/669 636/419/668 631/418/667 640/437/690
f 637/421/675 644/427/677 636/419/681
f 653/438/691 647/416/680 645/429/679 650/439/692
f 635/415/664 652/440/693 647/416/665
f 652/440/693 635/415/664 630/414/663 649/441/694
f 635/415/684 653/438/691 648/442/695 629/432/685
f 652/440/693 651/443/696 646/417/666 647/416/665
f 647/416/680 653/438/691 635/415/684
f 626/426/676 638/424/673 656/409/658 655/433/686
f 638/424/673 633/423/672 654/410/659 656/409/658
