# Blender 4.4.3
# www.blender.org
mtllib umbrella.mtl
o Cylinder
v 0.000000 0.193715 -0.303357
v 0.000000 0.313559 -0.303357
v 0.214506 0.193715 -0.214506
v 0.214506 0.313559 -0.214506
v 0.303357 0.193715 0.000000
v 0.303357 0.313559 0.000000
v 0.214506 0.193715 0.214506
v 0.214506 0.313559 0.214506
v 0.000000 0.193715 0.303357
v 0.000000 0.313559 0.303357
v -0.214506 0.193715 0.214506
v -0.214506 0.313559 0.214506
v -0.303357 0.193715 0.000000
v -0.303357 0.313559 0.000000
v -0.214506 0.193715 -0.214506
v -0.214506 0.313559 -0.214506
v 0.000000 -0.025323 -1.000000
v 0.707107 -0.025323 -0.707107
v 0.707107 0.025323 -0.707107
v 0.000000 0.025323 -1.000000
v 1.000000 -0.025323 0.000000
v 1.000000 0.025323 0.000000
v 0.707107 -0.025323 0.707107
v 0.707107 0.025323 0.707107
v 0.000000 -0.025323 1.000000
v 0.000000 0.025323 1.000000
v -0.707107 -0.025323 0.707107
v -0.707107 0.025323 0.707107
v -1.000000 -0.025323 0.000000
v -1.000000 0.025323 0.000000
v -0.707107 -0.025323 -0.707107
v -0.707107 0.025323 -0.707107
v 0.000000 0.077564 -0.639895
v 0.452474 0.077564 -0.452474
v 0.452474 0.197409 -0.452474
v 0.000000 0.197409 -0.639895
v 0.639895 0.077564 0.000000
v 0.639895 0.197409 0.000000
v 0.452474 0.077564 0.452474
v 0.452474 0.197409 0.452474
v 0.000000 0.077564 0.639895
v 0.000000 0.197409 0.639895
v -0.452474 0.077564 0.452474
v -0.452474 0.197409 0.452474
v -0.639895 0.077564 0.000000
v -0.639895 0.197409 0.000000
v -0.452474 0.077564 -0.452474
v -0.452474 0.197409 -0.452474
vn 0.3827 -0.0000 -0.9239
vn 0.9239 -0.0000 -0.3827
vn 0.9239 -0.0000 0.3827
vn 0.3827 -0.0000 0.9239
vn -0.3827 -0.0000 0.9239
vn -0.9239 -0.0000 0.3827
vn 0.1449 0.9788 -0.1449
vn -0.0000 0.9788 -0.2050
vn -0.1449 0.9788 -0.1449
vn -0.2050 0.9788 -0.0000
vn -0.1449 0.9788 0.1449
vn -0.0000 0.9788 0.2050
vn 0.1449 0.9788 0.1449
vn 0.2050 0.9788 -0.0000
vn -0.9239 -0.0000 -0.3827
vn -0.3827 -0.0000 -0.9239
vn -0.0000 -0.9788 0.2050
vn -0.1449 -0.9788 0.1449
vn -0.2050 -0.9788 -0.0000
vn -0.1449 -0.9788 -0.1449
vn -0.0000 -0.9788 -0.2050
vn 0.1449 -0.9788 -0.1449
vn 0.2050 -0.9788 -0.0000
vn 0.1449 -0.9788 0.1449
vn -0.2082 -0.9557 0.2082
vn -0.0000 -0.9557 0.2944
vn -0.0000 -0.9615 0.2747
vn -0.1943 -0.9615 0.1943
vn -0.0000 0.9203 -0.3913
vn 0.2767 0.9203 -0.2767
vn 0.3049 0.9023 -0.3049
vn -0.0000 0.9023 -0.4312
vn -0.2944 -0.9557 -0.0000
vn -0.2747 -0.9615 -0.0000
vn 0.3913 0.9203 -0.0000
vn 0.4312 0.9023 -0.0000
vn -0.2082 -0.9557 -0.2082
vn -0.1943 -0.9615 -0.1943
vn 0.2767 0.9203 0.2767
vn 0.3049 0.9023 0.3049
vn -0.0000 -0.9557 -0.2944
vn -0.0000 -0.9615 -0.2747
vn -0.0000 0.9203 0.3913
vn -0.0000 0.9023 0.4312
vn 0.2082 -0.9557 -0.2082
vn 0.1943 -0.9615 -0.1943
vn -0.2767 0.9203 0.2767
vn -0.3049 0.9023 0.3049
vn 0.2944 -0.9557 -0.0000
vn 0.2747 -0.9615 -0.0000
vn -0.3913 0.9203 -0.0000
vn -0.4312 0.9023 -0.0000
vn 0.2082 -0.9557 0.2082
vn 0.1943 -0.9615 0.1943
vn -0.2767 0.9203 -0.2767
vn -0.3049 0.9023 -0.3049
vt 0.576546 0.350287
vt 0.574475 0.345521
vt 0.591465 0.324610
vt 0.596092 0.326644
vt 0.593279 0.297728
vt 0.598238 0.296148
vt 0.574584 0.279179
vt 0.576694 0.274446
vt 0.547811 0.280188
vt 0.545870 0.275351
vt 0.529106 0.300067
vt 0.524332 0.297924
vt 0.529240 0.327369
vt 0.524332 0.329128
vt 0.444198 0.858085
vt 0.415516 0.858085
vt 0.395234 0.837803
vt 0.395234 0.809121
vt 0.415516 0.788839
vt 0.444198 0.788839
vt 0.464480 0.809121
vt 0.464480 0.837803
vt 0.548159 0.346361
vt 0.546002 0.351075
vt 0.392391 0.947424
vt 0.392391 0.918661
vt 0.412729 0.898322
vt 0.441493 0.898322
vt 0.461831 0.918661
vt 0.461831 0.947424
vt 0.441493 0.967763
vt 0.412729 0.967763
vt 0.163989 0.808912
vt 0.178491 0.823535
vt 0.172311 0.838941
vt 0.148702 0.815406
vt 0.194519 0.787421
vt 0.194519 0.820895
vt 0.169915 0.830314
vt 0.169915 0.778003
vt 0.164109 0.788291
vt 0.148702 0.782051
vt 0.300182 0.902250
vt 0.300182 0.857009
vt 0.333435 0.844279
vt 0.333435 0.914980
vt 0.178791 0.773768
vt 0.172297 0.758460
vt 0.193435 0.911892
vt 0.193435 0.965956
vt 0.153696 0.981169
vt 0.153696 0.896679
vt 0.199442 0.773851
vt 0.205657 0.758435
vt 0.303142 0.821290
vt 0.303142 0.859845
vt 0.274803 0.870694
vt 0.274803 0.810441
vt 0.213974 0.788486
vt 0.229261 0.781987
vt 0.197262 0.814625
vt 0.197262 0.856192
vt 0.166709 0.867888
vt 0.166709 0.802928
vt 0.213864 0.809085
vt 0.229254 0.815326
vt 0.296686 0.781935
vt 0.296686 0.828888
vt 0.262174 0.842099
vt 0.262174 0.768723
vt 0.199135 0.823537
vt 0.205612 0.838849
vt 0.187694 0.857442
vt 0.187694 0.907324
vt 0.151029 0.921360
vt 0.151029 0.843406
vt 0.292732 0.969156
vt 0.292732 0.926822
vt 0.323848 0.914911
vt 0.323848 0.981068
vt 0.313570 0.807446
vt 0.313623 0.793703
vt 0.333406 0.785517
vt 0.333460 0.815599
vt 0.217204 0.796224
vt 0.217204 0.812093
vt 0.304026 0.817301
vt 0.312193 0.837180
vt 0.269522 0.890354
vt 0.269522 0.868906
vt 0.290269 0.817458
vt 0.281959 0.837275
vt 0.230075 0.926109
vt 0.230075 0.951739
vt 0.280399 0.807786
vt 0.260572 0.816008
vt 0.329271 0.831428
vt 0.329271 0.849706
vt 0.280501 0.793999
vt 0.260572 0.785774
vt 0.225432 0.825555
vt 0.225432 0.845261
vt 0.290091 0.784147
vt 0.281972 0.764234
vt 0.328506 0.794281
vt 0.328506 0.816541
vt 0.303842 0.784020
vt 0.312194 0.764281
vt 0.221499 0.870559
vt 0.221499 0.894207
vt 0.264042 0.958024
vt 0.264042 0.937955
s 1
usemtl Material
f 17/1/1 20/2/1 19/3/1 18/4/1
f 18/4/2 19/3/2 22/5/2 21/6/2
f 21/6/3 22/5/3 24/7/3 23/8/3
f 23/8/4 24/7/4 26/9/4 25/10/4
f 25/10/5 26/9/5 28/11/5 27/12/5
f 27/12/6 28/11/6 30/13/6 29/14/6
f 4/15/7 2/16/8 16/17/9 14/18/10 12/19/11 10/20/12 8/21/13 6/22/14
f 29/14/15 30/13/15 32/23/15 31/24/15
f 31/24/16 32/23/16 20/2/16 17/1/16
f 1/25/17 3/26/18 5/27/19 7/28/20 9/29/21 11/30/22 13/31/23 15/32/24
f 34/33/25 33/34/26 17/35/27 18/36/28
f 36/37/29 35/38/30 19/39/31 20/40/32
f 37/41/33 34/33/25 18/36/28 21/42/34
f 35/43/30 38/44/35 22/45/36 19/46/31
f 39/47/37 37/41/33 21/42/34 23/48/38
f 38/49/35 40/50/39 24/51/40 22/52/36
f 41/53/41 39/47/37 23/48/38 25/54/42
f 40/55/39 42/56/43 26/57/44 24/58/40
f 43/59/45 41/53/41 25/54/42 27/60/46
f 42/61/43 44/62/47 28/63/48 26/64/44
f 45/65/49 43/59/45 27/60/46 29/66/50
f 44/67/47 46/68/51 30/69/52 28/70/48
f 47/71/53 45/65/49 29/66/50 31/72/54
f 46/73/51 48/74/55 32/75/56 30/76/52
f 33/34/26 47/71/53 31/72/54 17/35/27
f 48/77/55 36/78/29 20/79/32 32/80/56
f 3/81/18 1/82/17 33/83/26 34/84/25
f 2/85/8 4/86/7 35/38/30 36/37/29
f 5/87/19 3/81/18 34/84/25 37/88/33
f 4/89/7 6/90/14 38/44/35 35/43/30
f 7/91/20 5/87/19 37/88/33 39/92/37
f 6/93/14 8/94/13 40/50/39 38/49/35
f 9/95/21 7/91/20 39/92/37 41/96/41
f 8/97/13 10/98/12 42/56/43 40/55/39
f 11/99/22 9/95/21 41/96/41 43/100/45
f 10/101/12 12/102/11 44/62/47 42/61/43
f 13/103/23 11/99/22 43/100/45 45/104/49
f 12/105/11 14/106/10 46/68/51 44/67/47
f 15/107/24 13/103/23 45/104/49 47/108/53
f 14/109/10 16/110/9 48/74/55 46/73/51
f 1/82/17 15/107/24 47/108/53 33/83/26
f 16/111/9 2/112/8 36/78/29 48/77/55
