# Blender 4.4.3
# www.blender.org
mtllib water.mtl
o Cylinder
v 0.000000 0.005058 -0.350721
v 0.000000 4.083986 -0.982904
v 0.068422 0.005058 -0.343982
v 0.191755 4.083986 -0.964017
v 0.134215 0.005058 -0.324024
v 0.376141 4.083986 -0.908084
v 0.194850 0.005058 -0.291614
v 0.546072 4.083986 -0.817254
v 0.247997 0.005058 -0.247997
v 0.695018 4.083986 -0.695018
v 0.291614 0.005058 -0.194850
v 0.817254 4.083986 -0.546072
v 0.324024 0.005058 -0.134215
v 0.908084 4.083986 -0.376141
v 0.343982 0.005058 -0.068422
v 0.964017 4.083986 -0.191755
v 0.350721 0.005058 0.000000
v 0.982904 4.083986 0.000000
v 0.343982 0.005058 0.068422
v 0.964017 4.083986 0.191755
v 0.324024 0.005058 0.134215
v 0.908084 4.083986 0.376141
v 0.291614 0.005058 0.194850
v 0.817254 4.083986 0.546072
v 0.247997 0.005058 0.247997
v 0.695018 4.083986 0.695018
v 0.194850 0.005058 0.291614
v 0.546072 4.083986 0.817254
v 0.134215 0.005058 0.324024
v 0.376141 4.083986 0.908084
v 0.068422 0.005058 0.343982
v 0.191755 4.083986 0.964017
v 0.000000 0.005058 0.350721
v 0.000000 4.083986 0.982904
v -0.068422 0.005058 0.343982
v -0.191755 4.083986 0.964017
v -0.134215 0.005058 0.324024
v -0.376141 4.083986 0.908084
v -0.194850 0.005058 0.291614
v -0.546072 4.083986 0.817254
v -0.247997 0.005058 0.247997
v -0.695018 4.083986 0.695018
v -0.291614 0.005058 0.194850
v -0.817254 4.083986 0.546072
v -0.324024 0.005058 0.134215
v -0.908084 4.083986 0.376141
v -0.343982 0.005058 0.068422
v -0.964017 4.083986 0.191755
v -0.350721 0.005058 0.000000
v -0.982904 4.083986 0.000000
v -0.343982 0.005058 -0.068422
v -0.964017 4.083986 -0.191755
v -0.324024 0.005058 -0.134215
v -0.908084 4.083986 -0.376141
v -0.291614 0.005058 -0.194850
v -0.817254 4.083986 -0.546072
v -0.247997 0.005058 -0.247997
v -0.695018 4.083986 -0.695018
v -0.194850 0.005058 -0.291614
v -0.546072 4.083986 -0.817254
v -0.134215 0.005058 -0.324024
v -0.376141 4.083986 -0.908084
v -0.068422 0.005058 -0.343982
v -0.191755 4.083986 -0.964017
v 0.000000 1.717090 -0.583571
v 0.000000 3.018938 -0.773405
v 0.150884 3.018938 -0.758544
v 0.113849 1.717090 -0.572358
v 0.295969 3.018938 -0.714533
v 0.223323 1.717090 -0.539149
v 0.429681 3.018938 -0.643063
v 0.324214 1.717090 -0.485221
v 0.546880 3.018938 -0.546880
v 0.412647 1.717090 -0.412647
v 0.643063 3.018938 -0.429681
v 0.485221 1.717090 -0.324214
v 0.714533 3.018938 -0.295969
v 0.539149 1.717090 -0.223323
v 0.758544 3.018938 -0.150884
v 0.572358 1.717090 -0.113849
v 0.773405 3.018938 0.000000
v 0.583571 1.717090 0.000000
v 0.758544 3.018938 0.150884
v 0.572358 1.717090 0.113849
v 0.714533 3.018938 0.295969
v 0.539149 1.717090 0.223323
v 0.643063 3.018938 0.429681
v 0.485221 1.717090 0.324214
v 0.546880 3.018938 0.546880
v 0.412647 1.717090 0.412647
v 0.429681 3.018938 0.643063
v 0.324214 1.717090 0.485221
v 0.295969 3.018938 0.714533
v 0.223323 1.717090 0.539149
v 0.150884 3.018938 0.758544
v 0.113849 1.717090 0.572358
v 0.000000 3.018938 0.773405
v 0.000000 1.717090 0.583571
v -0.150884 3.018938 0.758544
v -0.113849 1.717090 0.572358
v -0.295969 3.018938 0.714533
v -0.223323 1.717090 0.539149
v -0.429681 3.018938 0.643063
v -0.324214 1.717090 0.485221
v -0.546880 3.018938 0.546880
v -0.412647 1.717090 0.412647
v -0.643063 3.018938 0.429681
v -0.485221 1.717090 0.324214
v -0.714533 3.018938 0.295969
v -0.539149 1.717090 0.223323
v -0.758544 3.018938 0.150884
v -0.572358 1.717090 0.113849
v -0.773405 3.018938 0.000000
v -0.583571 1.717090 0.000000
v -0.758544 3.018938 -0.150884
v -0.572358 1.717090 -0.113849
v -0.714533 3.018938 -0.295969
v -0.539149 1.717090 -0.223323
v -0.643063 3.018938 -0.429681
v -0.485221 1.717090 -0.324214
v -0.546880 3.018938 -0.546880
v -0.412647 1.717090 -0.412647
v -0.429681 3.018938 -0.643063
v -0.324214 1.717090 -0.485221
v -0.295969 3.018938 -0.714533
v -0.223323 1.717090 -0.539149
v -0.150884 3.018938 -0.758544
v -0.113849 1.717090 -0.572358
v -0.000000 4.393842 -1.218109
v 0.237641 4.393842 -1.194703
v 0.466150 4.393842 -1.125386
v 0.676745 4.393842 -1.012821
v 0.861333 4.393842 -0.861333
v 1.012821 4.393842 -0.676745
v 1.125386 4.393842 -0.466150
v 1.194703 4.393842 -0.237641
v 1.218109 4.393842 -0.000000
v 1.194703 4.393842 0.237641
v 1.125386 4.393842 0.466150
v 1.012821 4.393842 0.676745
v 0.861333 4.393842 0.861333
v 0.676745 4.393842 1.012821
v 0.466150 4.393842 1.125386
v 0.237641 4.393842 1.194703
v -0.000000 4.393842 1.218109
v -0.237641 4.393842 1.194703
v -0.466150 4.393842 1.125386
v -0.676745 4.393842 1.012821
v -0.861333 4.393842 0.861333
v -1.012821 4.393842 0.676745
v -1.125386 4.393842 0.466150
v -1.194703 4.393842 0.237641
v -1.218109 4.393842 -0.000000
v -1.194703 4.393842 -0.237641
v -1.125386 4.393842 -0.466150
v -1.012821 4.393842 -0.676745
v -0.861333 4.393842 -0.861333
v -0.676745 4.393842 -1.012821
v -0.466150 4.393842 -1.125386
v -0.237641 4.393842 -1.194703
v -0.000000 4.661051 -1.541351
v 0.300703 4.661051 -1.511734
v 0.589849 4.661051 -1.424023
v 0.856329 4.661051 -1.281586
v 1.089900 4.661051 -1.089900
v 1.281586 4.661051 -0.856329
v 1.424023 4.661051 -0.589849
v 1.511734 4.661051 -0.300703
v 1.541351 4.661051 -0.000000
v 1.511734 4.661051 0.300703
v 1.424023 4.661051 0.589849
v 1.281586 4.661051 0.856329
v 1.089900 4.661051 1.089900
v 0.856329 4.661051 1.281586
v 0.589849 4.661051 1.424023
v 0.300703 4.661051 1.511734
v -0.000000 4.661051 1.541351
v -0.300703 4.661051 1.511734
v -0.589849 4.661051 1.424023
v -0.856329 4.661051 1.281586
v -1.089900 4.661051 1.089900
v -1.281586 4.661051 0.856329
v -1.424023 4.661051 0.589849
v -1.511734 4.661051 0.300703
v -1.541351 4.661051 -0.000000
v -1.511734 4.661051 -0.300703
v -1.424023 4.661051 -0.589849
v -1.281586 4.661051 -0.856329
v -1.089900 4.661051 -1.089900
v -0.856329 4.661051 -1.281586
v -0.589849 4.661051 -1.424023
v -0.300703 4.661051 -1.511734
v -0.000000 4.739067 -2.259076
v 0.440724 4.739067 -2.215668
v 0.864511 4.739067 -2.087114
v 1.255075 4.739067 -1.878353
v 1.597408 4.739067 -1.597408
v 1.878353 4.739067 -1.255075
v 2.087114 4.739067 -0.864511
v 2.215668 4.739067 -0.440724
v 2.259076 4.739067 0.000000
v 2.215668 4.739067 0.440724
v 2.087114 4.739067 0.864511
v 1.878353 4.739067 1.255075
v 1.597408 4.739067 1.597408
v 1.255075 4.739067 1.878353
v 0.864511 4.739067 2.087114
v 0.440724 4.739067 2.215668
v -0.000000 4.739067 2.259076
v -0.440724 4.739067 2.215668
v -0.864511 4.739067 2.087114
v -1.255075 4.739067 1.878353
v -1.597408 4.739067 1.597408
v -1.878353 4.739067 1.255075
v -2.087114 4.739067 0.864511
v -2.215668 4.739067 0.440724
v -2.259076 4.739067 0.000000
v -2.215668 4.739067 -0.440724
v -2.087114 4.739067 -0.864511
v -1.878353 4.739067 -1.255075
v -1.597408 4.739067 -1.597408
v -1.255075 4.739067 -1.878353
v -0.864511 4.739067 -2.087114
v -0.440724 4.739067 -2.215668
v -0.000000 4.582473 -2.507418
v 0.489173 4.582473 -2.459238
v 0.959547 4.582473 -2.316552
v 1.393047 4.582473 -2.084841
v 1.773012 4.582473 -1.773012
v 2.084841 4.582473 -1.393047
v 2.316552 4.582473 -0.959547
v 2.459238 4.582473 -0.489173
v 2.507418 4.582473 0.000000
v 2.459238 4.582473 0.489173
v 2.316552 4.582473 0.959547
v 2.084841 4.582473 1.393047
v 1.773012 4.582473 1.773012
v 1.393047 4.582473 2.084842
v 0.959547 4.582473 2.316552
v 0.489173 4.582473 2.459238
v -0.000000 4.582473 2.507418
v -0.489173 4.582473 2.459238
v -0.959547 4.582473 2.316552
v -1.393047 4.582473 2.084842
v -1.773012 4.582473 1.773012
v -2.084841 4.582473 1.393047
v -2.316552 4.582473 0.959547
v -2.459238 4.582473 0.489173
v -2.507418 4.582473 0.000000
v -2.459238 4.582473 -0.489173
v -2.316552 4.582473 -0.959547
v -2.084841 4.582473 -1.393047
v -1.773012 4.582473 -1.773012
v -1.393047 4.582473 -2.084841
v -0.959547 4.582473 -2.316552
v -0.489173 4.582473 -2.459238
v -0.000000 4.336915 -2.724963
v 0.531614 4.336915 -2.672603
v 1.042798 4.336915 -2.517537
v 1.513908 4.336915 -2.265723
v 1.926840 4.336915 -1.926840
v 2.265724 4.336915 -1.513909
v 2.517537 4.336915 -1.042798
v 2.672603 4.336915 -0.531614
v 2.724963 4.336915 0.000000
v 2.672603 4.336915 0.531614
v 2.517537 4.336915 1.042798
v 2.265724 4.336915 1.513908
v 1.926840 4.336915 1.926840
v 1.513908 4.336915 2.265724
v 1.042798 4.336915 2.517537
v 0.531614 4.336915 2.672603
v -0.000000 4.336915 2.724963
v -0.531614 4.336915 2.672603
v -1.042798 4.336915 2.517537
v -1.513908 4.336915 2.265724
v -1.926840 4.336915 1.926840
v -2.265724 4.336915 1.513908
v -2.517537 4.336915 1.042798
v -2.672603 4.336915 0.531614
v -2.724963 4.336915 0.000000
v -2.672603 4.336915 -0.531614
v -2.517537 4.336915 -1.042798
v -2.265724 4.336915 -1.513909
v -1.926840 4.336915 -1.926840
v -1.513908 4.336915 -2.265723
v -1.042798 4.336915 -2.517537
v -0.531614 4.336915 -2.672603
v -0.000000 3.991175 -2.894600
v 0.564708 3.991175 -2.838981
v 1.107716 3.991175 -2.674262
v 1.608154 3.991175 -2.406772
v 2.046792 3.991175 -2.046792
v 2.406772 3.991175 -1.608154
v 2.674262 3.991175 -1.107716
v 2.838981 3.991175 -0.564709
v 2.894600 3.991175 0.000000
v 2.838981 3.991175 0.564708
v 2.674262 3.991175 1.107716
v 2.406772 3.991175 1.608154
v 2.046792 3.991175 2.046792
v 1.608154 3.991175 2.406772
v 1.107716 3.991175 2.674262
v 0.564708 3.991175 2.838981
v -0.000000 3.991175 2.894600
v -0.564709 3.991175 2.838981
v -1.107716 3.991175 2.674262
v -1.608154 3.991175 2.406772
v -2.046792 3.991175 2.046792
v -2.406772 3.991175 1.608154
v -2.674262 3.991175 1.107716
v -2.838981 3.991175 0.564708
v -2.894600 3.991175 0.000000
v -2.838981 3.991175 -0.564709
v -2.674262 3.991175 -1.107716
v -2.406772 3.991175 -1.608154
v -2.046792 3.991175 -2.046792
v -1.608154 3.991175 -2.406772
v -1.107716 3.991175 -2.674262
v -0.564709 3.991175 -2.838981
v -0.000000 2.292539 -3.437690
v 0.670660 2.446601 -3.371635
v 1.315547 2.292539 -3.176011
v 1.909878 2.446601 -2.858334
v 2.430814 2.292539 -2.430814
v 2.858334 2.446601 -1.909878
v 3.176011 2.292539 -1.315547
v 3.371635 2.446601 -0.670660
v 3.437690 2.292539 -0.000000
v 3.371635 2.446601 0.670660
v 3.176011 2.292539 1.315547
v 2.858334 2.446601 1.909878
v 2.430814 2.292539 2.430814
v 1.909878 2.446601 2.858335
v 1.315547 2.292539 3.176011
v 0.670660 2.446601 3.371635
v -0.000000 2.292539 3.437690
v -0.670660 2.446601 3.371635
v -1.315547 2.292539 3.176011
v -1.909878 2.446601 2.858335
v -2.430814 2.292539 2.430814
v -2.858334 2.446601 1.909878
v -3.176011 2.292539 1.315547
v -3.371635 2.446601 0.670660
v -3.437690 2.292539 -0.000000
v -3.371635 2.446601 -0.670660
v -3.176011 2.292539 -1.315547
v -2.858334 2.446601 -1.909878
v -2.430814 2.292539 -2.430814
v -1.909878 2.446601 -2.858334
v -1.315547 2.292539 -3.176011
v -0.670660 2.446601 -3.371635
vn -0.0000 -0.1348 -0.9909
vn -0.0000 -0.4147 -0.9100
vn 0.1933 -0.1348 -0.9718
vn 0.1775 -0.4147 -0.8925
vn 0.3792 -0.1348 -0.9155
vn 0.3482 -0.4147 -0.8407
vn 0.5505 -0.1348 -0.8239
vn 0.5055 -0.4147 -0.7566
vn 0.7007 -0.1348 -0.7007
vn 0.6434 -0.4147 -0.6434
vn 0.8239 -0.1348 -0.5505
vn 0.7566 -0.4147 -0.5055
vn 0.9155 -0.1348 -0.3792
vn 0.8407 -0.4147 -0.3482
vn 0.9718 -0.1348 -0.1933
vn 0.8925 -0.4147 -0.1775
vn 0.9909 -0.1348 -0.0000
vn 0.9100 -0.4147 -0.0000
vn 0.9718 -0.1348 0.1933
vn 0.8925 -0.4147 0.1775
vn 0.9155 -0.1348 0.3792
vn 0.8407 -0.4147 0.3482
vn 0.8239 -0.1348 0.5505
vn 0.7566 -0.4147 0.5055
vn 0.7007 -0.1348 0.7007
vn 0.6434 -0.4147 0.6434
vn 0.5505 -0.1348 0.8239
vn 0.5055 -0.4147 0.7566
vn 0.3792 -0.1348 0.9155
vn 0.3482 -0.4147 0.8407
vn 0.1933 -0.1348 0.9718
vn 0.1775 -0.4147 0.8925
vn -0.0000 -0.1348 0.9909
vn -0.0000 -0.4147 0.9100
vn -0.1933 -0.1348 0.9718
vn -0.1775 -0.4147 0.8925
vn -0.3792 -0.1348 0.9155
vn -0.3482 -0.4147 0.8407
vn -0.5505 -0.1348 0.8239
vn -0.5055 -0.4147 0.7566
vn -0.7007 -0.1348 0.7007
vn -0.6434 -0.4147 0.6434
vn -0.8239 -0.1348 0.5505
vn -0.7566 -0.4147 0.5055
vn -0.9155 -0.1348 0.3792
vn -0.8407 -0.4147 0.3482
vn -0.9718 -0.1348 0.1933
vn -0.8925 -0.4147 0.1775
vn -0.9909 -0.1348 -0.0000
vn -0.9100 -0.4147 -0.0000
vn -0.9718 -0.1348 -0.1933
vn -0.8925 -0.4147 -0.1775
vn -0.9155 -0.1348 -0.3792
vn -0.8407 -0.4147 -0.3482
vn -0.8239 -0.1348 -0.5505
vn -0.7566 -0.4147 -0.5055
vn -0.7007 -0.1348 -0.7007
vn -0.6434 -0.4147 -0.6434
vn -0.5505 -0.1348 -0.8239
vn -0.5055 -0.4147 -0.7566
vn -0.3792 -0.1348 -0.9155
vn -0.3482 -0.4147 -0.8407
vn -0.1933 -0.1348 -0.9718
vn -0.1775 -0.4147 -0.8925
vn -0.0000 -0.1396 -0.9902
vn -0.0000 -0.1690 -0.9856
vn 0.1923 -0.1690 -0.9667
vn 0.1932 -0.1396 -0.9712
vn 0.3772 -0.1690 -0.9106
vn 0.3789 -0.1396 -0.9148
vn 0.5476 -0.1690 -0.8195
vn 0.5501 -0.1396 -0.8233
vn 0.6969 -0.1690 -0.6969
vn 0.7002 -0.1396 -0.7002
vn 0.8195 -0.1690 -0.5476
vn 0.8233 -0.1396 -0.5501
vn 0.9106 -0.1690 -0.3772
vn 0.9148 -0.1396 -0.3789
vn 0.9667 -0.1690 -0.1923
vn 0.9712 -0.1396 -0.1932
vn 0.9856 -0.1690 -0.0000
vn 0.9902 -0.1396 -0.0000
vn 0.9667 -0.1690 0.1923
vn 0.9712 -0.1396 0.1932
vn 0.9106 -0.1690 0.3772
vn 0.9148 -0.1396 0.3789
vn 0.8195 -0.1690 0.5476
vn 0.8233 -0.1396 0.5501
vn 0.6969 -0.1690 0.6969
vn 0.7002 -0.1396 0.7002
vn 0.5476 -0.1690 0.8195
vn 0.5501 -0.1396 0.8233
vn 0.3772 -0.1690 0.9106
vn 0.3789 -0.1396 0.9148
vn 0.1923 -0.1690 0.9667
vn 0.1932 -0.1396 0.9712
vn -0.0000 -0.1690 0.9856
vn -0.0000 -0.1396 0.9902
vn -0.1923 -0.1690 0.9667
vn -0.1932 -0.1396 0.9712
vn -0.3772 -0.1690 0.9106
vn -0.3789 -0.1396 0.9148
vn -0.5476 -0.1690 0.8195
vn -0.5501 -0.1396 0.8233
vn -0.6969 -0.1690 0.6969
vn -0.7002 -0.1396 0.7002
vn -0.8195 -0.1690 0.5476
vn -0.8233 -0.1396 0.5501
vn -0.9106 -0.1690 0.3772
vn -0.9148 -0.1396 0.3789
vn -0.9667 -0.1690 0.1923
vn -0.9712 -0.1396 0.1932
vn -0.9856 -0.1690 -0.0000
vn -0.9902 -0.1396 -0.0000
vn -0.9667 -0.1690 -0.1923
vn -0.9712 -0.1396 -0.1932
vn -0.9106 -0.1690 -0.3772
vn -0.9148 -0.1396 -0.3789
vn -0.8195 -0.1690 -0.5476
vn -0.8233 -0.1396 -0.5501
vn -0.6969 -0.1690 -0.6969
vn -0.7002 -0.1396 -0.7002
vn -0.5476 -0.1690 -0.8195
vn -0.5501 -0.1396 -0.8233
vn -0.3772 -0.1690 -0.9106
vn -0.3789 -0.1396 -0.9148
vn -0.1923 -0.1690 -0.9667
vn -0.1932 -0.1396 -0.9712
vn -0.0000 -0.6959 -0.7181
vn 0.1401 -0.6959 -0.7043
vn 0.2748 -0.6959 -0.6635
vn 0.3990 -0.6959 -0.5971
vn 0.5078 -0.6959 -0.5078
vn 0.5971 -0.6959 -0.3990
vn 0.6635 -0.6959 -0.2748
vn 0.7043 -0.6959 -0.1401
vn 0.7181 -0.6959 -0.0000
vn 0.7043 -0.6959 0.1401
vn 0.6635 -0.6959 0.2748
vn 0.5971 -0.6959 0.3990
vn 0.5078 -0.6959 0.5078
vn 0.3990 -0.6959 0.5971
vn 0.2748 -0.6959 0.6635
vn 0.1401 -0.6959 0.7043
vn -0.0000 -0.6959 0.7181
vn -0.1401 -0.6959 0.7043
vn -0.2748 -0.6959 0.6635
vn -0.3990 -0.6959 0.5971
vn -0.5078 -0.6959 0.5078
vn -0.5971 -0.6959 0.3990
vn -0.6635 -0.6959 0.2748
vn -0.7043 -0.6959 0.1401
vn -0.7181 -0.6959 -0.0000
vn -0.7043 -0.6959 -0.1401
vn -0.6635 -0.6959 -0.2748
vn -0.5971 -0.6959 -0.3990
vn -0.5078 -0.6959 -0.5078
vn -0.3990 -0.6959 -0.5971
vn -0.2748 -0.6959 -0.6635
vn -0.1401 -0.6959 -0.7043
vn -0.0000 -0.9276 -0.3736
vn 0.0729 -0.9276 -0.3664
vn 0.1430 -0.9276 -0.3451
vn 0.2075 -0.9276 -0.3106
vn 0.2641 -0.9276 -0.2641
vn 0.3106 -0.9276 -0.2075
vn 0.3451 -0.9276 -0.1430
vn 0.3664 -0.9276 -0.0729
vn 0.3736 -0.9276 -0.0000
vn 0.3664 -0.9276 0.0729
vn 0.3451 -0.9276 0.1430
vn 0.3106 -0.9276 0.2075
vn 0.2641 -0.9276 0.2641
vn 0.2075 -0.9276 0.3106
vn 0.1430 -0.9276 0.3451
vn 0.0729 -0.9276 0.3664
vn -0.0000 -0.9276 0.3736
vn -0.0729 -0.9276 0.3664
vn -0.1430 -0.9276 0.3451
vn -0.2075 -0.9276 0.3106
vn -0.2641 -0.9276 0.2641
vn -0.3106 -0.9276 0.2075
vn -0.3451 -0.9276 0.1430
vn -0.3664 -0.9276 0.0729
vn -0.3736 -0.9276 -0.0000
vn -0.3664 -0.9276 -0.0729
vn -0.3451 -0.9276 -0.1430
vn -0.3106 -0.9276 -0.2075
vn -0.2641 -0.9276 -0.2641
vn -0.2075 -0.9276 -0.3106
vn -0.1430 -0.9276 -0.3451
vn -0.0729 -0.9276 -0.3664
vn -0.0000 -0.9696 0.2445
vn -0.0477 -0.9696 0.2398
vn -0.0936 -0.9696 0.2259
vn -0.1359 -0.9696 0.2033
vn -0.1729 -0.9696 0.1729
vn -0.2033 -0.9696 0.1359
vn -0.2259 -0.9696 0.0936
vn -0.2398 -0.9696 0.0477
vn -0.2445 -0.9696 -0.0000
vn -0.2398 -0.9696 -0.0477
vn -0.2259 -0.9696 -0.0936
vn -0.2033 -0.9696 -0.1359
vn -0.1729 -0.9696 -0.1729
vn -0.1359 -0.9696 -0.2033
vn -0.0936 -0.9696 -0.2259
vn -0.0477 -0.9696 -0.2398
vn -0.0000 -0.9696 -0.2445
vn 0.0477 -0.9696 -0.2398
vn 0.0936 -0.9696 -0.2259
vn 0.1359 -0.9696 -0.2033
vn 0.1729 -0.9696 -0.1729
vn 0.2033 -0.9696 -0.1359
vn 0.2259 -0.9696 -0.0936
vn 0.2398 -0.9696 -0.0477
vn 0.2445 -0.9696 -0.0000
vn 0.2398 -0.9696 0.0477
vn 0.2259 -0.9696 0.0936
vn 0.2033 -0.9696 0.1359
vn 0.1729 -0.9696 0.1729
vn 0.1359 -0.9696 0.2033
vn 0.0936 -0.9696 0.2259
vn 0.0477 -0.9696 0.2398
vn -0.0000 -0.7578 0.6525
vn -0.1273 -0.7578 0.6399
vn -0.2497 -0.7578 0.6028
vn -0.3625 -0.7578 0.5425
vn -0.4614 -0.7578 0.4614
vn -0.5425 -0.7578 0.3625
vn -0.6028 -0.7578 0.2497
vn -0.6399 -0.7578 0.1273
vn -0.6525 -0.7578 -0.0000
vn -0.6399 -0.7578 -0.1273
vn -0.6028 -0.7578 -0.2497
vn -0.5425 -0.7578 -0.3625
vn -0.4614 -0.7578 -0.4614
vn -0.3625 -0.7578 -0.5425
vn -0.2497 -0.7578 -0.6028
vn -0.1273 -0.7578 -0.6399
vn -0.0000 -0.7578 -0.6525
vn 0.1273 -0.7578 -0.6399
vn 0.2497 -0.7578 -0.6028
vn 0.3625 -0.7578 -0.5425
vn 0.4614 -0.7578 -0.4614
vn 0.5425 -0.7578 -0.3625
vn 0.6028 -0.7578 -0.2497
vn 0.6399 -0.7578 -0.1273
vn 0.6525 -0.7578 -0.0000
vn 0.6399 -0.7578 0.1273
vn 0.6028 -0.7578 0.2497
vn 0.5425 -0.7578 0.3625
vn 0.4614 -0.7578 0.4614
vn 0.3625 -0.7578 0.5425
vn 0.2497 -0.7578 0.6028
vn 0.1273 -0.7578 0.6399
vn -0.0000 -0.5530 0.8332
vn -0.1625 -0.5530 0.8172
vn -0.3188 -0.5530 0.7698
vn -0.4629 -0.5530 0.6928
vn -0.5892 -0.5530 0.5892
vn -0.6928 -0.5530 0.4629
vn -0.7698 -0.5530 0.3188
vn -0.8172 -0.5530 0.1625
vn -0.8332 -0.5530 -0.0000
vn -0.8172 -0.5530 -0.1625
vn -0.7698 -0.5530 -0.3188
vn -0.6928 -0.5530 -0.4629
vn -0.5892 -0.5530 -0.5892
vn -0.4629 -0.5530 -0.6928
vn -0.3188 -0.5530 -0.7698
vn -0.1625 -0.5530 -0.8172
vn -0.0000 -0.5530 -0.8332
vn 0.1625 -0.5530 -0.8172
vn 0.3188 -0.5530 -0.7698
vn 0.4629 -0.5530 -0.6928
vn 0.5892 -0.5530 -0.5892
vn 0.6928 -0.5530 -0.4629
vn 0.7698 -0.5530 -0.3188
vn 0.8172 -0.5530 -0.1625
vn 0.8332 -0.5530 -0.0000
vn 0.8172 -0.5530 0.1625
vn 0.7698 -0.5530 0.3188
vn 0.6928 -0.5530 0.4629
vn 0.5892 -0.5530 0.5892
vn 0.4629 -0.5530 0.6928
vn 0.3188 -0.5530 0.7698
vn 0.1625 -0.5530 0.8172
vn -0.0000 -0.3778 0.9259
vn -0.1805 -0.3791 0.9076
vn -0.3543 -0.3778 0.8554
vn -0.5141 -0.3791 0.7694
vn -0.6547 -0.3778 0.6547
vn -0.7694 -0.3791 0.5141
vn -0.8554 -0.3778 0.3543
vn -0.9076 -0.3791 0.1805
vn -0.9259 -0.3778 -0.0000
vn -0.9076 -0.3791 -0.1805
vn -0.8554 -0.3778 -0.3543
vn -0.7694 -0.3791 -0.5141
vn -0.6547 -0.3778 -0.6547
vn -0.5141 -0.3791 -0.7694
vn -0.3543 -0.3778 -0.8554
vn -0.1805 -0.3791 -0.9076
vn -0.0000 -0.3778 -0.9259
vn 0.1805 -0.3791 -0.9076
vn 0.3543 -0.3778 -0.8554
vn 0.5141 -0.3791 -0.7694
vn 0.6547 -0.3778 -0.6547
vn 0.7694 -0.3791 -0.5141
vn 0.8554 -0.3778 -0.3543
vn 0.9076 -0.3791 -0.1805
vn 0.9259 -0.3778 -0.0000
vn 0.9076 -0.3791 0.1805
vn 0.8554 -0.3778 0.3543
vn 0.7694 -0.3791 0.5141
vn 0.6547 -0.3778 0.6547
vn 0.5141 -0.3791 0.7694
vn 0.3543 -0.3778 0.8554
vn 0.1805 -0.3791 0.9076
vn -0.0000 -0.3164 0.9486
vn -0.1849 -0.3187 0.9296
vn -0.3630 -0.3164 0.8764
vn -0.5266 -0.3187 0.7881
vn -0.6708 -0.3164 0.6708
vn -0.7881 -0.3187 0.5266
vn -0.8764 -0.3164 0.3630
vn -0.9296 -0.3187 0.1849
vn -0.9486 -0.3164 -0.0000
vn -0.9296 -0.3187 -0.1849
vn -0.8764 -0.3164 -0.3630
vn -0.7881 -0.3187 -0.5266
vn -0.6708 -0.3164 -0.6708
vn -0.5266 -0.3187 -0.7881
vn -0.3630 -0.3164 -0.8764
vn -0.1849 -0.3187 -0.9296
vn -0.0000 -0.3164 -0.9486
vn 0.1849 -0.3187 -0.9296
vn 0.3630 -0.3164 -0.8764
vn 0.5266 -0.3187 -0.7881
vn 0.6708 -0.3164 -0.6708
vn 0.7881 -0.3187 -0.5266
vn 0.8764 -0.3164 -0.3630
vn 0.9296 -0.3187 -0.1849
vn 0.9486 -0.3164 -0.0000
vn 0.9296 -0.3187 0.1849
vn 0.8764 -0.3164 0.3630
vn 0.7881 -0.3187 0.5266
vn 0.6708 -0.3164 0.6708
vn 0.5266 -0.3187 0.7881
vn 0.3630 -0.3164 0.8764
vn 0.1849 -0.3187 0.9296
vt 0.561727 0.377280
vt 0.585465 0.500816
vt 0.564124 0.506958
vt 0.544244 0.379834
vt 0.541321 0.511739
vt 0.526657 0.381787
vt 0.517546 0.514830
vt 0.508907 0.383106
vt 0.493266 0.516078
vt 0.491067 0.383752
vt 0.468970 0.515542
vt 0.473212 0.383675
vt 0.445129 0.513173
vt 0.455420 0.382927
vt 0.422068 0.509085
vt 0.437781 0.381558
vt 0.400219 0.503714
vt 0.420326 0.379569
vt 0.553238 0.371091
vt 0.578389 0.496459
vt 0.556581 0.502909
vt 0.535616 0.373772
vt 0.533230 0.507777
vt 0.517762 0.375851
vt 0.509118 0.511172
vt 0.499742 0.377282
vt 0.484404 0.512422
vt 0.481626 0.378028
vt 0.459663 0.512002
vt 0.463500 0.378071
vt 0.435346 0.509753
vt 0.445434 0.377391
vt 0.411896 0.505772
vt 0.427523 0.376067
vt 0.389981 0.500190
vt 0.409800 0.374134
vt 0.562410 0.389184
vt 0.584069 0.515015
vt 0.562282 0.520836
vt 0.544619 0.391430
vt 0.539023 0.525238
vt 0.526734 0.393064
vt 0.514824 0.527915
vt 0.508697 0.394051
vt 0.490154 0.528704
vt 0.490581 0.394353
vt 0.465506 0.527663
vt 0.472466 0.393918
vt 0.441368 0.524760
vt 0.454428 0.392805
vt 0.418059 0.520129
vt 0.436560 0.391064
vt 0.396010 0.514229
vt 0.418891 0.388699
vt 0.558189 0.386952
vt 0.582527 0.509863
vt 0.561179 0.516116
vt 0.540893 0.389547
vt 0.538330 0.520829
vt 0.523394 0.391551
vt 0.514741 0.524109
vt 0.505734 0.392922
vt 0.490573 0.525295
vt 0.487979 0.393621
vt 0.466388 0.524858
vt 0.470213 0.393633
vt 0.442629 0.522640
vt 0.452506 0.392938
vt 0.445329 0.239723
vt 0.434947 0.391614
vt 0.417565 0.389692
vt 0.432173 0.238701
vt 0.419737 0.518727
vt 0.397954 0.513450
vt 0.457205 0.040636
vt 0.449293 0.040059
vt 0.465131 0.041003
vt 0.458521 0.240384
vt 0.473063 0.041161
vt 0.471739 0.240677
vt 0.480998 0.041108
vt 0.484964 0.240598
vt 0.488928 0.040845
vt 0.498182 0.240149
vt 0.496847 0.040372
vt 0.511376 0.239331
vt 0.504751 0.039690
vt 0.524532 0.238148
vt 0.512633 0.038799
vt 0.537641 0.236606
vt 0.467328 0.033551
vt 0.450647 0.236370
vt 0.437250 0.235025
vt 0.459270 0.032781
vt 0.475404 0.034107
vt 0.464089 0.237347
vt 0.483492 0.034449
vt 0.477565 0.237949
vt 0.491587 0.034577
vt 0.491058 0.238172
vt 0.499683 0.034491
vt 0.504552 0.238017
vt 0.507773 0.034190
vt 0.518031 0.237485
vt 0.515851 0.033675
vt 0.531479 0.236581
vt 0.523914 0.032947
vt 0.544887 0.235309
vt 0.449554 0.017903
vt 0.437827 0.221080
vt 0.424402 0.220063
vt 0.441478 0.017330
vt 0.457642 0.018262
vt 0.451289 0.221729
vt 0.465737 0.018407
vt 0.464776 0.222001
vt 0.473833 0.018338
vt 0.478271 0.221896
vt 0.481925 0.018054
vt 0.491757 0.221411
vt 0.490005 0.017555
vt 0.505219 0.220551
vt 0.498069 0.016844
vt 0.518640 0.219319
vt 0.506112 0.015919
vt 0.532018 0.217720
vt 0.461203 0.028739
vt 0.448677 0.228882
vt 0.435453 0.227815
vt 0.453249 0.028136
vt 0.469171 0.029132
vt 0.461938 0.229585
vt 0.477146 0.029313
vt 0.475227 0.229918
vt 0.485124 0.029283
vt 0.488525 0.229879
vt 0.493098 0.029042
vt 0.501816 0.229466
vt 0.501063 0.028590
vt 0.515085 0.228682
vt 0.509012 0.027927
vt 0.528317 0.227533
vt 0.516941 0.027054
vt 0.541502 0.226020
vt 0.404477 0.564095
vt 0.379908 0.553832
vt 0.577572 0.550649
vt 0.550627 0.558358
vt 0.543313 0.555104
vt 0.514578 0.560167
vt 0.518768 0.577112
vt 0.489429 0.578184
vt 0.491277 0.573967
vt 0.462489 0.572953
vt 0.436531 0.559628
vt 0.409586 0.552704
vt 0.399538 0.550281
vt 0.374178 0.540327
vt 0.599463 0.548931
vt 0.574704 0.559447
vt 0.522378 0.563201
vt 0.485223 0.562222
vt 0.460196 0.576470
vt 0.434356 0.568994
vt 0.385150 0.543107
vt 0.600643 0.555271
vt 0.575126 0.565504
vt 0.548100 0.567136
vt 0.493527 0.564750
vt 0.455771 0.561241
vt 0.431663 0.571715
vt 0.407485 0.562204
vt 0.595873 0.536383
vt 0.570530 0.547205
vt 0.547492 0.572709
vt 0.519993 0.572041
vt 0.464739 0.563667
vt 0.426973 0.557242
vt 0.602513 0.540142
vt 0.383082 0.552732
vt 0.619307 0.577186
vt 0.588558 0.592858
vt 0.419501 0.619504
vt 0.386907 0.608718
vt 0.555291 0.603604
vt 0.357082 0.593200
vt 0.520874 0.610415
vt 0.622211 0.588712
vt 0.592265 0.604009
vt 0.485735 0.613041
vt 0.559773 0.614565
vt 0.450533 0.611515
vt 0.526067 0.621389
vt 0.415976 0.605791
vt 0.625293 0.580369
vt 0.595000 0.595618
vt 0.491646 0.623473
vt 0.382868 0.595749
vt 0.562212 0.606042
vt 0.457222 0.622171
vt 0.352310 0.580890
vt 0.528353 0.612640
vt 0.423659 0.616170
vt 0.623046 0.596456
vt 0.591913 0.611267
vt 0.493820 0.614485
vt 0.391376 0.606490
vt 0.558674 0.621435
vt 0.459367 0.612870
vt 0.361610 0.592033
vt 0.523999 0.627347
vt 0.425558 0.607105
vt 0.488791 0.629051
vt 0.393216 0.597103
vt 0.453565 0.626642
vt 0.363505 0.582425
vt 0.531337 0.690086
vt 0.486096 0.693076
vt 0.623847 0.675944
vt 0.580658 0.690266
vt 0.440845 0.690658
vt 0.536667 0.698721
vt 0.395998 0.682786
vt 0.669350 0.647518
vt 0.626214 0.668339
vt 0.492468 0.701902
vt 0.352003 0.668918
vt 0.582532 0.682414
vt 0.448318 0.699574
vt 0.308759 0.648061
vt 0.538365 0.690515
vt 0.404439 0.691871
vt 0.666602 0.666208
vt 0.622110 0.686474
vt 0.493960 0.693223
vt 0.361375 0.678339
vt 0.577311 0.699723
vt 0.449536 0.690588
vt 0.318923 0.657992
vt 0.532158 0.707035
vt 0.405600 0.682509
vt 0.486921 0.708767
vt 0.362572 0.668593
vt 0.442017 0.705069
vt 0.320453 0.647891
vt 0.397594 0.695874
vt 0.664488 0.645361
vt 0.620731 0.666867
vt 0.354235 0.680751
vt 0.576409 0.681425
vt 0.311943 0.658808
vt 0.666271 0.654860
vt 0.389043 0.711999
vt 0.340881 0.697593
vt 0.637261 0.696904
vt 0.589605 0.711174
vt 0.492749 0.730782
vt 0.445106 0.728317
vt 0.292848 0.676267
vt 0.541837 0.719429
vt 0.397664 0.720484
vt 0.682034 0.695443
vt 0.632677 0.715799
vt 0.493998 0.722344
vt 0.350577 0.706445
vt 0.583882 0.729193
vt 0.446131 0.719523
vt 0.303400 0.685719
vt 0.535069 0.736621
vt 0.398573 0.711086
vt 0.486286 0.738257
vt 0.351453 0.696585
vt 0.437845 0.734235
vt 0.304722 0.675351
vt 0.389788 0.724764
vt 0.680752 0.673986
vt 0.632181 0.695772
vt 0.342319 0.708912
vt 0.583773 0.710795
vt 0.295399 0.686329
vt 0.535077 0.719515
vt 0.682187 0.682577
vt 0.635161 0.704058
vt 0.486310 0.722671
vt 0.587943 0.718944
vt 0.437560 0.720301
vt 0.540387 0.727606
vt 0.685167 0.675804
vt 0.643355 0.748333
vt 0.590420 0.761600
vt 0.493937 0.754092
vt 0.442547 0.751294
vt 0.339493 0.737823
vt 0.287858 0.717441
vt 0.537973 0.769154
vt 0.391300 0.742638
vt 0.485581 0.770578
vt 0.340125 0.727977
vt 0.433532 0.766333
vt 0.288503 0.706733
vt 0.381689 0.756587
vt 0.696941 0.706696
vt 0.643893 0.727991
vt 0.330114 0.740474
vt 0.591338 0.743070
vt 0.278289 0.717763
vt 0.539000 0.751926
vt 0.698519 0.714194
vt 0.646586 0.735509
vt 0.486561 0.754991
vt 0.595456 0.750505
vt 0.434151 0.752707
vt 0.544296 0.759204
vt 0.381863 0.744214
vt 0.700845 0.708097
vt 0.648507 0.728639
vt 0.493089 0.762475
vt 0.329690 0.729725
vt 0.596926 0.742853
vt 0.441856 0.759956
vt 0.276440 0.708601
vt 0.545445 0.751196
vt 0.390714 0.751936
vt 0.697215 0.728728
vt 0.383142 0.789141
vt 0.327877 0.775246
vt 0.654626 0.786861
vt 0.597645 0.799763
vt 0.494099 0.791411
vt 0.438706 0.788561
vt 0.271596 0.755700
vt 0.541083 0.807170
vt 0.383355 0.779896
vt 0.484722 0.808515
vt 0.327917 0.765384
vt 0.428549 0.804157
vt 0.271717 0.744998
vt 0.372706 0.794080
vt 0.713263 0.745805
vt 0.656468 0.766107
vt 0.316869 0.778068
vt 0.599797 0.780923
vt 0.260433 0.756103
vt 0.543399 0.790034
vt 0.714778 0.752586
vt 0.659139 0.772799
vt 0.486824 0.793170
vt 0.603603 0.787516
vt 0.430391 0.790614
vt 0.548560 0.796482
vt 0.374031 0.782188
vt 0.716598 0.746658
vt 0.660492 0.766115
vt 0.493340 0.799587
vt 0.317471 0.767911
vt 0.604932 0.780154
vt 0.438348 0.797034
vt 0.260094 0.747979
vt 0.549512 0.788561
vt 0.712326 0.768452
vt 0.480885 0.992219
vt 0.408522 0.987734
vt 0.281477 0.946538
vt 0.211829 0.926293
vt 0.336512 0.977028
vt 0.773872 0.927965
vt 0.703911 0.948512
vt 0.265285 0.960308
vt 0.632935 0.964102
vt 0.195313 0.938078
vt 0.560840 0.973606
vt 0.774590 0.931163
vt 0.705978 0.951432
vt 0.488418 0.977427
vt 0.636396 0.966797
vt 0.415728 0.975009
vt 0.565764 0.976121
vt 0.343265 0.966298
vt 0.773790 0.924458
vt 0.705986 0.944055
vt 0.494863 0.979853
vt 0.271561 0.951510
vt 0.636732 0.959069
vt 0.423689 0.977446
vt 0.201589 0.931481
vt 0.566356 0.968694
vt 0.353081 0.968544
vt 0.766008 0.951424
vt 0.696290 0.969637
vt 0.495183 0.972426
vt 0.283170 0.954278
vt 0.625184 0.983129
vt 0.423646 0.969974
vt 0.214855 0.934866
vt 0.553119 0.990505
vt 0.352241 0.961275
s 1
f 66/1/66 2/2/2 4/3/4 67/4/67
f 67/4/67 4/3/4 6/5/6 69/6/69
f 69/6/69 6/5/6 8/7/8 71/8/71
f 71/8/71 8/7/8 10/9/10 73/10/73
f 73/10/73 10/9/10 12/11/12 75/12/75
f 75/12/75 12/11/12 14/13/14 77/14/77
f 77/14/77 14/13/14 16/15/16 79/16/79
f 79/16/79 16/15/16 18/17/18 81/18/81
f 81/19/81 18/20/18 20/21/20 83/22/83
f 83/22/83 20/21/20 22/23/22 85/24/85
f 85/24/85 22/23/22 24/25/24 87/26/87
f 87/26/87 24/25/24 26/27/26 89/28/89
f 89/28/89 26/27/26 28/29/28 91/30/91
f 91/30/91 28/29/28 30/31/30 93/32/93
f 93/32/93 30/31/30 32/33/32 95/34/95
f 95/34/95 32/33/32 34/35/34 97/36/97
f 97/37/97 34/38/34 36/39/36 99/40/99
f 99/40/99 36/39/36 38/41/38 101/42/101
f 101/42/101 38/41/38 40/43/40 103/44/103
f 103/44/103 40/43/40 42/45/42 105/46/105
f 105/46/105 42/45/42 44/47/44 107/48/107
f 107/48/107 44/47/44 46/49/46 109/50/109
f 109/50/109 46/49/46 48/51/48 111/52/111
f 111/52/111 48/51/48 50/53/50 113/54/113
f 113/55/113 50/56/50 52/57/52 115/58/115
f 115/58/115 52/57/52 54/59/54 117/60/117
f 117/60/117 54/59/54 56/61/56 119/62/119
f 119/62/119 56/61/56 58/63/58 121/64/121
f 121/64/121 58/63/58 60/65/60 123/66/123
f 123/66/123 60/65/60 62/67/62 125/68/125
f 128/69/128 127/70/127 66/71/66 65/72/65
f 125/68/125 62/67/62 64/73/64 127/70/127
f 127/70/127 64/73/64 2/74/2 66/71/66
f 63/75/63 128/69/128 65/72/65 1/76/1
f 61/77/61 126/78/126 128/69/128 63/75/63
f 126/78/126 125/68/125 127/70/127 128/69/128
f 59/79/59 124/80/124 126/78/126 61/77/61
f 124/80/124 123/66/123 125/68/125 126/78/126
f 57/81/57 122/82/122 124/80/124 59/79/59
f 122/82/122 121/64/121 123/66/123 124/80/124
f 55/83/55 120/84/120 122/82/122 57/81/57
f 120/84/120 119/62/119 121/64/121 122/82/122
f 53/85/53 118/86/118 120/84/120 55/83/55
f 118/86/118 117/60/117 119/62/119 120/84/120
f 51/87/51 116/88/116 118/86/118 53/85/53
f 116/88/116 115/58/115 117/60/117 118/86/118
f 49/89/49 114/90/114 116/88/116 51/87/51
f 114/90/114 113/55/113 115/58/115 116/88/116
f 47/91/47 112/92/112 114/93/114 49/94/49
f 112/92/112 111/52/111 113/54/113 114/93/114
f 45/95/45 110/96/110 112/92/112 47/91/47
f 110/96/110 109/50/109 111/52/111 112/92/112
f 43/97/43 108/98/108 110/96/110 45/95/45
f 108/98/108 107/48/107 109/50/109 110/96/110
f 41/99/41 106/100/106 108/98/108 43/97/43
f 106/100/106 105/46/105 107/48/107 108/98/108
f 39/101/39 104/102/104 106/100/106 41/99/41
f 104/102/104 103/44/103 105/46/105 106/100/106
f 37/103/37 102/104/102 104/102/104 39/101/39
f 102/104/102 101/42/101 103/44/103 104/102/104
f 35/105/35 100/106/100 102/104/102 37/103/37
f 100/106/100 99/40/99 101/42/101 102/104/102
f 33/107/33 98/108/98 100/106/100 35/105/35
f 98/108/98 97/37/97 99/40/99 100/106/100
f 31/109/31 96/110/96 98/111/98 33/112/33
f 96/110/96 95/34/95 97/36/97 98/111/98
f 29/113/29 94/114/94 96/110/96 31/109/31
f 94/114/94 93/32/93 95/34/95 96/110/96
f 27/115/27 92/116/92 94/114/94 29/113/29
f 92/116/92 91/30/91 93/32/93 94/114/94
f 25/117/25 90/118/90 92/116/92 27/115/27
f 90/118/90 89/28/89 91/30/91 92/116/92
f 23/119/23 88/120/88 90/118/90 25/117/25
f 88/120/88 87/26/87 89/28/89 90/118/90
f 21/121/21 86/122/86 88/120/88 23/119/23
f 86/122/86 85/24/85 87/26/87 88/120/88
f 19/123/19 84/124/84 86/122/86 21/121/21
f 84/124/84 83/22/83 85/24/85 86/122/86
f 17/125/17 82/126/82 84/124/84 19/123/19
f 82/126/82 81/19/81 83/22/83 84/124/84
f 15/127/15 80/128/80 82/129/82 17/130/17
f 80/128/80 79/16/79 81/18/81 82/129/82
f 13/131/13 78/132/78 80/128/80 15/127/15
f 78/132/78 77/14/77 79/16/79 80/128/80
f 11/133/11 76/134/76 78/132/78 13/131/13
f 76/134/76 75/12/75 77/14/77 78/132/78
f 9/135/9 74/136/74 76/134/76 11/133/11
f 74/136/74 73/10/73 75/12/75 76/134/76
f 7/137/7 72/138/72 74/136/74 9/135/9
f 72/138/72 71/8/71 73/10/73 74/136/74
f 5/139/5 70/140/70 72/138/72 7/137/7
f 70/140/70 69/6/69 71/8/71 72/138/72
f 3/141/3 68/142/68 70/140/70 5/139/5
f 68/142/68 67/4/67 69/6/69 70/140/70
f 1/143/1 65/144/65 68/142/68 3/141/3
f 65/144/65 66/1/66 67/4/67 68/142/68
f 50/53/50 48/51/48 152/145/152 153/146/153
f 6/5/6 4/3/4 130/147/130 131/148/131
f 24/25/24 22/23/22 139/149/139 140/150/140
f 42/45/42 40/43/40 148/151/148 149/152/149
f 60/65/60 58/63/58 157/153/157 158/154/158
f 16/15/16 14/13/14 135/155/135 136/156/136
f 34/35/34 32/33/32 144/157/144 145/158/145
f 52/57/52 50/56/50 153/159/153 154/160/154
f 8/7/8 6/5/6 131/148/131 132/161/132
f 26/27/26 24/25/24 140/150/140 141/162/141
f 44/47/44 42/45/42 149/152/149 150/163/150
f 62/67/62 60/65/60 158/154/158 159/164/159
f 18/17/18 16/15/16 136/156/136 137/165/137
f 36/39/36 34/38/34 145/166/145 146/167/146
f 54/59/54 52/57/52 154/160/154 155/168/155
f 10/9/10 8/7/8 132/161/132 133/169/133
f 28/29/28 26/27/26 141/162/141 142/170/142
f 46/49/46 44/47/44 150/163/150 151/171/151
f 64/73/64 62/67/62 159/164/159 160/172/160
f 20/21/20 18/20/18 137/173/137 138/174/138
f 38/41/38 36/39/36 146/167/146 147/175/147
f 56/61/56 54/59/54 155/168/155 156/176/156
f 12/11/12 10/9/10 133/169/133 134/177/134
f 30/31/30 28/29/28 142/170/142 143/178/143
f 48/51/48 46/49/46 151/171/151 152/145/152
f 4/3/4 2/2/2 129/179/129 130/147/130
f 2/74/2 64/73/64 160/172/160 129/180/129
f 22/23/22 20/21/20 138/174/138 139/149/139
f 40/43/40 38/41/38 147/175/147 148/151/148
f 58/63/58 56/61/56 156/176/156 157/153/157
f 14/13/14 12/11/12 134/177/134 135/155/135
f 32/33/32 30/31/30 143/178/143 144/157/144
f 138/174/138 137/173/137 169/181/169 170/182/170
f 152/145/152 151/171/151 183/183/183 184/184/184
f 139/149/139 138/174/138 170/182/170 171/185/171
f 153/146/153 152/145/152 184/184/184 185/186/185
f 140/150/140 139/149/139 171/185/171 172/187/172
f 154/160/154 153/159/153 185/188/185 186/189/186
f 141/162/141 140/150/140 172/187/172 173/190/173
f 155/168/155 154/160/154 186/189/186 187/191/187
f 142/170/142 141/162/141 173/190/173 174/192/174
f 156/176/156 155/168/155 187/191/187 188/193/188
f 143/178/143 142/170/142 174/192/174 175/194/175
f 130/147/130 129/179/129 161/195/161 162/196/162
f 157/153/157 156/176/156 188/193/188 189/197/189
f 144/157/144 143/178/143 175/194/175 176/198/176
f 131/148/131 130/147/130 162/196/162 163/199/163
f 158/154/158 157/153/157 189/197/189 190/200/190
f 145/158/145 144/157/144 176/198/176 177/201/177
f 132/161/132 131/148/131 163/199/163 164/202/164
f 159/164/159 158/154/158 190/200/190 191/203/191
f 146/167/146 145/166/145 177/204/177 178/205/178
f 133/169/133 132/161/132 164/202/164 165/206/165
f 160/172/160 159/164/159 191/203/191 192/207/192
f 147/175/147 146/167/146 178/205/178 179/208/179
f 134/177/134 133/169/133 165/206/165 166/209/166
f 129/180/129 160/172/160 192/207/192 161/210/161
f 148/151/148 147/175/147 179/208/179 180/211/180
f 135/155/135 134/177/134 166/209/166 167/212/167
f 149/152/149 148/151/148 180/211/180 181/213/181
f 136/156/136 135/155/135 167/212/167 168/214/168
f 150/163/150 149/152/149 181/213/181 182/215/182
f 137/165/137 136/156/136 168/214/168 169/216/169
f 151/171/151 150/163/150 182/215/182 183/183/183
f 173/190/173 172/187/172 204/217/204 205/218/205
f 187/191/187 186/189/186 218/219/218 219/220/219
f 174/192/174 173/190/173 205/218/205 206/221/206
f 188/193/188 187/191/187 219/220/219 220/222/220
f 175/194/175 174/192/174 206/221/206 207/223/207
f 162/196/162 161/195/161 193/224/193 194/225/194
f 189/197/189 188/193/188 220/222/220 221/226/221
f 176/198/176 175/194/175 207/223/207 208/227/208
f 163/199/163 162/196/162 194/225/194 195/228/195
f 190/200/190 189/197/189 221/226/221 222/229/222
f 177/201/177 176/198/176 208/227/208 209/230/209
f 164/202/164 163/199/163 195/228/195 196/231/196
f 191/203/191 190/200/190 222/229/222 223/232/223
f 178/205/178 177/204/177 209/233/209 210/234/210
f 165/206/165 164/202/164 196/231/196 197/235/197
f 192/207/192 191/203/191 223/232/223 224/236/224
f 179/208/179 178/205/178 210/234/210 211/237/211
f 166/209/166 165/206/165 197/235/197 198/238/198
f 161/210/161 192/207/192 224/236/224 193/239/193
f 180/211/180 179/208/179 211/237/211 212/240/212
f 167/212/167 166/209/166 198/238/198 199/241/199
f 181/213/181 180/211/180 212/240/212 213/242/213
f 168/214/168 167/212/167 199/241/199 200/243/200
f 182/215/182 181/213/181 213/242/213 214/244/214
f 169/216/169 168/214/168 200/243/200 201/245/201
f 183/183/183 182/215/182 214/244/214 215/246/215
f 170/182/170 169/181/169 201/247/201 202/248/202
f 184/184/184 183/183/183 215/246/215 216/249/216
f 171/185/171 170/182/170 202/248/202 203/250/203
f 185/186/185 184/184/184 216/249/216 217/251/217
f 172/187/172 171/185/171 203/250/203 204/217/204
f 186/189/186 185/188/185 217/252/217 218/219/218
f 208/227/208 207/223/207 239/253/239 240/254/240
f 195/228/195 194/225/194 226/255/226 227/256/227
f 222/229/222 221/226/221 253/257/253 254/258/254
f 209/230/209 208/227/208 240/254/240 241/259/241
f 196/231/196 195/228/195 227/256/227 228/260/228
f 223/232/223 222/229/222 254/258/254 255/261/255
f 210/234/210 209/233/209 241/262/241 242/263/242
f 197/235/197 196/231/196 228/260/228 229/264/229
f 224/236/224 223/232/223 255/261/255 256/265/256
f 211/237/211 210/234/210 242/263/242 243/266/243
f 198/238/198 197/235/197 229/264/229 230/267/230
f 193/239/193 224/236/224 256/265/256 225/268/225
f 212/240/212 211/237/211 243/266/243 244/269/244
f 199/241/199 198/238/198 230/267/230 231/270/231
f 213/242/213 212/240/212 244/269/244 245/271/245
f 200/243/200 199/241/199 231/270/231 232/272/232
f 214/244/214 213/242/213 245/271/245 246/273/246
f 201/245/201 200/243/200 232/272/232 233/274/233
f 215/246/215 214/244/214 246/273/246 247/275/247
f 202/248/202 201/247/201 233/276/233 234/277/234
f 216/249/216 215/246/215 247/275/247 248/278/248
f 203/250/203 202/248/202 234/277/234 235/279/235
f 217/251/217 216/249/216 248/278/248 249/280/249
f 204/217/204 203/250/203 235/279/235 236/281/236
f 218/219/218 217/252/217 249/282/249 250/283/250
f 205/218/205 204/217/204 236/281/236 237/284/237
f 219/220/219 218/219/218 250/283/250 251/285/251
f 206/221/206 205/218/205 237/284/237 238/286/238
f 220/222/220 219/220/219 251/285/251 252/287/252
f 207/223/207 206/221/206 238/286/238 239/253/239
f 194/225/194 193/224/193 225/288/225 226/255/226
f 221/226/221 220/222/220 252/287/252 253/257/253
f 243/266/243 242/263/242 274/289/274 275/290/275
f 230/267/230 229/264/229 261/291/261 262/292/262
f 225/268/225 256/265/256 288/293/288 257/294/257
f 244/269/244 243/266/243 275/290/275 276/295/276
f 231/270/231 230/267/230 262/292/262 263/296/263
f 245/271/245 244/269/244 276/295/276 277/297/277
f 232/272/232 231/270/231 263/296/263 264/298/264
f 246/273/246 245/271/245 277/297/277 278/299/278
f 233/274/233 232/272/232 264/298/264 265/300/265
f 247/275/247 246/273/246 278/299/278 279/301/279
f 234/277/234 233/276/233 265/302/265 266/303/266
f 248/278/248 247/275/247 279/301/279 280/304/280
f 235/279/235 234/277/234 266/303/266 267/305/267
f 249/280/249 248/278/248 280/304/280 281/306/281
f 236/281/236 235/279/235 267/305/267 268/307/268
f 250/283/250 249/282/249 281/308/281 282/309/282
f 237/284/237 236/281/236 268/307/268 269/310/269
f 251/285/251 250/283/250 282/309/282 283/311/283
f 238/286/238 237/284/237 269/310/269 270/312/270
f 252/287/252 251/285/251 283/311/283 284/313/284
f 239/253/239 238/286/238 270/312/270 271/314/271
f 226/255/226 225/288/225 257/315/257 258/316/258
f 253/257/253 252/287/252 284/313/284 285/317/285
f 240/254/240 239/253/239 271/314/271 272/318/272
f 227/256/227 226/255/226 258/316/258 259/319/259
f 254/258/254 253/257/253 285/317/285 286/320/286
f 241/259/241 240/254/240 272/318/272 273/321/273
f 228/260/228 227/256/227 259/319/259 260/322/260
f 255/261/255 254/258/254 286/320/286 287/323/287
f 242/263/242 241/262/241 273/324/273 274/289/274
f 229/264/229 228/260/228 260/322/260 261/291/261
f 256/265/256 255/261/255 287/323/287 288/293/288
f 288/293/288 287/323/287 319/325/319 320/326/320
f 275/290/275 274/289/274 306/327/306 307/328/307
f 262/292/262 261/291/261 293/329/293 294/330/294
f 257/294/257 288/293/288 320/326/320 289/331/289
f 276/295/276 275/290/275 307/328/307 308/332/308
f 263/296/263 262/292/262 294/330/294 295/333/295
f 277/297/277 276/295/276 308/332/308 309/334/309
f 264/298/264 263/296/263 295/333/295 296/335/296
f 278/299/278 277/297/277 309/334/309 310/336/310
f 265/300/265 264/298/264 296/335/296 297/337/297
f 279/301/279 278/299/278 310/336/310 311/338/311
f 266/303/266 265/302/265 297/339/297 298/340/298
f 280/304/280 279/301/279 311/338/311 312/341/312
f 267/305/267 266/303/266 298/340/298 299/342/299
f 281/306/281 280/304/280 312/341/312 313/343/313
f 268/307/268 267/305/267 299/342/299 300/344/300
f 282/309/282 281/308/281 313/345/313 314/346/314
f 269/310/269 268/307/268 300/344/300 301/347/301
f 283/311/283 282/309/282 314/346/314 315/348/315
f 270/312/270 269/310/269 301/347/301 302/349/302
f 284/313/284 283/311/283 315/348/315 316/350/316
f 271/314/271 270/312/270 302/349/302 303/351/303
f 258/316/258 257/315/257 289/352/289 290/353/290
f 285/317/285 284/313/284 316/350/316 317/354/317
f 272/318/272 271/314/271 303/351/303 304/355/304
f 259/319/259 258/316/258 290/353/290 291/356/291
f 286/320/286 285/317/285 317/354/317 318/357/318
f 273/321/273 272/318/272 304/355/304 305/358/305
f 260/322/260 259/319/259 291/356/291 292/359/292
f 287/323/287 286/320/286 318/357/318 319/325/319
f 274/289/274 273/324/273 305/360/305 306/327/306
f 261/291/261 260/322/260 292/359/292 293/329/293
f 310/336/310 309/334/309 341/361/341 342/362/342
f 297/337/297 296/335/296 328/363/328 329/364/329
f 311/338/311 310/336/310 342/362/342 343/365/343
f 298/340/298 297/339/297 329/366/329 330/367/330
f 312/341/312 311/338/311 343/365/343 344/368/344
f 299/342/299 298/340/298 330/367/330 331/369/331
f 313/343/313 312/341/312 344/368/344 345/370/345
f 300/344/300 299/342/299 331/369/331 332/371/332
f 314/346/314 313/345/313 345/372/345 346/373/346
f 301/347/301 300/344/300 332/371/332 333/374/333
f 315/348/315 314/346/314 346/373/346 347/375/347
f 302/349/302 301/347/301 333/374/333 334/376/334
f 316/350/316 315/348/315 347/375/347 348/377/348
f 303/351/303 302/349/302 334/376/334 335/378/335
f 290/353/290 289/352/289 321/379/321 322/380/322
f 317/354/317 316/350/316 348/377/348 349/381/349
f 304/355/304 303/351/303 335/378/335 336/382/336
f 291/356/291 290/353/290 322/380/322 323/383/323
f 318/357/318 317/354/317 349/381/349 350/384/350
f 305/358/305 304/355/304 336/382/336 337/385/337
f 292/359/292 291/356/291 323/383/323 324/386/324
f 319/325/319 318/357/318 350/384/350 351/387/351
f 306/327/306 305/360/305 337/388/337 338/389/338
f 293/329/293 292/359/292 324/386/324 325/390/325
f 320/326/320 319/325/319 351/387/351 352/391/352
f 307/328/307 306/327/306 338/389/338 339/392/339
f 294/330/294 293/329/293 325/390/325 326/393/326
f 289/331/289 320/326/320 352/391/352 321/394/321
f 308/332/308 307/328/307 339/392/339 340/395/340
f 295/333/295 294/330/294 326/393/326 327/396/327
f 309/334/309 308/332/308 340/395/340 341/361/341
f 296/335/296 295/333/295 327/396/327 328/363/328
